<svg width="512" height="512" viewBox="0 0 512 512" fill="none" xmlns="http://www.w3.org/2000/svg">
<path d="M443.521 428.663L424.467 413.163L409.224 426.649C416.885 433.633 396.559 445.84 401.033 466.253L443.521 428.663Z" fill="white"/>
<path fill-rule="evenodd" clip-rule="evenodd" d="M408.476 426.643L424.453 412.508L444.293 428.647L400.727 467.192L400.544 466.36C398.265 455.961 402.315 447.662 405.886 441.174C406.171 440.656 406.452 440.152 406.726 439.66C408.185 437.039 409.448 434.77 410.07 432.765C410.435 431.586 410.563 430.542 410.396 429.606C410.231 428.683 409.771 427.824 408.887 427.018L408.476 426.643ZM409.957 426.668C410.743 427.507 411.201 428.428 411.381 429.431C411.586 430.579 411.418 431.795 411.025 433.061C410.369 435.175 409.043 437.556 407.586 440.171C407.315 440.658 407.039 441.153 406.762 441.656C403.304 447.939 399.545 455.682 401.35 465.305L442.748 428.679L424.48 413.819L409.957 426.668Z" fill="black"/>
<path d="M342.217 148.472C343.106 154 346.498 160.719 348 163L347.975 163.02C344.221 166.02 338.993 170.198 330 169C330.539 167.52 331.179 164.854 331.495 161.97C321.804 167.358 311.634 145.701 314.578 135.737C316.644 128.747 324.108 126.33 330.843 129.824C335.935 132.466 340.61 138.489 342.217 148.472Z" fill="white"/>
<path fill-rule="evenodd" clip-rule="evenodd" d="M321.125 129.321C318.312 130.309 316.045 132.537 315.058 135.879C314.354 138.26 314.424 141.391 315.106 144.696C315.787 147.993 317.067 151.417 318.734 154.364C320.405 157.319 322.442 159.754 324.615 161.122C326.767 162.475 329.023 162.772 331.252 161.532L332.097 161.063L331.992 162.024C331.711 164.592 331.175 166.998 330.671 168.577C338.828 169.458 343.716 165.777 347.337 162.89C345.716 160.274 342.582 153.887 341.723 148.551C340.135 138.687 335.533 132.821 330.612 130.268C327.353 128.576 323.947 128.33 321.125 129.321ZM320.794 128.377C323.905 127.285 327.598 127.577 331.073 129.38C336.337 132.111 341.084 138.291 342.71 148.392C343.585 153.828 346.939 160.48 348.418 162.725L348.669 163.106L348.277 163.419C344.51 166.429 339.139 170.722 329.934 169.496L329.317 169.413L329.53 168.829C329.997 167.546 330.552 165.312 330.888 162.815C328.551 163.764 326.213 163.308 324.083 161.968C321.716 160.479 319.578 157.888 317.863 154.856C316.145 151.818 314.828 148.296 314.127 144.898C313.428 141.509 313.331 138.196 314.099 135.596C315.177 131.947 317.675 129.472 320.794 128.377Z" fill="black"/>
<path d="M335.614 148.997C338.44 150.273 339.188 149.599 342.216 148.472C340.609 138.489 335.935 132.466 330.842 129.824C315.961 122.24 294.983 139.304 309.247 144.28C310.44 144.696 311.756 144.457 312.877 143.875C321.116 139.599 325.671 141.118 330.968 147.989C331.042 148.102 331.12 148.205 331.201 148.294C331.123 148.191 331.045 148.09 330.968 147.989C330.123 146.708 329.684 144.041 330.276 143.069C333.536 137.709 337.66 145.207 335.614 148.997Z" fill="black"/>
<path fill-rule="evenodd" clip-rule="evenodd" d="M305.083 142.237C305.922 143.258 307.245 144.111 309.083 144.752C310.443 145.226 311.904 144.944 313.108 144.319C317.183 142.204 320.247 141.576 322.905 142.237C325.566 142.899 327.939 144.881 330.561 148.28C330.644 148.405 330.733 148.522 330.829 148.629L331.599 147.992C331.525 147.894 331.45 147.796 331.375 147.699C331.011 147.139 330.711 146.237 330.578 145.339C330.511 144.892 330.489 144.465 330.514 144.103C330.541 143.73 330.615 143.473 330.703 143.329C331.476 142.058 332.209 141.695 332.768 141.701C333.349 141.707 333.977 142.111 334.526 142.89C335.066 143.656 335.465 144.703 335.606 145.783C335.746 146.865 335.621 147.931 335.174 148.76L334.919 149.232L335.408 149.453C336.871 150.113 337.868 150.301 338.92 150.129C339.429 150.046 339.931 149.882 340.48 149.677C340.727 149.585 340.989 149.482 341.268 149.373L341.362 149.336C341.677 149.212 342.017 149.08 342.391 148.941L342.775 148.797L342.71 148.393C341.084 138.291 336.336 132.111 331.073 129.38L331.069 129.379L331.069 129.379C323.411 125.475 314.242 127.924 308.818 131.94C306.115 133.942 304.225 136.418 304.013 138.812C303.905 140.03 304.235 141.205 305.083 142.237ZM329.601 145.57C327.542 143.314 325.48 141.847 323.146 141.267C320.143 140.52 316.811 141.27 312.647 143.431C311.608 143.971 310.438 144.166 309.412 143.808C307.684 143.205 306.542 142.437 305.856 141.602C305.178 140.777 304.924 139.863 305.009 138.9C305.183 136.932 306.794 134.683 309.413 132.744C314.632 128.88 323.392 126.589 330.614 130.269C335.467 132.788 340.009 138.528 341.656 148.149C341.422 148.239 341.203 148.324 340.997 148.405L340.904 148.441C340.623 148.552 340.369 148.651 340.13 148.741C339.598 148.939 339.169 149.075 338.759 149.142C338.067 149.255 337.372 149.181 336.283 148.74C336.661 147.782 336.732 146.692 336.597 145.654C336.438 144.43 335.986 143.226 335.343 142.314C334.71 141.415 333.823 140.712 332.778 140.701C331.711 140.69 330.706 141.4 329.849 142.809C329.641 143.15 329.548 143.591 329.517 144.032C329.485 144.484 329.514 144.986 329.589 145.487C329.593 145.514 329.597 145.542 329.601 145.57Z" fill="black"/>
<path d="M308.5 264.948C310.904 206.121 323.741 178.504 330 169C338.994 170.198 344.221 166.02 347.975 163.02L348 163C361.513 181.534 370.736 208.918 374.313 231.574L379.582 264.948H321.885V272.546C315.071 272.546 310.123 267.481 308.5 264.948Z" fill="#1064E1"/>
<path fill-rule="evenodd" clip-rule="evenodd" d="M348.096 162.283L348.404 162.705C361.978 181.323 371.222 208.79 374.807 231.496L380.167 265.448H322.385V273.046H321.885C318.351 273.046 315.313 271.732 312.962 270.108C310.614 268.487 308.925 266.538 308.079 265.218L307.994 265.085L308.001 264.928C310.407 206.039 323.259 178.327 329.583 168.725L329.755 168.463L330.066 168.504C338.84 169.673 343.922 165.619 347.663 162.629L348.096 162.283ZM347.903 163.717C344.2 166.668 338.964 170.588 330.248 169.535C324.01 179.155 311.454 206.57 309.021 264.448H378.997L373.819 231.652C370.277 209.218 361.188 182.16 347.903 163.717ZM309.464 265.448C310.34 266.596 311.728 268.04 313.53 269.285C315.648 270.748 318.316 271.921 321.385 272.037V265.448H309.464Z" fill="black"/>
<path d="M366.196 272.546C373.011 272.546 380.5 268 379.582 264.948H366.196V272.546Z" fill="black"/>
<path fill-rule="evenodd" clip-rule="evenodd" d="M379.953 264.448H365.696V273.046H366.196C369.703 273.046 373.365 271.88 376.04 270.324C377.377 269.546 378.496 268.654 379.227 267.734C379.95 266.824 380.359 265.796 380.06 264.804L379.953 264.448ZM379.158 265.448C379.167 265.918 378.947 266.479 378.444 267.112C377.816 267.902 376.809 268.719 375.537 269.459C373.122 270.865 369.852 271.934 366.696 272.038V265.448H379.158Z" fill="black"/>
<path d="M368 265H320.5H308.5L307.159 354.633L315.819 444.266H363.681L350.65 381L398.5 438L434.719 404.266L381 347.5L368 265Z" fill="white"/>
<path fill-rule="evenodd" clip-rule="evenodd" d="M368.427 264.5H308.007L306.659 354.653L315.365 444.766H364.295L351.538 382.836L398.456 438.725L435.429 404.288L381.47 347.269L368.427 264.5ZM350.185 381.225L363.068 443.766H316.273L307.66 354.613L308.993 265.5H320.073L333.974 353.561C335.037 360.292 337.913 366.606 342.294 371.825L350.185 381.225ZM321.085 265.5H367.573L380.53 347.731L434.01 404.243L398.545 437.275L343.06 371.182C338.796 366.102 335.996 359.956 334.962 353.405L321.085 265.5Z" fill="black"/>
<path fill-rule="evenodd" clip-rule="evenodd" d="M329.534 210.75L331.07 183.58L330.072 183.523L328.489 211.524L351.817 217.216L355.428 195.748L354.442 195.582L351.01 215.989L329.534 210.75Z" fill="black"/>
<path d="M329.011 211.137L351.414 216.602L342 290.5C334.92 289.32 329.974 284.359 329 280.84C327.333 274.815 332.447 267.156 331.5 264L329.011 211.137Z" fill="white"/>
<path fill-rule="evenodd" clip-rule="evenodd" d="M328.48 210.493L351.966 216.223L342.43 291.079L341.918 290.993C338.285 290.388 335.199 288.812 332.895 286.935C330.6 285.065 329.041 282.864 328.518 280.973C327.641 277.803 328.554 274.249 329.503 271.196C329.65 270.722 329.798 270.262 329.941 269.815C330.267 268.798 330.57 267.854 330.79 266.992C331.11 265.737 331.214 264.788 331.021 264.144L331.003 264.085L328.48 210.493ZM329.542 211.781L331.997 263.918C332.251 264.842 332.072 266.01 331.759 267.239C331.531 268.132 331.213 269.123 330.882 270.155C330.741 270.595 330.597 271.042 330.457 271.493C329.503 274.565 328.692 277.853 329.482 280.707C329.933 282.335 331.334 284.373 333.526 286.159C335.599 287.849 338.345 289.283 341.571 289.914L350.861 216.982L329.542 211.781Z" fill="black"/>
<path d="M353.612 468.5L349.612 444.266H329.261C330.371 454.573 307.059 450.247 296.883 468.5H353.612Z" fill="white"/>
<path fill-rule="evenodd" clip-rule="evenodd" d="M328.704 443.766H350.037L354.202 469H296.032L296.446 468.256C301.63 458.958 310.162 455.425 317.136 452.932C317.692 452.734 318.237 452.542 318.768 452.355C321.597 451.359 324.047 450.497 325.841 449.407C326.897 448.766 327.684 448.069 328.179 447.257C328.667 446.456 328.892 445.509 328.764 444.319L328.704 443.766ZM329.796 444.766C329.83 445.915 329.563 446.908 329.032 447.778C328.425 448.774 327.494 449.573 326.36 450.261C324.468 451.41 321.897 452.315 319.074 453.308C318.548 453.493 318.013 453.681 317.472 453.874C310.719 456.288 302.773 459.597 297.749 468H353.023L349.188 444.766H329.796Z" fill="black"/>
<path d="M117 80C117 100.435 100.435 117 80 117C59.5655 117 43 100.435 43 80C43 59.5655 59.5655 43 80 43C100.435 43 117 59.5655 117 80Z" fill="#FF7626"/>
<path fill-rule="evenodd" clip-rule="evenodd" d="M80 116C99.8823 116 116 99.8823 116 80C116 60.1177 99.8823 44 80 44C60.1177 44 44 60.1177 44 80C44 99.8823 60.1177 116 80 116ZM80 117C100.435 117 117 100.435 117 80C117 59.5655 100.435 43 80 43C59.5655 43 43 59.5655 43 80C43 100.435 59.5655 117 80 117Z" fill="black"/>
<path d="M122.5 102.5C115.7 89.7001 86 91.5001 79.5 107.5H191C173.5 71.5001 129.5 84.5001 122.5 102.5Z" fill="white"/>
<path fill-rule="evenodd" clip-rule="evenodd" d="M133.95 91.0552C128.627 94.2075 124.662 98.3194 122.966 102.681L122.57 103.698L122.058 102.735C120.434 99.6761 117.422 97.455 113.657 96.1018C109.895 94.7492 105.417 94.2785 100.934 94.6978C92.208 95.514 83.6426 99.6736 80.2616 107H190.194C181.49 89.774 166.547 84.2746 152.848 85.2487C145.894 85.7432 139.266 87.9073 133.95 91.0552ZM152.777 84.2513C167.015 83.2388 182.599 89.0732 191.45 107.281L191.799 108H78.7572L79.0368 107.312C82.3866 99.0661 91.6617 94.5608 100.841 93.7022C105.445 93.2715 110.074 93.7508 113.996 95.1607C117.564 96.4436 120.578 98.5092 122.429 101.39C124.402 97.1129 128.364 93.2011 133.441 90.1948C138.89 86.9677 145.668 84.7568 152.777 84.2513Z" fill="black"/>
<path fill-rule="evenodd" clip-rule="evenodd" d="M207.243 180.528C209.651 179.145 212.522 178.568 215.953 179.079C218.746 179.495 221.202 179.484 223.36 179.134C220.552 174.572 217.025 169.792 213.274 165.684C211.527 166.783 209.728 168.126 207.924 169.584C205.701 171.381 203.482 173.343 201.349 175.23L201.308 175.266C199.167 177.16 197.109 178.979 195.238 180.456C193.377 181.926 191.657 183.094 190.192 183.652C189.457 183.932 188.747 184.074 188.093 183.996C187.422 183.915 186.842 183.604 186.391 183.043C185.952 182.496 185.654 181.736 185.475 180.776C185.295 179.812 185.228 178.613 185.277 177.156C185.377 174.242 185.944 170.233 187.061 164.887C188.521 157.899 191.412 154.48 195.24 153.879C198.979 153.291 203.348 155.459 207.63 158.916C209.582 160.492 211.543 162.358 213.452 164.402C213.647 164.286 213.841 164.173 214.034 164.064C216.232 162.818 218.392 161.97 220.406 161.829C227.789 161.314 233.354 162.489 237.311 164.772C238.58 159.841 238.653 154.592 238.195 150.651C237.635 145.836 237.557 142.741 237.951 141.016C238.145 140.164 238.489 139.487 239.11 139.208C239.739 138.925 240.429 139.148 241.056 139.521C241.702 139.905 242.423 140.53 243.203 141.311C243.987 142.097 244.854 143.065 245.793 144.155C246.564 145.051 247.379 146.024 248.24 147.051C249.492 148.544 250.84 150.152 252.29 151.807C257.17 157.375 263.004 163.229 269.32 166.027C272.467 167.421 275.714 168.047 279.014 167.517C282.313 166.987 285.712 165.294 289.153 161.968L289.848 162.687C286.288 166.127 282.709 167.936 279.173 168.504C275.639 169.072 272.195 168.394 268.915 166.941C262.38 164.046 256.421 158.038 251.538 152.466C250.089 150.813 248.718 149.177 247.455 147.67C246.595 146.645 245.785 145.679 245.035 144.808C244.101 143.724 243.253 142.777 242.495 142.017C241.731 141.253 241.082 140.699 240.545 140.381C239.99 140.05 239.684 140.046 239.52 140.12C239.349 140.197 239.104 140.459 238.926 141.238C238.576 142.772 238.626 145.702 239.188 150.535C239.664 154.629 239.587 160.144 238.201 165.322C239.857 166.416 241.196 167.722 242.236 169.188C245.779 174.179 245.751 180.872 243.223 186.959C241.17 191.904 237.447 196.503 232.549 199.555C233.007 202.357 233.061 204.796 232.768 206.87C232.101 211.604 229.617 214.477 226.051 215.295C222.54 216.101 218.126 214.877 213.623 211.787C209.136 208.71 204.501 203.743 200.468 196.908C199.811 196.622 199.164 196.359 198.529 196.118C197.613 199.163 196.885 202.364 196.237 205.461C196.002 206.58 195.779 207.688 195.56 208.768C195.155 210.77 194.769 212.681 194.371 214.405C193.759 217.053 193.105 219.331 192.276 220.889C191.861 221.669 191.381 222.311 190.803 222.721C190.207 223.145 189.524 223.308 188.772 223.151C188.043 222.999 187.288 222.554 186.493 221.849C185.695 221.14 184.826 220.14 183.871 218.825C180.333 213.952 178.345 209.55 177.69 205.808C177.035 202.061 177.714 198.945 179.552 196.722C181.388 194.502 184.311 193.255 187.975 193.102C190.846 192.981 194.191 193.529 197.884 194.819C198.826 191.862 199.963 189.058 201.395 186.654C202.94 184.062 204.844 181.905 207.243 180.528ZM198.825 195.16C199.75 192.247 200.861 189.504 202.254 187.166C203.742 184.668 205.536 182.661 207.741 181.395C209.937 180.134 212.578 179.587 215.806 180.068C218.858 180.522 221.55 180.487 223.918 180.053C225.503 182.702 226.831 185.256 227.802 187.536C229.667 191.914 230.841 195.751 231.446 199.052C230.527 199.591 229.567 200.074 228.57 200.491C222.177 203.169 214.229 203.2 205.598 198.355C204.029 197.474 202.501 196.71 201.019 196.058C200.276 195.731 199.544 195.432 198.825 195.16ZM232.358 198.491C236.902 195.557 240.368 191.226 242.3 186.575C244.741 180.698 244.705 174.393 241.421 169.767C240.514 168.49 239.352 167.329 237.911 166.335C237.461 167.814 236.897 169.256 236.202 170.618C234.567 173.823 232.196 176.602 228.848 178.37C227.668 178.994 226.372 179.489 224.951 179.833C226.483 182.419 227.77 184.909 228.722 187.144C230.535 191.399 231.717 195.182 232.358 198.491ZM224.409 178.932C225.877 178.605 227.196 178.112 228.381 177.486C231.509 175.834 233.748 173.228 235.311 170.164C236.02 168.774 236.588 167.294 237.036 165.772C233.285 163.527 227.874 162.31 220.476 162.827C218.675 162.952 216.667 163.721 214.527 164.934C214.4 165.006 214.273 165.079 214.145 165.154C217.98 169.376 221.571 174.276 224.409 178.932ZM231.623 200.105C230.766 200.59 229.876 201.028 228.956 201.414C222.265 204.216 213.994 204.215 205.109 199.227C204.082 198.65 203.074 198.125 202.087 197.651C205.875 203.738 210.118 208.171 214.188 210.963C218.575 213.972 222.699 215.038 225.827 214.32C228.901 213.615 231.155 211.152 231.778 206.731C232.041 204.864 232.01 202.656 231.623 200.105ZM197.588 195.774C193.975 194.509 190.745 193.986 188.017 194.101C184.55 194.246 181.929 195.416 180.322 197.359C178.718 199.3 178.056 202.095 178.675 205.636C179.295 209.181 181.198 213.442 184.68 218.237C185.612 219.52 186.433 220.458 187.157 221.101C187.885 221.748 188.486 222.07 188.977 222.172C189.444 222.27 189.844 222.176 190.224 221.906C190.623 221.623 191.014 221.133 191.393 220.42C192.154 218.99 192.785 216.828 193.396 214.18C193.792 212.468 194.173 210.582 194.576 208.59C194.795 207.507 195.02 206.392 195.258 205.257C195.908 202.146 196.647 198.891 197.588 195.774ZM212.584 164.937C210.75 162.984 208.871 161.203 207.002 159.694C202.749 156.262 198.682 154.35 195.395 154.867C192.197 155.369 189.472 158.237 188.04 165.092C186.927 170.416 186.373 174.36 186.277 177.19C186.229 178.605 186.296 179.725 186.458 180.592C186.62 181.463 186.873 182.046 187.171 182.416C187.457 182.773 187.799 182.953 188.213 183.003C188.645 183.055 189.183 182.966 189.836 182.717C191.148 182.217 192.766 181.134 194.619 179.671C196.463 178.215 198.498 176.416 200.645 174.517L200.694 174.474C202.822 172.592 205.055 170.617 207.295 168.806C209.061 167.379 210.839 166.047 212.584 164.937Z" fill="black"/>
<path d="M112.788 187.348C140.5 180.694 150.687 292.094 138.817 295.767C126.946 299.439 80.6995 195.051 112.788 187.348Z" fill="black"/>
<path fill-rule="evenodd" clip-rule="evenodd" d="M103.759 194.146C105.6 190.445 108.5 187.863 112.671 186.862C116.321 185.985 119.669 187.067 122.669 189.561C125.654 192.042 128.317 195.934 130.665 200.746C135.362 210.375 138.873 223.845 141.139 237.604C143.407 251.368 144.437 265.462 144.155 276.354C144.014 281.798 143.545 286.463 142.73 289.896C142.323 291.611 141.824 293.043 141.221 294.116C140.623 295.18 139.884 295.96 138.965 296.245C138.032 296.533 137.005 296.269 135.967 295.673C134.922 295.073 133.793 294.096 132.608 292.819C130.234 290.262 127.558 286.421 124.798 281.712C119.275 272.289 113.371 259.312 108.844 245.984C104.32 232.663 101.157 218.947 101.148 208.055C101.144 202.61 101.927 197.828 103.759 194.146ZM136.465 294.806C137.393 295.339 138.118 295.46 138.669 295.289C139.234 295.115 139.806 294.594 140.349 293.626C140.888 292.667 141.36 291.335 141.757 289.665C142.549 286.329 143.015 281.742 143.155 276.328C143.435 265.509 142.412 251.479 140.153 237.766C137.892 224.047 134.402 210.686 129.766 201.184C127.447 196.431 124.86 192.682 122.03 190.33C119.215 187.991 116.183 187.047 112.904 187.834C109.054 188.758 106.379 191.124 104.654 194.591C102.919 198.079 102.144 202.687 102.148 208.054C102.157 218.787 105.281 232.383 109.791 245.663C114.299 258.936 120.177 271.849 125.661 281.206C128.405 285.888 131.038 289.659 133.341 292.138C134.493 293.38 135.543 294.276 136.465 294.806Z" fill="black"/>
<path d="M162.487 319.394C164.678 328.524 159.054 337.701 149.925 339.893C140.795 342.085 131.618 336.461 129.426 327.331C127.234 318.202 132.858 309.024 141.988 306.832C151.117 304.641 160.295 310.265 162.487 319.394Z" fill="black"/>
<path fill-rule="evenodd" clip-rule="evenodd" d="M149.691 338.921C158.284 336.858 163.577 328.22 161.514 319.628C159.451 311.035 150.814 305.742 142.221 307.805C133.629 309.868 128.335 318.505 130.398 327.098C132.461 335.69 141.099 340.984 149.691 338.921ZM149.925 339.893C159.054 337.701 164.678 328.524 162.487 319.394C160.295 310.265 151.117 304.641 141.988 306.832C132.858 309.024 127.234 318.202 129.426 327.331C131.618 336.461 140.795 342.085 149.925 339.893Z" fill="black"/>
<path d="M105.553 182.914C133.265 176.261 143.453 287.661 131.582 291.333C119.711 295.006 73.4646 190.618 105.553 182.914Z" fill="white"/>
<path fill-rule="evenodd" clip-rule="evenodd" d="M96.5239 189.712C98.3651 186.011 101.265 183.429 105.436 182.428C109.086 181.552 112.434 182.634 115.434 185.127C118.42 187.609 121.082 191.5 123.43 196.312C128.127 205.941 131.638 219.412 133.904 233.17C136.172 246.935 137.202 261.028 136.92 271.921C136.779 277.364 136.31 282.03 135.495 285.463C135.088 287.178 134.589 288.609 133.986 289.682C133.388 290.747 132.649 291.527 131.73 291.811C130.797 292.099 129.77 291.836 128.732 291.239C127.687 290.639 126.558 289.662 125.373 288.385C122.999 285.829 120.323 281.987 117.563 277.278C112.04 267.855 106.136 254.879 101.609 241.551C97.0852 228.23 93.9221 214.514 93.9134 203.621C93.909 198.176 94.6924 193.394 96.5239 189.712ZM129.23 290.372C130.158 290.905 130.883 291.026 131.434 290.856C131.999 290.681 132.571 290.16 133.114 289.193C133.653 288.233 134.126 286.902 134.522 285.232C135.314 281.896 135.78 277.308 135.92 271.895C136.2 261.075 135.177 247.046 132.918 233.333C130.657 219.614 127.167 206.253 122.531 196.751C120.212 191.997 117.625 188.248 114.795 185.896C111.981 183.557 108.948 182.613 105.67 183.4C101.819 184.325 99.1444 186.69 97.4192 190.158C95.6843 193.645 94.909 198.253 94.9134 203.621C94.922 214.353 98.046 227.949 102.556 241.229C107.064 254.502 112.942 267.415 118.426 276.773C121.17 281.454 123.804 285.225 126.106 287.705C127.258 288.946 128.309 289.843 129.23 290.372Z" fill="black"/>
<path d="M155.252 314.961C157.443 324.09 151.819 333.268 142.69 335.459C133.561 337.651 124.383 332.027 122.191 322.898C119.999 313.768 125.623 304.591 134.753 302.399C143.882 300.207 153.06 305.831 155.252 314.961Z" fill="white"/>
<path fill-rule="evenodd" clip-rule="evenodd" d="M142.456 334.487C151.049 332.424 156.342 323.786 154.279 315.194C152.216 306.602 143.579 301.308 134.986 303.371C126.394 305.434 121.101 314.072 123.163 322.664C125.226 331.257 133.864 336.55 142.456 334.487ZM142.69 335.459C151.819 333.268 157.443 324.09 155.252 314.961C153.06 305.831 143.882 300.207 134.753 302.399C125.623 304.591 119.999 313.768 122.191 322.898C124.383 332.027 133.561 337.651 142.69 335.459Z" fill="black"/>
<path d="M266.041 260.563C273.716 258.535 279.709 239.964 291.355 235.825C271.835 213.379 255.173 218.083 248.202 228.206C237.358 243.954 222.899 231.796 201.697 255.447C176.96 283.04 203.266 316.222 223.081 289.167C237.801 269.069 256.448 263.098 266.041 260.563Z" fill="white"/>
<path fill-rule="evenodd" clip-rule="evenodd" d="M228.954 239.348C221.397 241.218 212.583 244.052 202.069 255.781C189.827 269.436 190.288 284.372 196.089 292.51C198.99 296.578 203.21 298.945 207.875 298.693C212.545 298.441 217.781 295.558 222.678 288.871C237.497 268.637 256.277 262.626 265.914 260.079C267.679 259.613 269.409 258.172 271.22 256.095C272.723 254.371 274.233 252.268 275.834 250.04C276.153 249.596 276.476 249.146 276.804 248.693C280.551 243.508 284.851 237.929 290.506 235.615C280.98 224.85 272.222 220.651 265.048 220.302C257.766 219.947 252.014 223.552 248.614 228.49C243.546 235.849 237.659 237.258 230.897 238.877C230.257 239.031 229.609 239.186 228.954 239.348ZM230.648 237.908C237.414 236.284 242.947 234.956 247.79 227.923C251.361 222.737 257.426 218.929 265.097 219.303C272.758 219.676 281.921 224.215 291.733 235.497L292.214 236.051L291.523 236.296C285.87 238.306 281.544 243.842 277.614 249.279C277.292 249.725 276.972 250.17 276.654 250.612C275.055 252.84 273.511 254.989 271.974 256.753C270.138 258.857 268.241 260.499 266.169 261.046C256.62 263.569 238.105 269.5 223.485 289.462C218.475 296.303 212.992 299.418 207.929 299.691C202.861 299.965 198.336 297.384 195.275 293.09C189.153 284.503 188.83 269.05 201.324 255.113C212.012 243.191 221.029 240.278 228.714 238.377C229.37 238.215 230.014 238.06 230.648 237.908Z" fill="black"/>
<path fill-rule="evenodd" clip-rule="evenodd" d="M215 273C217.209 273 219 271.209 219 269C219 266.791 217.209 265 215 265C212.791 265 211 266.791 211 269C211 271.209 212.791 273 215 273ZM215 274C217.761 274 220 271.761 220 269C220 266.239 217.761 264 215 264C212.239 264 210 266.239 210 269C210 271.761 212.239 274 215 274Z" fill="black"/>
<path fill-rule="evenodd" clip-rule="evenodd" d="M235 261C237.209 261 239 259.209 239 257C239 254.791 237.209 253 235 253C232.791 253 231 254.791 231 257C231 259.209 232.791 261 235 261ZM235 262C237.761 262 240 259.761 240 257C240 254.239 237.761 252 235 252C232.239 252 230 254.239 230 257C230 259.761 232.239 262 235 262Z" fill="black"/>
<path fill-rule="evenodd" clip-rule="evenodd" d="M255 248C257.209 248 259 246.209 259 244C259 241.791 257.209 240 255 240C252.791 240 251 241.791 251 244C251 246.209 252.791 248 255 248ZM255 249C257.761 249 260 246.761 260 244C260 241.239 257.761 239 255 239C252.239 239 250 241.239 250 244C250 246.761 252.239 249 255 249Z" fill="black"/>
<path d="M384.937 76.0628C379.57 65.9836 356.13 67.401 351 80H439C425.188 51.6523 390.462 61.8889 384.937 76.0628Z" fill="white"/>
<path fill-rule="evenodd" clip-rule="evenodd" d="M394.027 67.1424C389.838 69.6173 386.73 72.8392 385.403 76.2443L385.008 77.2588L384.496 76.2977C383.23 73.9195 380.878 72.1844 377.923 71.1247C374.97 70.0656 371.452 69.6958 367.926 70.0248C361.118 70.6602 354.462 73.8729 351.768 79.4999H438.191C431.332 66.1006 419.631 61.8229 408.896 62.5845C403.424 62.9727 398.209 64.6719 394.027 67.1424ZM408.826 61.587C420.099 60.7872 432.442 65.3988 439.45 79.7809L439.8 80.4999H350.257L350.537 79.8114C353.202 73.2661 360.57 69.707 367.833 69.0292C371.48 68.6888 375.149 69.0672 378.261 70.1834C381.027 71.1755 383.382 72.7622 384.866 74.9732C386.461 71.6464 389.568 68.6157 393.519 66.2814C397.834 63.732 403.199 61.9862 408.826 61.587Z" fill="black"/>
<path fill-rule="evenodd" clip-rule="evenodd" d="M238.49 336.194C238.129 335.553 237.475 335.042 236.399 334.721C232.049 333.426 227.652 336.069 223.286 341.048C218.947 345.995 214.802 353.069 210.986 360.179C209.621 362.722 208.297 365.273 207.022 367.728C204.747 372.111 202.63 376.189 200.72 379.378C199.232 381.863 197.839 383.863 196.561 385.06C195.923 385.657 195.274 386.094 194.618 386.263C193.931 386.439 193.269 386.312 192.683 385.853C191.572 384.981 191.265 383.671 191.432 382.19C191.597 380.722 192.233 378.998 193.12 377.144C194.392 374.486 196.233 371.454 198.1 368.381C198.836 367.168 199.576 365.949 200.287 364.744C202.827 360.438 204.976 356.332 205.423 353.167C205.645 351.6 205.437 350.341 204.73 349.403C204.022 348.465 202.738 347.749 200.589 347.436C198.462 347.126 196.698 347.445 195.203 348.218C193.703 348.995 192.44 350.246 191.353 351.85C189.168 355.071 187.75 359.621 186.522 364.283C186.239 365.357 185.967 366.437 185.696 367.507C184.804 371.04 183.942 374.455 182.85 377.114C182.138 378.849 181.305 380.321 180.258 381.31C179.189 382.318 177.897 382.82 176.341 382.593C173.512 382.18 171.436 381.338 170.06 380.12C168.668 378.888 168.032 377.306 168.028 375.523C168.023 373.76 168.635 371.814 169.696 369.802C170.76 367.785 172.293 365.672 174.169 363.562C177.046 360.328 178.32 356.071 178.727 352.023C179.135 347.976 178.671 344.19 178.122 341.957L179.093 341.718C179.667 344.053 180.142 347.954 179.722 352.123C179.303 356.29 177.984 360.778 174.916 364.227C173.077 366.294 171.597 368.342 170.581 370.269C169.562 372.2 169.024 373.98 169.028 375.521C169.032 377.042 169.563 378.344 170.723 379.371C171.9 380.413 173.763 381.206 176.485 381.603C177.705 381.781 178.698 381.407 179.571 380.582C180.465 379.738 181.232 378.421 181.925 376.734C182.987 374.148 183.825 370.834 184.713 367.317C184.986 366.235 185.264 365.133 185.555 364.028C186.781 359.374 188.233 354.669 190.525 351.288C191.676 349.591 193.054 348.204 194.744 347.33C196.441 346.452 198.418 346.109 200.733 346.446C203.025 346.78 204.602 347.573 205.528 348.801C206.455 350.03 206.655 351.595 206.413 353.307C205.934 356.702 203.67 360.976 201.148 365.252C200.42 366.487 199.668 367.725 198.926 368.948C197.07 372.003 195.271 374.966 194.022 377.576C193.149 379.402 192.572 381.003 192.425 382.302C192.281 383.589 192.564 384.488 193.3 385.066C193.638 385.331 193.979 385.394 194.369 385.294C194.79 385.186 195.293 384.878 195.877 384.33C197.045 383.236 198.378 381.343 199.862 378.864C201.758 375.699 203.849 371.67 206.112 367.31C207.39 364.849 208.722 362.283 210.105 359.706C213.922 352.594 218.113 345.43 222.534 340.389C226.927 335.379 231.712 332.283 236.684 333.763C237.939 334.136 238.841 334.78 239.361 335.703C239.877 336.616 239.976 337.727 239.786 338.954C239.408 341.388 237.855 344.494 235.623 348.013C232.368 353.145 227.564 359.314 222.497 365.82C220.597 368.259 218.66 370.747 216.754 373.244C209.741 382.434 203.149 391.763 200.198 399.522C198.722 403.403 198.185 406.818 198.896 409.599C199.598 412.342 201.536 414.555 205.226 416.007C208.939 417.468 212.071 417.456 214.769 416.38C217.482 415.299 219.819 413.117 221.881 410.122C226.015 404.118 228.932 395.012 231.536 385.59C232.137 383.416 232.721 381.225 233.3 379.054C235.218 371.862 237.077 364.894 239.284 359.5C240.721 355.988 242.328 353.082 244.241 351.202C246.177 349.299 248.449 348.432 251.128 349.078C252.434 349.393 253.465 349.928 254.227 350.679C254.991 351.432 255.458 352.375 255.681 353.455C256.122 355.59 255.619 358.295 254.584 361.312C252.825 366.442 249.431 372.727 245.967 379.143C245.349 380.289 244.728 381.438 244.114 382.586C240.037 390.208 236.258 397.748 235.199 403.677C234.67 406.637 234.835 409.113 235.901 410.982C236.954 412.832 238.947 414.19 242.311 414.796C245.699 415.405 248.221 415.064 250.117 414.066C252.011 413.069 253.348 411.381 254.296 409.162C256.208 404.689 256.473 398.227 256.605 391.495C256.616 390.94 256.626 390.383 256.636 389.826C256.746 383.684 256.857 377.468 258.198 372.695C258.932 370.083 260.048 367.847 261.781 366.284C263.527 364.71 265.849 363.862 268.9 363.94C271.916 364.017 273.972 364.83 275.184 366.322C276.39 367.807 276.662 369.844 276.391 372.141C276.12 374.444 275.295 377.098 274.196 379.909C273.096 382.725 271.711 385.731 270.305 388.739C270.154 389.061 270.004 389.382 269.853 389.704C267.176 395.422 264.537 401.06 263.63 405.506C263.152 407.854 263.178 409.775 263.855 411.175C264.511 412.534 265.834 413.507 268.217 413.854C270.66 414.211 272.371 413.983 273.571 413.379C274.754 412.783 275.506 411.787 275.969 410.455C276.436 409.108 276.601 407.439 276.606 405.552C276.612 403.829 276.485 401.962 276.355 400.034C276.343 399.852 276.33 399.669 276.318 399.486C276.036 395.282 275.785 390.804 277.001 387.279C277.615 385.498 278.608 383.94 280.171 382.779C281.731 381.619 283.819 380.885 286.573 380.681C287.937 380.58 289.051 380.599 289.944 380.735C290.834 380.871 291.541 381.129 292.052 381.54C293.139 382.412 293.123 383.756 292.688 385.167C292.25 386.59 291.324 388.302 290.254 390.174C290.021 390.582 289.78 390.999 289.534 391.424C288.642 392.968 287.689 394.62 286.807 396.352C284.553 400.783 282.85 405.605 283.907 410.197C284.954 414.75 288.76 419.243 297.926 422.919L297.554 423.847C288.228 420.108 284.082 415.42 282.932 410.421C281.791 405.463 283.645 400.363 285.916 395.899C286.811 394.14 287.782 392.458 288.676 390.911C288.919 390.49 289.157 390.078 289.386 389.678C290.465 387.79 291.332 386.172 291.733 384.872C292.137 383.559 292.006 382.785 291.426 382.319C291.103 382.061 290.588 381.845 289.793 381.724C289.002 381.603 287.969 381.581 286.647 381.678C284.031 381.872 282.139 382.562 280.767 383.581C279.398 384.599 278.508 385.973 277.946 387.605C276.808 390.903 277.031 395.164 277.316 399.419C277.328 399.603 277.341 399.788 277.353 399.972C277.483 401.892 277.612 403.795 277.606 405.555C277.601 407.48 277.435 409.28 276.913 410.783C276.386 412.3 275.488 413.533 274.02 414.272C272.568 415.003 270.626 415.216 268.073 414.844C265.459 414.463 263.794 413.348 262.954 411.61C262.134 409.913 262.157 407.726 262.651 405.306C263.582 400.738 266.269 394.999 268.922 389.334C269.081 388.994 269.24 388.654 269.399 388.316C270.806 385.305 272.178 382.327 273.265 379.546C274.353 376.759 275.142 374.2 275.398 372.024C275.655 369.841 275.366 368.132 274.408 366.953C273.456 365.781 271.745 365.013 268.874 364.939C266.038 364.867 263.977 365.65 262.451 367.027C260.912 368.415 259.868 370.451 259.161 372.966C257.857 377.606 257.747 383.691 257.635 389.875C257.626 390.421 257.616 390.968 257.605 391.515C257.474 398.194 257.219 404.868 255.216 409.555C254.206 411.918 252.736 413.817 250.583 414.95C248.432 416.083 245.667 416.415 242.134 415.78C238.578 415.14 236.275 413.66 235.032 411.477C233.8 409.315 233.667 406.564 234.214 403.502C235.307 397.387 239.173 389.704 243.232 382.115C243.852 380.956 244.476 379.8 245.097 378.651C248.564 372.228 251.908 366.032 253.639 360.987C254.661 358.008 255.086 355.518 254.702 353.657C254.513 352.74 254.128 351.986 253.525 351.391C252.92 350.795 252.066 350.333 250.893 350.05C248.614 349.501 246.683 350.204 244.942 351.915C243.177 353.65 241.631 356.404 240.21 359.878C238.029 365.207 236.194 372.086 234.28 379.263C233.698 381.445 233.108 383.655 232.5 385.857C229.901 395.259 226.948 404.526 222.705 410.689C220.579 413.778 218.101 416.129 215.14 417.309C212.165 418.495 208.767 418.475 204.86 416.938C200.932 415.392 198.723 412.959 197.928 409.847C197.142 406.773 197.758 403.124 199.263 399.167C202.274 391.251 208.957 381.813 215.959 372.638C217.884 370.115 219.833 367.612 221.74 365.163C226.794 358.674 231.552 352.566 234.778 347.478C237.006 343.965 238.454 341.012 238.797 338.8C238.968 337.704 238.857 336.844 238.49 336.194Z" fill="black"/>
<path fill-rule="evenodd" clip-rule="evenodd" d="M89 285H43V284H90V378H149V433.5H272.5V469H271.5V434.5H148V379H89V285Z" fill="black"/>
<path fill-rule="evenodd" clip-rule="evenodd" d="M469 469H43V468H469V469Z" fill="black"/>
</svg>
