<svg width="512" height="512" viewBox="0 0 512 512" fill="none" xmlns="http://www.w3.org/2000/svg">
<path d="M117 148H211V179H117V148Z" fill="black"/>
<path fill-rule="evenodd" clip-rule="evenodd" d="M116.5 147.5H211.5V179.5H116.5V147.5ZM117.5 148.5V178.5H210.5V148.5H117.5Z" fill="black"/>
<path d="M117 80C117 100.435 100.435 117 80 117C59.5655 117 43 100.435 43 80C43 59.5655 59.5655 43 80 43C100.435 43 117 59.5655 117 80Z" fill="#FF7626"/>
<path fill-rule="evenodd" clip-rule="evenodd" d="M80 116C99.8823 116 116 99.8823 116 80C116 60.1177 99.8823 44 80 44C60.1177 44 44 60.1177 44 80C44 99.8823 60.1177 116 80 116ZM80 117C100.435 117 117 100.435 117 80C117 59.5655 100.435 43 80 43C59.5655 43 43 59.5655 43 80C43 100.435 59.5655 117 80 117Z" fill="black"/>
<path d="M122.5 102.5C115.7 89.7001 86 91.5001 79.5 107.5H191C173.5 71.5001 129.5 84.5001 122.5 102.5Z" fill="white"/>
<path fill-rule="evenodd" clip-rule="evenodd" d="M133.95 91.0552C128.627 94.2075 124.662 98.3194 122.966 102.681L122.57 103.698L122.058 102.735C120.434 99.6761 117.421 97.455 113.657 96.1018C109.895 94.7492 105.417 94.2785 100.934 94.6978C92.2078 95.514 83.6425 99.6736 80.2615 107H190.194C181.489 89.774 166.546 84.2746 152.848 85.2487C145.894 85.7432 139.266 87.9073 133.95 91.0552ZM152.777 84.2513C167.015 83.2388 182.598 89.0732 191.45 107.281L191.799 108H78.7571L79.0367 107.312C82.3865 99.0661 91.6616 94.5608 100.841 93.7022C105.445 93.2715 110.074 93.7508 113.996 95.1607C117.564 96.4436 120.578 98.5092 122.429 101.39C124.402 97.1129 128.364 93.2011 133.44 90.1948C138.89 86.9677 145.668 84.7568 152.777 84.2513Z" fill="black"/>
<path d="M413.063 90.0628C418.43 79.9836 441.87 81.401 447 94H359C372.812 65.6523 407.538 75.8889 413.063 90.0628Z" fill="white"/>
<path fill-rule="evenodd" clip-rule="evenodd" d="M403.973 81.1424C408.162 83.6173 411.27 86.8392 412.597 90.2443L412.992 91.2588L413.504 90.2977C414.77 87.9195 417.122 86.1844 420.077 85.1247C423.03 84.0656 426.548 83.6958 430.074 84.0248C436.882 84.6602 443.538 87.8729 446.232 93.4999H359.809C366.668 80.1006 378.369 75.8229 389.104 76.5845C394.576 76.9727 399.791 78.6719 403.973 81.1424ZM389.174 75.587C377.901 74.7872 365.558 79.3988 358.55 93.7809L358.2 94.4999H447.743L447.463 93.8114C444.798 87.2661 437.43 83.707 430.167 83.0292C426.52 82.6888 422.851 83.0672 419.739 84.1834C416.973 85.1755 414.618 86.7622 413.134 88.9732C411.539 85.6464 408.432 82.6157 404.481 80.2814C400.166 77.732 394.801 75.9862 389.174 75.587Z" fill="black"/>
<path d="M89 382V169H248V382H89Z" fill="white"/>
<path fill-rule="evenodd" clip-rule="evenodd" d="M88.5 168.5H248.5V382.5H88.5V168.5ZM89.5 169.5V381.5H247.5V169.5H89.5Z" fill="black"/>
<path d="M123 156H217V187H123V156Z" fill="white"/>
<path fill-rule="evenodd" clip-rule="evenodd" d="M122.5 155.5H217.5V187.5H122.5V155.5ZM123.5 156.5V186.5H216.5V156.5H123.5Z" fill="black"/>
<path fill-rule="evenodd" clip-rule="evenodd" d="M143 212H114V241H143V212ZM113 211V242H144V211H113Z" fill="black"/>
<path fill-rule="evenodd" clip-rule="evenodd" d="M143 272H114V301H143V272ZM113 271V302H144V271H113Z" fill="black"/>
<path fill-rule="evenodd" clip-rule="evenodd" d="M143 330H114V359H143V330ZM113 329V360H144V329H113Z" fill="black"/>
<path fill-rule="evenodd" clip-rule="evenodd" d="M124.5 232.793L137.146 220.146L137.853 220.854L124.5 234.207L118.646 228.353L119.354 227.646L124.5 232.793Z" fill="black"/>
<path fill-rule="evenodd" clip-rule="evenodd" d="M122.146 293.146L135.146 280.146L135.853 280.854L122.854 293.853L122.146 293.146Z" fill="black"/>
<path fill-rule="evenodd" clip-rule="evenodd" d="M135.854 293.146L122.854 280.146L122.147 280.854L135.146 293.853L135.854 293.146Z" fill="black"/>
<path fill-rule="evenodd" clip-rule="evenodd" d="M124.5 350.793L137.146 338.146L137.853 338.854L124.5 352.207L118.646 346.353L119.354 345.646L124.5 350.793Z" fill="black"/>
<path fill-rule="evenodd" clip-rule="evenodd" d="M205 218H159V217H205V218Z" fill="black"/>
<path fill-rule="evenodd" clip-rule="evenodd" d="M224.5 236H159V235H224.5V236Z" fill="black"/>
<path fill-rule="evenodd" clip-rule="evenodd" d="M224 277H159V276H224V277Z" fill="black"/>
<path fill-rule="evenodd" clip-rule="evenodd" d="M200 295H159V294H200V295Z" fill="black"/>
<path fill-rule="evenodd" clip-rule="evenodd" d="M224 335H159V334H224V335Z" fill="black"/>
<path fill-rule="evenodd" clip-rule="evenodd" d="M200 353H159V352H200V353Z" fill="black"/>
<path d="M442 364V341V237.5H418V341H333L332 364H410.5H442Z" fill="white"/>
<path fill-rule="evenodd" clip-rule="evenodd" d="M417.5 237H442.5V364.5H411V468.5H410V364.5H331.478L332.521 340.5H417.5V237ZM418.5 238V341.5H333.479L332.522 363.5H441.5V238H418.5Z" fill="black"/>
<path d="M393.799 195.901C390.043 198.902 384.785 203.104 375.771 201.904C366.933 220.607 360.809 240.477 357.583 260.91L351.735 297.948H402.196V305.547C409.011 305.547 413.959 300.481 415.582 297.948C413.178 239.121 400.058 205.405 393.799 195.901Z" fill="#1064E1"/>
<path fill-rule="evenodd" clip-rule="evenodd" d="M393.915 195.168L393.486 195.51C389.744 198.501 384.631 202.579 375.837 201.408L375.475 201.36L375.319 201.69C366.461 220.437 360.322 240.351 357.089 260.832L351.15 298.448H401.696V306.047H402.196C405.731 306.047 408.769 304.733 411.12 303.109C413.468 301.487 415.156 299.539 416.002 298.218L416.087 298.085L416.081 297.928C413.676 239.056 400.546 205.237 394.216 195.626L393.915 195.168ZM402.696 298.448H414.618C413.741 299.597 412.354 301.041 410.552 302.286C408.434 303.749 405.765 304.921 402.696 305.037V298.448ZM415.06 297.448C412.641 239.909 399.961 206.606 393.678 196.637C389.981 199.58 384.737 203.474 376.069 202.445C367.334 221.01 361.276 240.721 358.076 260.988L352.32 297.448H415.06Z" fill="black"/>
<path d="M402.196 305.547C409.011 305.547 413.959 300.481 415.582 297.948H402.196V305.547Z" fill="black"/>
<path d="M374.615 247.279L390.028 232.677L377.86 208.34L360.013 229.432L374.615 247.279Z" fill="#1064E1"/>
<path fill-rule="evenodd" clip-rule="evenodd" d="M360.663 229.437L378.241 208.663L377.478 208.017L359.362 229.427L374.568 248.012L390.372 233.04L389.684 232.314L374.661 246.546L360.663 229.437Z" fill="black"/>
<path d="M353.117 468.5V444.266H332.766C333.876 454.573 310.564 450.248 300.388 468.5H353.117Z" fill="white"/>
<path fill-rule="evenodd" clip-rule="evenodd" d="M332.209 443.766H353.617V469H299.536L299.951 468.257C305.135 458.958 313.667 455.426 320.64 452.933C321.197 452.734 321.742 452.542 322.273 452.355C325.102 451.359 327.551 450.497 329.346 449.407C330.401 448.766 331.189 448.069 331.683 447.258C332.172 446.457 332.396 445.509 332.268 444.32L332.209 443.766ZM333.301 444.766C333.335 445.915 333.068 446.909 332.537 447.778C331.93 448.775 330.998 449.573 329.865 450.262C327.973 451.411 325.402 452.315 322.579 453.308C322.053 453.493 321.518 453.681 320.977 453.875C314.224 456.289 306.278 459.597 301.254 468H352.617V444.766H333.301Z" fill="black"/>
<path d="M281.73 468.5V444.266H261.378C262.488 454.573 239.176 450.248 229 468.5H281.73Z" fill="white"/>
<path fill-rule="evenodd" clip-rule="evenodd" d="M260.821 443.766H282.229V469H228.149L228.563 468.257C233.747 458.958 242.279 455.426 249.253 452.933C249.809 452.734 250.354 452.542 250.885 452.355C253.714 451.359 256.164 450.497 257.958 449.407C259.014 448.766 259.801 448.069 260.296 447.258C260.784 446.457 261.009 445.509 260.881 444.32L260.821 443.766ZM261.913 444.766C261.947 445.915 261.68 446.909 261.149 447.778C260.542 448.775 259.611 449.573 258.478 450.262C256.585 451.411 254.014 452.315 251.191 453.308C250.665 453.493 250.13 453.681 249.589 453.875C242.836 456.289 234.89 459.597 229.866 468H281.229V444.766H261.913Z" fill="black"/>
<path d="M360.013 229.432L374.615 247.279L355.55 263.817C347.298 270.976 334.935 270.611 327.119 262.979L300 236.5C295 231 286.724 228.878 284.089 223.5C282.118 219.475 281.534 213.848 283.328 209.863L267.5 195.5L286 200.5L302.5 195.5L327 219.674L310.5 224.674L307 223.652L343.5 246.279L360.013 229.432Z" fill="white"/>
<path fill-rule="evenodd" clip-rule="evenodd" d="M302.64 194.936L327.95 219.909L310.503 225.196L310.384 225.161L343.423 245.643L360.046 228.683L375.309 247.338L355.878 264.194C347.429 271.523 334.772 271.151 326.769 263.337L299.64 236.848L299.63 236.837C297.456 234.446 294.648 232.706 291.905 231.008C291.566 230.798 291.228 230.588 290.892 230.378C287.885 228.498 285.03 226.556 283.64 223.72C281.676 219.709 281.036 214.119 282.728 209.993L267.164 195.871L267.631 195.018L285.992 199.98L302.64 194.936ZM285.742 200.949L269.373 196.524L283.884 209.692L283.947 209.724C283.944 209.73 283.941 209.736 283.938 209.742L294.75 219.553L308.739 223.639L285.742 200.949ZM306.794 224.113L294.249 220.448L283.521 210.713C282.131 214.481 282.72 219.568 284.539 223.28C285.784 225.822 288.383 227.63 291.423 229.53C291.755 229.738 292.092 229.947 292.432 230.157C295.156 231.843 298.087 233.657 300.36 236.153L327.468 262.621C335.098 270.072 347.167 270.427 355.223 263.439L373.92 247.219L359.979 230.18L343.577 246.915L306.794 224.113ZM310.64 224.109L326.05 219.44L302.36 196.065L286.95 200.735L310.64 224.109Z" fill="black"/>
<path d="M375.772 201.903C384.785 203.104 390.043 198.902 393.799 195.901C392.297 193.62 388.142 187.005 388.142 181.505C388.91 171.423 385.77 164.475 381.436 160.717C375.703 155.747 367.88 156.355 364.24 162.67C358.572 172.503 364.863 199.555 377.671 190.594C377.846 194.886 376.58 199.683 375.772 201.903Z" fill="white"/>
<path fill-rule="evenodd" clip-rule="evenodd" d="M372.104 157.959C369.138 158.263 366.414 159.901 364.673 162.92C363.318 165.272 362.654 168.707 362.647 172.442C362.639 176.168 363.286 180.133 364.498 183.511C365.715 186.903 367.474 189.627 369.636 190.969C370.706 191.634 371.877 191.962 373.149 191.871C374.425 191.78 375.839 191.265 377.384 190.184L378.134 189.66L378.171 190.574C378.334 194.603 377.26 199.041 376.448 201.481C384.6 202.36 389.51 198.68 393.132 195.794C392.337 194.568 391.07 192.511 389.954 190.121C388.717 187.473 387.642 184.365 387.642 181.505V181.486L387.643 181.467C388.402 171.504 385.297 164.726 381.108 161.095C378.334 158.689 375.079 157.655 372.104 157.959ZM372.002 156.964C375.282 156.629 378.805 157.774 381.763 160.339C386.241 164.221 389.414 171.332 388.642 181.523C388.647 184.159 389.647 187.1 390.86 189.698C392.072 192.292 393.471 194.493 394.217 195.626L394.467 196.007L394.101 196.3C390.333 199.311 384.931 203.628 375.706 202.399L375.089 202.317L375.302 201.733C376.042 199.698 377.17 195.468 377.187 191.506C375.809 192.338 374.483 192.779 373.22 192.869C371.718 192.976 370.34 192.583 369.108 191.819C366.666 190.302 364.805 187.328 363.556 183.848C362.303 180.354 361.639 176.273 361.647 172.44C361.654 168.618 362.329 164.985 363.807 162.42C365.707 159.125 368.714 157.301 372.002 156.964Z" fill="black"/>
<path d="M381.599 180.474C384.05 182.375 384.934 181.894 388.142 181.505C388.91 171.423 385.77 164.475 381.435 160.717C368.736 149.868 344.353 161.564 357.062 169.732C358.125 170.416 359.46 170.49 360.687 170.186C369.696 167.951 373.771 170.492 377.317 178.41C377.363 178.537 377.415 178.655 377.472 178.761C377.42 178.642 377.369 178.525 377.317 178.41C376.795 176.967 376.99 174.271 377.793 173.464C382.214 169.014 384.473 177.267 381.599 180.474Z" fill="black"/>
<path fill-rule="evenodd" clip-rule="evenodd" d="M353.49 166.773C354.067 167.962 355.154 169.1 356.792 170.153C358.004 170.932 359.49 170.998 360.807 170.671C365.263 169.566 368.39 169.671 370.819 170.934C373.252 172.199 375.097 174.68 376.853 178.598C376.905 178.738 376.964 178.873 377.032 178.999L377.93 178.56C377.88 178.446 377.831 178.334 377.781 178.223C377.557 177.592 377.476 176.646 377.556 175.742C377.595 175.291 377.673 174.871 377.783 174.525C377.896 174.169 378.028 173.936 378.147 173.816C379.195 172.761 379.993 172.579 380.535 172.715C381.099 172.857 381.615 173.396 381.967 174.282C382.313 175.153 382.457 176.263 382.341 177.347C382.226 178.432 381.855 179.439 381.227 180.141L380.868 180.54L381.293 180.869C382.561 181.853 383.487 182.268 384.55 182.347C385.064 182.385 385.59 182.343 386.172 182.272C386.433 182.239 386.712 182.201 387.009 182.159L387.109 182.145C387.444 182.099 387.805 182.049 388.202 182.001L388.609 181.952L388.64 181.543C389.417 171.341 386.243 164.224 381.763 160.339L381.76 160.337L381.76 160.337C375.224 154.753 365.737 154.994 359.525 157.633C356.429 158.948 354.014 160.915 353.249 163.193C352.86 164.352 352.907 165.572 353.49 166.773ZM376.553 175.738C375.077 173.064 373.414 171.156 371.281 170.047C368.534 168.619 365.119 168.571 360.566 169.701C359.43 169.982 358.247 169.899 357.332 169.312C355.793 168.322 354.862 167.308 354.389 166.336C353.923 165.376 353.889 164.428 354.197 163.511C354.826 161.638 356.917 159.827 359.916 158.553C365.893 156.015 374.946 155.832 381.109 161.096C385.24 164.678 388.317 171.321 387.672 181.06C387.424 181.092 387.191 181.125 386.971 181.155L386.873 181.169C386.574 181.21 386.303 181.248 386.05 181.279C385.487 181.348 385.038 181.38 384.623 181.35C383.924 181.298 383.265 181.063 382.31 180.381C382.901 179.537 383.225 178.494 383.336 177.453C383.467 176.226 383.308 174.95 382.896 173.913C382.49 172.891 381.792 172 380.779 171.745C379.743 171.485 378.6 171.941 377.438 173.111C377.156 173.394 376.963 173.802 376.829 174.223C376.693 174.654 376.604 175.15 376.56 175.654C376.557 175.682 376.555 175.71 376.553 175.738Z" fill="black"/>
<path d="M402.061 304V297.948H324.182C305.06 297.948 290.819 315.598 294.86 334.289L295 334.935L244.819 444.266H292.681L308.905 399.243L318.64 444.266H367.719L343.382 341H365.061C385.496 341 402.061 324.435 402.061 304Z" fill="white"/>
<path fill-rule="evenodd" clip-rule="evenodd" d="M402.561 297.448H324.182C304.742 297.448 290.263 315.392 294.371 334.394L294.476 334.878L244.039 444.766H293.032L308.785 401.052L318.237 444.766H368.351L344.014 341.5H365.061C385.772 341.5 402.561 324.711 402.561 304V297.448ZM308.386 399.208L292.33 443.766H245.598L294.828 336.507L308.386 399.208ZM401.561 298.448V304C401.561 324.159 385.219 340.5 365.061 340.5H342.751L367.088 443.766H319.044L295.349 334.183C291.375 315.804 305.379 298.448 324.182 298.448H401.561Z" fill="black"/>
<path fill-rule="evenodd" clip-rule="evenodd" d="M469 469H43V468H469V469Z" fill="black"/>
<path d="M311.5 204C320.7 201.6 327 211.5 332.5 215.5L359.425 230.031L346.35 243.371L316 214C317.6 212.4 322.333 215.333 324.5 217L311.5 204Z" fill="white"/>
<path fill-rule="evenodd" clip-rule="evenodd" d="M332.767 215.076L360.247 229.907L346.359 244.076L315.287 214.006L315.646 213.647C316.2 213.093 316.981 212.979 317.752 213.062C318.529 213.146 319.394 213.438 320.242 213.819C320.478 213.924 320.714 214.038 320.95 214.157L310.529 203.737L311.374 203.516C316.198 202.258 320.236 204.244 323.696 206.957C325.398 208.291 326.983 209.818 328.466 211.248L328.539 211.318C330.043 212.768 331.434 214.102 332.767 215.076ZM312.499 204.293L324.853 216.647L324.195 217.396C323.131 216.578 321.44 215.452 319.833 214.731C319.027 214.37 318.272 214.125 317.645 214.057C317.31 214.02 317.037 214.037 316.818 214.096L346.341 242.666L358.603 230.156L332.233 215.924L332.206 215.904C330.797 214.88 329.346 213.485 327.845 212.038L327.788 211.983C326.294 210.543 324.74 209.046 323.079 207.744C319.94 205.283 316.499 203.583 312.499 204.293Z" fill="black"/>
<path d="M132.277 410.47L127.468 427.405L144.404 422.596L177.019 389.981L181.619 385.381L184.755 382.245C188.104 378.896 188.104 373.467 184.755 370.118C181.407 366.77 175.977 366.77 172.629 370.118L169.493 373.255L164.893 377.854L132.277 410.47Z" fill="white"/>
<path fill-rule="evenodd" clip-rule="evenodd" d="M185.109 382.598C188.653 379.055 188.653 373.309 185.109 369.765C181.565 366.221 175.819 366.221 172.275 369.765L131.832 410.208L126.742 428.131L144.665 423.042L185.109 382.598ZM184.402 370.472C187.555 373.625 187.555 378.738 184.402 381.891L181.619 384.674L170.2 373.255L172.982 370.472C176.136 367.319 181.248 367.319 184.402 370.472ZM169.493 373.962L180.912 385.381L177.019 389.274L165.6 377.854L169.493 373.962ZM164.893 378.561L176.312 389.981L144.587 421.706C143.914 420.137 142.702 418.001 140.937 415.936C139.026 413.702 136.451 411.531 133.188 410.267L164.893 378.561ZM132.613 411.118C135.782 412.294 138.3 414.391 140.176 416.586C141.941 418.65 143.123 420.782 143.738 422.266L128.194 426.679L132.613 411.118Z" fill="black"/>
<path fill-rule="evenodd" clip-rule="evenodd" d="M43 338.5H68.5V427H128V446H206V468.5H205V447H127V428H67.5V339.5H43V338.5Z" fill="black"/>
</svg>
