<svg width="512" height="512" viewBox="0 0 512 512" fill="none" xmlns="http://www.w3.org/2000/svg">
<path d="M263.833 295.35C241.733 328.739 202.057 341.403 175.213 323.635C148.369 305.868 144.523 264.397 166.623 231.008C188.723 197.618 228.4 184.954 255.244 202.722C282.087 220.489 285.933 261.96 263.833 295.35Z" fill="black"/>
<path fill-rule="evenodd" clip-rule="evenodd" d="M175.765 322.801C201.987 340.158 241.086 327.906 262.999 294.798C284.913 261.69 280.914 220.912 254.692 203.556C228.469 186.199 189.37 198.452 167.457 231.559C145.543 264.667 149.542 305.445 175.765 322.801ZM175.213 323.635C202.057 341.403 241.733 328.739 263.833 295.35C285.933 261.96 282.087 220.489 255.244 202.722C228.4 184.954 188.723 197.618 166.623 231.008C144.523 264.397 148.369 305.868 175.213 323.635Z" fill="black"/>
<path d="M249.479 286.448C233.932 309.936 206.022 318.844 187.139 306.345C168.255 293.847 165.55 264.674 181.096 241.187C196.642 217.699 224.553 208.791 243.436 221.289C262.319 233.788 265.025 262.96 249.479 286.448Z" fill="black"/>
<path fill-rule="evenodd" clip-rule="evenodd" d="M187.691 305.512C205.953 317.599 233.285 309.102 248.645 285.896C264.005 262.69 261.146 234.21 242.884 222.123C224.622 210.036 197.29 218.532 181.93 241.739C166.57 264.945 169.428 293.424 187.691 305.512ZM187.139 306.345C206.022 318.844 233.932 309.936 249.479 286.448C265.025 262.96 262.319 233.788 243.436 221.289C224.553 208.791 196.642 217.699 181.096 241.187C165.55 264.674 168.255 293.847 187.139 306.345Z" fill="black"/>
<path d="M233.783 276.659C225.4 289.324 210.351 294.127 200.168 287.388C189.986 280.649 188.528 264.918 196.91 252.253C205.293 239.588 220.343 234.785 230.525 241.524C240.707 248.264 242.166 263.994 233.783 276.659Z" fill="black"/>
<path fill-rule="evenodd" clip-rule="evenodd" d="M200.72 286.554C210.281 292.882 224.753 288.491 232.949 276.107C241.146 263.724 239.534 248.686 229.973 242.358C220.412 236.03 205.941 240.422 197.744 252.805C189.548 265.189 191.159 280.226 200.72 286.554ZM200.168 287.388C210.351 294.127 225.4 289.324 233.783 276.659C242.166 263.994 240.707 248.264 230.525 241.524C220.343 234.785 205.293 239.588 196.91 252.253C188.528 264.918 189.986 280.649 200.168 287.388Z" fill="black"/>
<path d="M345.201 173.178L371.336 168.681L369.105 193.017L348.447 195.931L345.201 173.178Z" fill="#1064E1"/>
<path fill-rule="evenodd" clip-rule="evenodd" d="M371.893 168.077L369.567 193.457L348.022 196.496L344.637 172.767L371.893 168.077ZM345.764 173.588L348.871 195.366L368.643 192.577L370.778 169.284L345.764 173.588Z" fill="black"/>
<path d="M345.201 173.178L348.447 195.931L330.927 198.128C322.538 199.18 314.779 193.524 313.213 185.217L304.5 139C303 132 299.058 123.2 305.458 118L300 81.5L304.5 81.5C331.5 64.5 345.3 101.6 366.5 84C352.5 116 316.2 91.25 309 108.25L311.883 125.39C317.637 126.481 318.148 137.979 318 140.5L331.5 175.5L345.201 173.178Z" fill="white"/>
<path fill-rule="evenodd" clip-rule="evenodd" d="M305.049 81.7472L309.241 106.665C311.299 103.207 314.796 101.809 318.992 101.293C321.347 101.003 323.948 100.986 326.677 101.044C327.701 101.066 328.741 101.098 329.794 101.13C331.562 101.185 333.367 101.24 335.203 101.25C341.048 101.281 347.034 100.842 352.418 98.4418C357.346 96.245 361.803 92.3886 365.174 85.6551C360.397 89.0632 355.938 89.8208 351.588 89.1378C346.999 88.4171 342.555 86.0924 338.051 83.7356C337.848 83.6298 337.646 83.524 337.444 83.4182C332.698 80.9392 327.85 78.4866 322.523 77.6883C317.298 76.9054 311.583 77.7113 305.049 81.7472ZM309.518 108.313L312.321 124.977C313.761 125.356 314.865 126.333 315.702 127.578C316.602 128.916 317.219 130.596 317.64 132.288C318.46 135.58 318.57 139.036 318.505 140.42L331.82 174.939L345.623 172.599L349.014 196.364L330.989 198.624C322.339 199.709 314.337 193.877 312.722 185.309L304.01 139.098C303.753 137.899 303.425 136.653 303.087 135.369C302.936 134.793 302.782 134.21 302.632 133.62C302.151 131.724 301.709 129.776 301.519 127.875C301.146 124.148 301.732 120.525 304.922 117.796L299.42 81.0001L304.356 81.0001C311.154 76.7546 317.16 75.8735 322.671 76.6993C328.188 77.526 333.177 80.0609 337.907 82.5319C338.089 82.6272 338.271 82.7225 338.453 82.8175C343.012 85.2018 347.321 87.4555 351.743 88.1499C356.291 88.864 360.986 87.9283 366.181 83.6154L366.958 84.2005C363.412 92.3068 358.431 96.8558 352.826 99.3552C347.241 101.845 341.077 102.281 335.197 102.25C333.353 102.24 331.52 102.184 329.741 102.129C328.691 102.097 327.66 102.065 326.656 102.044C323.935 101.986 321.394 102.005 319.114 102.285C314.615 102.839 311.236 104.396 309.518 108.313ZM305.1 118.987C302.666 121.365 302.179 124.425 302.514 127.775C302.697 129.599 303.122 131.488 303.602 133.374C303.747 133.945 303.897 134.518 304.047 135.088C304.389 136.386 304.727 137.671 304.989 138.895L304.992 138.907L313.704 185.124C315.222 193.172 322.738 198.651 330.865 197.632L347.88 195.498L344.778 173.757L331.181 176.061L317.495 140.579L317.501 140.471C317.573 139.252 317.484 135.799 316.67 132.529C316.263 130.895 315.682 129.339 314.872 128.136C314.066 126.937 313.057 126.122 311.79 125.882C311.328 125.794 310.82 125.78 310.26 125.859L313.48 131.864L314.062 135.328L313.313 135.6C311.657 136.202 309.843 136.202 308.187 135.6L307.55 135.368L305.1 118.987ZM311.28 124.815L304.077 82.0001L300.58 82.0001L308.451 134.632L308.529 134.66C309.953 135.178 311.512 135.182 312.938 134.672L312.521 132.192L308.756 125.171L309.379 125.015C310.051 124.847 310.684 124.783 311.28 124.815Z" fill="black"/>
<path d="M388.549 152.976C386.85 158.206 387.075 160.267 387.799 162.901C384.043 165.902 378.785 170.104 369.772 168.903C371.5 166.5 374.622 162.521 375.782 158.384C360.832 162.948 363.209 135.277 371.638 127.677C377.051 122.796 384.679 124.635 388.595 131.133C391.556 136.046 392.395 143.624 388.549 152.976Z" fill="white"/>
<path fill-rule="evenodd" clip-rule="evenodd" d="M380.572 125.627C377.657 124.999 374.561 125.715 371.973 128.048C369.956 129.866 368.263 132.928 367.102 136.478C365.944 140.019 365.334 143.99 365.442 147.577C365.551 151.18 366.383 154.313 368.024 156.258C368.837 157.221 369.849 157.895 371.086 158.202C372.328 158.51 373.832 158.457 375.636 157.906L376.511 157.639L376.264 158.519C375.198 162.316 372.53 165.971 370.76 168.394C370.733 168.432 370.706 168.468 370.679 168.505C378.767 169.298 383.634 165.585 387.231 162.714C386.91 161.494 386.702 160.337 386.766 158.89C386.834 157.328 387.217 155.457 388.074 152.821L388.08 152.803L388.087 152.785C391.887 143.545 391.028 136.139 388.167 131.391C386.272 128.246 383.496 126.256 380.572 125.627ZM380.783 124.649C384.006 125.343 387.002 127.521 389.023 130.875C392.082 135.951 392.902 143.694 389.019 153.148C388.18 155.733 387.828 157.503 387.765 158.934C387.702 160.359 387.926 161.475 388.281 162.768L388.368 163.086L388.101 163.299C384.333 166.311 378.931 170.628 369.706 169.399L368.879 169.289L369.366 168.611C369.549 168.357 369.746 168.086 369.954 167.801C371.595 165.551 373.889 162.405 375.033 159.104C373.467 159.467 372.073 159.477 370.846 159.172C369.384 158.81 368.195 158.011 367.26 156.903C365.406 154.706 364.555 151.302 364.443 147.607C364.331 143.896 364.961 139.81 366.152 136.167C367.34 132.535 369.104 129.288 371.303 127.305C374.128 124.758 377.552 123.953 380.783 124.649Z" fill="black"/>
<path d="M387.799 162.901C384.043 165.902 378.785 170.104 369.772 168.903C356.258 187.437 347.346 208.918 343.769 231.574L338.5 264.948H396.196V272.547C403.011 272.547 407.959 267.481 409.582 264.948C407.178 206.121 394.058 172.405 387.799 162.901Z" fill="#1064E1"/>
<path fill-rule="evenodd" clip-rule="evenodd" d="M387.915 162.168L387.487 162.51C383.744 165.501 378.631 169.579 369.838 168.408L369.543 168.368L369.368 168.609C355.808 187.206 346.864 208.762 343.275 231.496L337.915 265.448H395.697V273.046H396.197C399.731 273.046 402.769 271.733 405.12 270.108C407.468 268.487 409.157 266.539 410.003 265.218L410.088 265.085L410.081 264.928C407.676 206.055 394.546 172.237 388.216 162.626L387.915 162.168ZM396.697 265.448H408.618C407.742 266.596 406.354 268.041 404.552 269.286C402.434 270.749 399.766 271.921 396.697 272.037V265.448ZM409.061 264.448C406.642 206.909 393.961 173.606 387.678 163.637C383.972 166.587 378.71 170.494 370.002 169.437C356.633 187.852 347.812 209.172 344.263 231.652L339.085 264.448H409.061Z" fill="black"/>
<path d="M396.196 272.547C403.011 272.547 407.959 267.481 409.582 264.948H396.196V272.547Z" fill="black"/>
<path fill-rule="evenodd" clip-rule="evenodd" d="M410.496 264.448H395.697V273.047H396.197C399.731 273.047 402.769 271.733 405.12 270.109C407.468 268.487 409.157 266.539 410.003 265.218L410.496 264.448ZM408.618 265.448C407.742 266.596 406.354 268.041 404.552 269.286C402.434 270.749 399.766 271.921 396.697 272.037V265.448H408.618Z" fill="black"/>
<path d="M329.378 444.266C330.488 454.573 307.176 460.248 307 468.5H352.73C352.554 460.248 349.242 454.573 350.352 444.266H329.378Z" fill="white"/>
<path fill-rule="evenodd" clip-rule="evenodd" d="M328.821 443.766H350.909L350.849 444.319C350.301 449.404 350.843 453.345 351.55 457.06C351.682 457.755 351.821 458.445 351.959 459.134C352.559 462.118 353.157 465.093 353.23 468.489L353.24 469H306.489L306.5 468.489C306.549 466.192 308.198 464.164 310.404 462.3C312.291 460.705 314.688 459.147 317.105 457.577C317.536 457.297 317.968 457.016 318.397 456.735C321.257 454.863 324.026 452.958 326.014 450.894C328.001 448.831 329.135 446.683 328.881 444.319L328.821 443.766ZM329.913 444.766C329.99 447.325 328.674 449.573 326.735 451.587C324.658 453.744 321.797 455.705 318.945 457.572C318.508 457.858 318.072 458.141 317.638 458.423C315.218 459.996 312.884 461.513 311.05 463.063C309.073 464.734 307.795 466.35 307.544 468H352.215C352.099 464.913 351.551 462.184 350.984 459.362C350.845 458.665 350.703 457.962 350.567 457.247C349.877 453.619 349.332 449.723 349.799 444.766H329.913Z" fill="black"/>
<path d="M403.378 444.266C404.488 454.573 381.176 460.248 381 468.5H426.73C426.554 460.248 423.242 454.573 424.352 444.266H403.378Z" fill="white"/>
<path fill-rule="evenodd" clip-rule="evenodd" d="M402.821 443.766H424.909L424.849 444.319C424.301 449.404 424.843 453.345 425.55 457.06C425.682 457.755 425.821 458.445 425.959 459.134C426.559 462.118 427.157 465.093 427.23 468.489L427.24 469H380.489L380.5 468.489C380.549 466.192 382.198 464.164 384.404 462.3C386.291 460.705 388.688 459.147 391.105 457.577C391.536 457.297 391.968 457.016 392.397 456.735C395.257 454.863 398.026 452.958 400.014 450.894C402.001 448.831 403.135 446.683 402.881 444.319L402.821 443.766ZM403.913 444.766C403.99 447.325 402.674 449.573 400.735 451.587C398.658 453.744 395.797 455.705 392.945 457.572C392.508 457.858 392.072 458.141 391.638 458.423C389.218 459.996 386.884 461.513 385.05 463.063C383.073 464.734 381.795 466.35 381.544 468H426.215C426.099 464.913 425.551 462.184 424.984 459.362C424.845 458.665 424.703 457.962 424.567 457.247C423.877 453.619 423.332 449.723 423.799 444.766H403.913Z" fill="black"/>
<path d="M398 265H350.5H338.5L314.819 444.266H362.681L371.776 365L388.64 444.266H437.719L398 265Z" fill="white"/>
<path fill-rule="evenodd" clip-rule="evenodd" d="M398.401 264.5H338.062L314.248 444.766H363.127L371.924 368.098L388.235 444.766H438.342L398.401 264.5ZM371.27 365.024L362.235 443.766H315.389L338.938 265.5H350.095L371.27 365.024ZM351.118 265.5H397.599L437.096 443.766H389.045L351.118 265.5Z" fill="black"/>
<path fill-rule="evenodd" clip-rule="evenodd" d="M372.799 182.473L373.631 183.028L359.173 204.677L377.109 217.415L388.925 200.831L389.74 201.411L377.344 218.808L357.802 204.93L372.799 182.473Z" fill="black"/>
<path d="M377.226 218.112L358.487 204.804L344.5 224L304.5 206.5C300.993 204.724 300 200.5 294.5 198.689C287.5 197.5 281.546 200.689 279.5 201.5L337.396 246.162C344.043 251.29 353.605 249.964 358.606 243.22L377.226 218.112Z" fill="white"/>
<path fill-rule="evenodd" clip-rule="evenodd" d="M280.483 201.627L337.701 245.766C344.127 250.724 353.37 249.442 358.205 242.923L376.52 218.224L358.6 205.497L344.668 224.619L304.287 206.953L304.274 206.946C302.731 206.165 301.637 204.926 300.549 203.696C300.327 203.444 300.104 203.192 299.878 202.945C298.537 201.476 296.991 200.044 294.379 199.176C288.41 198.175 283.234 200.429 280.629 201.563C280.58 201.585 280.531 201.606 280.483 201.627ZM280.206 200.656C282.786 199.526 288.275 197.125 294.584 198.196L294.621 198.202L294.656 198.214C297.523 199.158 299.216 200.737 300.616 202.27C300.867 202.545 301.106 202.814 301.338 203.076C302.419 204.296 303.363 205.36 304.714 206.048L344.332 223.381L358.374 204.11L377.932 218L359.008 243.518C353.84 250.487 343.959 251.857 337.09 246.558L278.499 201.359L279.316 201.035C279.555 200.941 279.853 200.81 280.206 200.656Z" fill="black"/>
<path d="M384.163 146.351C386.124 148.754 387.094 148.485 390.306 148.827C393.323 139.176 391.826 131.7 388.448 127.063C378.515 113.636 352.126 119.547 362.672 130.365C363.554 131.27 364.838 131.643 366.101 131.622C375.382 131.472 378.781 134.864 380.455 143.376C380.471 143.511 380.495 143.637 380.527 143.753C380.504 143.626 380.48 143.501 380.455 143.376C380.271 141.853 381.068 139.27 382.031 138.664C387.341 135.323 387.685 143.873 384.163 146.351Z" fill="black"/>
<path fill-rule="evenodd" clip-rule="evenodd" d="M359.857 126.678C360.152 127.966 360.955 129.32 362.314 130.714C363.319 131.746 364.753 132.144 366.109 132.122C370.7 132.048 373.723 132.853 375.806 134.631C377.892 136.41 379.131 139.243 379.961 143.455C379.98 143.604 380.007 143.749 380.046 143.887L381.019 143.661C380.996 143.539 380.973 143.418 380.949 143.299C380.873 142.634 381.008 141.694 381.288 140.831C381.428 140.401 381.599 140.009 381.783 139.696C381.973 139.374 382.154 139.177 382.298 139.087C383.556 138.295 384.374 138.298 384.872 138.552C385.389 138.817 385.771 139.458 385.915 140.401C386.056 141.327 385.946 142.442 385.59 143.471C385.233 144.503 384.646 145.401 383.876 145.943L383.437 146.252L383.776 146.668C384.79 147.911 385.599 148.524 386.617 148.84C387.109 148.992 387.632 149.07 388.214 149.131C388.477 149.159 388.757 149.184 389.055 149.21L389.156 149.219C389.493 149.249 389.856 149.282 390.253 149.325L390.661 149.368L390.784 148.976C393.836 139.211 392.344 131.562 388.852 126.769L388.85 126.766L388.85 126.766C383.738 119.856 374.439 117.956 367.793 119.13C364.481 119.715 361.685 121.088 360.427 123.136C359.787 124.178 359.558 125.377 359.857 126.678ZM380.312 140.601C379.476 137.664 378.284 135.431 376.455 133.87C374.1 131.861 370.783 131.046 366.093 131.123C364.922 131.142 363.788 130.794 363.03 130.016C361.752 128.706 361.073 127.508 360.831 126.455C360.593 125.415 360.773 124.483 361.279 123.659C362.314 121.976 364.759 120.682 367.967 120.115C374.362 118.986 383.224 120.844 388.045 127.36C391.264 131.779 392.768 138.944 389.949 148.288C389.7 148.264 389.465 148.243 389.245 148.223L389.145 148.214C388.845 148.188 388.573 148.164 388.319 148.137C387.755 148.077 387.31 148.008 386.913 147.885C386.244 147.677 385.655 147.3 384.877 146.42C385.643 145.731 386.193 144.788 386.535 143.798C386.939 142.632 387.072 141.353 386.903 140.25C386.738 139.163 386.258 138.138 385.327 137.662C384.377 137.176 383.161 137.362 381.765 138.241C381.427 138.454 381.147 138.807 380.922 139.188C380.692 139.577 380.494 140.04 380.337 140.521C380.329 140.548 380.32 140.575 380.312 140.601Z" fill="black"/>
<path d="M117 80C117 100.435 100.435 117 80 117C59.5655 117 43 100.435 43 80C43 59.5655 59.5655 43 80 43C100.435 43 117 59.5655 117 80Z" fill="#FF7626"/>
<path fill-rule="evenodd" clip-rule="evenodd" d="M80 116C99.8823 116 116 99.8823 116 80C116 60.1177 99.8823 44 80 44C60.1177 44 44 60.1177 44 80C44 99.8823 60.1177 116 80 116ZM80 117C100.435 117 117 100.435 117 80C117 59.5655 100.435 43 80 43C59.5655 43 43 59.5655 43 80C43 100.435 59.5655 117 80 117Z" fill="black"/>
<path d="M122.5 102.5C115.7 89.7001 86 91.5001 79.5 107.5H191C173.5 71.5001 129.5 84.5001 122.5 102.5Z" fill="white"/>
<path fill-rule="evenodd" clip-rule="evenodd" d="M133.95 91.0552C128.627 94.2075 124.662 98.3194 122.966 102.681L122.57 103.698L122.058 102.735C120.434 99.6761 117.422 97.455 113.657 96.1018C109.895 94.7492 105.417 94.2785 100.934 94.6978C92.208 95.514 83.6426 99.6736 80.2616 107H190.194C181.49 89.774 166.547 84.2746 152.848 85.2487C145.894 85.7432 139.266 87.9073 133.95 91.0552ZM152.777 84.2513C167.015 83.2388 182.599 89.0732 191.45 107.281L191.799 108H78.7572L79.0368 107.312C82.3866 99.0661 91.6617 94.5608 100.841 93.7022C105.445 93.2715 110.074 93.7508 113.996 95.1607C117.564 96.4436 120.578 98.5092 122.429 101.39C124.402 97.1129 128.364 93.2011 133.441 90.1948C138.89 86.9677 145.668 84.7568 152.777 84.2513Z" fill="black"/>
<path d="M254.833 288.35C232.733 321.739 193.057 334.403 166.213 316.635C139.369 298.868 135.523 257.397 157.623 224.008C179.723 190.618 219.4 177.954 246.244 195.722C273.087 213.489 276.933 254.96 254.833 288.35Z" fill="white"/>
<path fill-rule="evenodd" clip-rule="evenodd" d="M166.765 315.801C192.987 333.158 232.086 320.906 253.999 287.798C275.913 254.69 271.914 213.912 245.692 196.556C219.469 179.199 180.37 191.452 158.457 224.559C136.543 257.667 140.542 298.445 166.765 315.801ZM166.213 316.635C193.057 334.403 232.733 321.739 254.833 288.35C276.933 254.96 273.087 213.489 246.244 195.722C219.4 177.954 179.723 190.618 157.623 224.008C135.523 257.397 139.369 298.868 166.213 316.635Z" fill="black"/>
<path d="M240.479 279.448C224.932 302.936 197.022 311.844 178.139 299.345C159.255 286.847 156.55 257.674 172.096 234.187C187.642 210.699 215.553 201.791 234.436 214.289C253.319 226.788 256.025 255.96 240.479 279.448Z" fill="white"/>
<path fill-rule="evenodd" clip-rule="evenodd" d="M178.691 298.512C196.953 310.599 224.285 302.102 239.645 278.896C255.005 255.69 252.146 227.21 233.884 215.123C215.622 203.036 188.29 211.532 172.93 234.739C157.57 257.945 160.428 286.424 178.691 298.512ZM178.139 299.345C197.022 311.844 224.932 302.936 240.479 279.448C256.025 255.96 253.319 226.788 234.436 214.289C215.553 201.791 187.642 210.699 172.096 234.187C156.55 257.674 159.255 286.847 178.139 299.345Z" fill="black"/>
<path d="M224.783 269.659C216.4 282.324 201.351 287.127 191.168 280.388C180.986 273.649 179.528 257.918 187.91 245.253C196.293 232.588 211.343 227.785 221.525 234.524C231.707 241.264 233.166 256.994 224.783 269.659Z" fill="white"/>
<path fill-rule="evenodd" clip-rule="evenodd" d="M191.72 279.554C201.281 285.882 215.753 281.491 223.949 269.107C232.146 256.724 230.534 241.686 220.973 235.358C211.412 229.03 196.941 233.422 188.744 245.805C180.548 258.189 182.159 273.226 191.72 279.554ZM191.168 280.388C201.351 287.127 216.4 282.324 224.783 269.659C233.166 256.994 231.707 241.264 221.525 234.524C211.343 227.785 196.293 232.588 187.91 245.253C179.528 257.918 180.986 273.649 191.168 280.388Z" fill="black"/>
<path d="M147 187L200.634 248.919L204 244L208.5 258L197.5 253.5L200.634 248.919L147 187L133 180.5L117 162.5L130.5 167.5L128.5 150.5L145.5 172L147 187Z" fill="white"/>
<path fill-rule="evenodd" clip-rule="evenodd" d="M127.797 148.805L145.983 171.805L147.482 186.792L200.588 248.102L204.164 242.875L209.305 258.869L196.738 253.728L200.004 248.955L146.692 187.408L132.695 180.91L116.626 162.832L117.174 162.031L129.908 166.748L127.797 148.805ZM146.415 186.177L145.017 172.195L129.203 152.195L131.092 168.252L118.704 163.664L133.305 180.09L146.415 186.177ZM203.836 245.125L198.262 253.272L207.695 257.131L203.836 245.125Z" fill="black"/>
<path d="M288.693 426H168.168C159.818 426 153.076 432.818 153.169 441.167L153.308 453.667C153.4 461.886 160.088 468.5 168.307 468.5H288.832C297.182 468.5 303.924 461.682 303.831 453.333L303.692 440.833C303.6 432.614 296.912 426 288.693 426Z" fill="white"/>
<path fill-rule="evenodd" clip-rule="evenodd" d="M152.669 441.173C152.573 432.545 159.54 425.5 168.168 425.5H288.693C297.186 425.5 304.097 432.335 304.192 440.827L304.331 453.327C304.427 461.955 297.46 469 288.832 469H168.307C159.814 469 152.903 462.165 152.808 453.673L152.669 441.173ZM168.168 426.5C160.097 426.5 153.579 433.091 153.669 441.161L153.808 453.661C153.897 461.606 160.362 468 168.307 468H288.832C296.903 468 303.421 461.409 303.331 453.339L303.192 440.839C303.103 432.894 296.638 426.5 288.693 426.5H168.168Z" fill="black"/>
<path fill-rule="evenodd" clip-rule="evenodd" d="M164.5 441C164.5 437.41 167.41 434.5 171 434.5H287C290.59 434.5 293.5 437.41 293.5 441V452C293.5 455.59 290.59 458.5 287 458.5H171C167.41 458.5 164.5 455.59 164.5 452V441ZM171 435.5C167.962 435.5 165.5 437.962 165.5 441V452C165.5 455.038 167.962 457.5 171 457.5H287C290.038 457.5 292.5 455.038 292.5 452V441C292.5 437.962 290.038 435.5 287 435.5H171Z" fill="black"/>
<path fill-rule="evenodd" clip-rule="evenodd" d="M196 444.5H265V445.5H196V444.5Z" fill="black"/>
<path d="M246.777 384H168.12C159.789 384 153.054 390.789 153.12 399.119L153.223 412.119C153.289 420.357 159.985 427 168.223 427H246.88C255.211 427 261.946 420.211 261.88 411.881L261.777 398.881C261.711 390.643 255.015 384 246.777 384Z" fill="white"/>
<path fill-rule="evenodd" clip-rule="evenodd" d="M152.62 399.123C152.552 390.515 159.511 383.5 168.12 383.5H246.777C255.289 383.5 262.209 390.365 262.277 398.877L262.38 411.877C262.448 420.485 255.489 427.5 246.88 427.5H168.223C159.711 427.5 152.791 420.635 152.723 412.123L152.62 399.123ZM168.12 384.5C160.066 384.5 153.556 391.062 153.62 399.115L153.723 412.115C153.787 420.078 160.26 426.5 168.223 426.5H246.88C254.933 426.5 261.444 419.938 261.38 411.885L261.277 398.885C261.213 390.922 254.74 384.5 246.777 384.5H168.12Z" fill="black"/>
<path fill-rule="evenodd" clip-rule="evenodd" d="M162.5 400C162.5 396.41 165.41 393.5 169 393.5H245C248.59 393.5 251.5 396.41 251.5 400V411C251.5 414.59 248.59 417.5 245 417.5H169C165.41 417.5 162.5 414.59 162.5 411V400ZM169 394.5C165.962 394.5 163.5 396.962 163.5 400V411C163.5 414.038 165.962 416.5 169 416.5H245C248.038 416.5 250.5 414.038 250.5 411V400C250.5 396.962 248.038 394.5 245 394.5H169Z" fill="black"/>
<path fill-rule="evenodd" clip-rule="evenodd" d="M168 402.5H221V403.5H168V402.5Z" fill="black"/>
<path d="M101.414 466.254L147.789 455.973C151.024 455.256 153.065 452.052 152.348 448.817L111.116 262.833L102.242 222.805C101.525 219.569 98.3206 217.528 95.0855 218.245L48.7114 228.526C45.4762 229.244 43.435 232.448 44.1523 235.683L53.0263 275.711L94.258 461.695C94.9753 464.93 98.1793 466.972 101.414 466.254Z" fill="white"/>
<path fill-rule="evenodd" clip-rule="evenodd" d="M102.73 222.696C101.953 219.192 98.4821 216.98 94.9773 217.757L48.6033 228.038C45.0985 228.815 42.8872 232.286 43.6642 235.791L93.77 461.803C94.5469 465.308 98.018 467.519 101.523 466.742L147.897 456.462C151.402 455.685 153.613 452.214 152.836 448.709L102.73 222.696ZM95.1938 218.733C98.1593 218.076 101.096 219.947 101.754 222.913L110.52 262.453L53.4063 275.114L44.6405 235.574C43.983 232.609 45.8541 229.672 48.8197 229.014L95.1938 218.733ZM53.6227 276.091L110.736 263.429L151.86 448.925C152.517 451.891 150.646 454.828 147.68 455.485L101.306 465.766C98.3407 466.424 95.4037 464.553 94.7463 461.587L53.6227 276.091ZM90.109 408.328L133.066 398.805L132.85 397.829L89.8926 407.352L90.109 408.328ZM94.4378 427.854L137.395 418.331L137.178 417.354L94.2214 426.878L94.4378 427.854ZM98.7666 447.38L141.724 437.857L141.507 436.88L98.5502 446.404L98.7666 447.38Z" fill="black"/>
<path fill-rule="evenodd" clip-rule="evenodd" d="M469 469H43V468H469V469Z" fill="black"/>
</svg>
