<svg width="512" height="512" viewBox="0 0 512 512" fill="none" xmlns="http://www.w3.org/2000/svg">
<path d="M93 376H146V429H93V376Z" fill="black"/>
<path fill-rule="evenodd" clip-rule="evenodd" d="M145 377H94V428H145V377ZM93 376V429H146V376H93Z" fill="black"/>
<path fill-rule="evenodd" clip-rule="evenodd" d="M240.5 400H154V399H241.5V434H443.5V468.5H442.5V435H240.5V400Z" fill="black"/>
<path d="M101 369H154V422H101V369Z" fill="white"/>
<path fill-rule="evenodd" clip-rule="evenodd" d="M153 370H102V421H153V370ZM101 369V422H154V369H101Z" fill="black"/>
<path d="M117 80C117 100.435 100.435 117 80 117C59.5655 117 43 100.435 43 80C43 59.5655 59.5655 43 80 43C100.435 43 117 59.5655 117 80Z" fill="#FF7626"/>
<path fill-rule="evenodd" clip-rule="evenodd" d="M80 116C99.8823 116 116 99.8823 116 80C116 60.1177 99.8823 44 80 44C60.1177 44 44 60.1177 44 80C44 99.8823 60.1177 116 80 116ZM80 117C100.435 117 117 100.435 117 80C117 59.5655 100.435 43 80 43C59.5655 43 43 59.5655 43 80C43 100.435 59.5655 117 80 117Z" fill="black"/>
<path d="M122.5 102.5C115.7 89.7001 86 91.5001 79.5 107.5H191C173.5 71.5001 129.5 84.5001 122.5 102.5Z" fill="white"/>
<path fill-rule="evenodd" clip-rule="evenodd" d="M133.95 91.0552C128.627 94.2075 124.662 98.3194 122.966 102.681L122.57 103.698L122.058 102.735C120.434 99.6761 117.422 97.455 113.657 96.1018C109.895 94.7492 105.417 94.2785 100.934 94.6978C92.208 95.514 83.6426 99.6736 80.2616 107H190.194C181.49 89.774 166.547 84.2746 152.848 85.2487C145.894 85.7432 139.266 87.9073 133.95 91.0552ZM152.777 84.2513C167.015 83.2388 182.599 89.0732 191.45 107.281L191.799 108H78.7572L79.0368 107.312C82.3866 99.0661 91.6617 94.5608 100.841 93.7022C105.445 93.2715 110.074 93.7508 113.996 95.1607C117.564 96.4436 120.578 98.5092 122.429 101.39C124.402 97.1129 128.364 93.2011 133.441 90.1948C138.89 86.9677 145.668 84.7568 152.777 84.2513Z" fill="black"/>
<path d="M345 168L363.5 177.5L349 196.5L333.5 184.5L345 168Z" fill="#1064E1"/>
<path fill-rule="evenodd" clip-rule="evenodd" d="M344.84 167.355L364.26 177.328L349.092 197.203L332.818 184.604L344.84 167.355ZM345.16 168.644L334.182 184.396L348.908 195.796L362.74 177.672L345.16 168.644Z" fill="black"/>
<path d="M345 168L333.5 184.5L316.592 171.819C312.028 168.396 308.899 163.398 307.813 157.797L300 117.5C298.5 116.5 295.35 113.95 294.75 111.75L287 115.5L274.5 74.5L295.5 71.5L303.01 100C303.489 99.0736 304.048 98.3952 304.5 98L328 156L345 168Z" fill="white"/>
<path fill-rule="evenodd" clip-rule="evenodd" d="M295.87 70.9419L303.194 98.7343C303.526 98.2646 303.865 97.8911 304.171 97.6235L304.699 97.1608L328.408 155.676L345.694 167.878L333.614 185.21L316.292 172.219C311.628 168.721 308.431 163.615 307.322 157.892L299.548 117.798C298.778 117.269 297.684 116.417 296.686 115.431C295.786 114.542 294.914 113.495 294.465 112.443L286.692 116.204L273.851 74.0874L295.87 70.9419ZM295.366 112.007C295.724 112.874 296.486 113.827 297.389 114.719C298.413 115.731 299.55 116.599 300.277 117.084L300.451 117.2L308.303 157.701C309.366 163.181 312.427 168.07 316.892 171.419L333.386 183.789L344.305 168.122L327.592 156.324L304.325 98.9004C304.039 99.2441 303.734 99.6892 303.454 100.23C302.573 101.932 301.962 104.551 302.978 107.853L303.104 108.263L295.366 112.007ZM302.478 99.944L295.13 72.0578L275.148 74.9123L287.308 114.795L301.902 107.734C301.002 104.455 301.576 101.78 302.478 99.944Z" fill="black"/>
<path d="M370.799 162.9C367.043 165.902 361.785 170.104 352.771 168.903C343.933 187.607 337.809 207.476 334.583 227.91L328.735 264.948H387.196V272.546C394.011 272.546 398.959 267.481 400.582 264.948C400.582 197.102 377.058 172.405 370.799 162.9Z" fill="#1064E1"/>
<path fill-rule="evenodd" clip-rule="evenodd" d="M370.915 162.167L370.487 162.51C366.744 165.501 361.631 169.579 352.837 168.407L352.475 168.359L352.319 168.689C343.461 187.436 337.322 207.351 334.089 227.832L328.15 265.448H386.696V273.046H387.196C390.731 273.046 393.769 271.732 396.12 270.108C398.468 268.487 400.157 266.538 401.003 265.218L401.082 265.094V264.948C401.082 230.965 395.19 207.763 388.498 191.852C383.171 179.185 377.329 171.136 373.608 166.009C372.658 164.7 371.846 163.582 371.216 162.625L370.915 162.167ZM387.696 265.448H399.618C398.741 266.596 397.354 268.04 395.552 269.285C393.434 270.748 390.766 271.921 387.696 272.037V265.448ZM400.081 264.448C400.024 230.858 394.179 207.938 387.576 192.24C382.3 179.695 376.547 171.765 372.821 166.629C372.002 165.501 371.282 164.508 370.686 163.63C366.989 166.574 361.743 170.475 353.069 169.445C344.334 188.01 338.276 207.72 335.076 227.988L329.32 264.448H400.081Z" fill="black"/>
<path d="M387.196 272.546C394.011 272.546 398.959 267.481 400.582 264.948H387.196V272.546Z" fill="black"/>
<path fill-rule="evenodd" clip-rule="evenodd" d="M401.496 264.448H386.696V273.046H387.196C390.731 273.046 393.769 271.732 396.12 270.108C398.468 268.486 400.156 266.538 401.003 265.217L401.496 264.448ZM399.618 265.448C398.741 266.596 397.354 268.04 395.552 269.285C393.434 270.748 390.766 271.92 387.696 272.037V265.448H399.618Z" fill="black"/>
<path d="M416.732 443.957L405.542 422.461L387.49 431.858C393.234 440.488 370.559 447.416 369.961 468.305L416.732 443.957Z" fill="white"/>
<path fill-rule="evenodd" clip-rule="evenodd" d="M386.765 431.672L405.755 421.787L417.407 444.17L369.436 469.141L369.461 468.29C369.765 457.649 375.702 450.576 380.737 445.145C381.138 444.711 381.533 444.29 381.918 443.878C383.967 441.689 385.742 439.793 386.831 437.997C387.471 436.942 387.847 435.96 387.911 435.012C387.975 434.076 387.736 433.131 387.074 432.135L386.765 431.672ZM388.196 432.055C388.756 433.058 388.978 434.063 388.909 435.079C388.83 436.243 388.373 437.382 387.686 438.516C386.538 440.409 384.675 442.398 382.629 444.582C382.248 444.989 381.861 445.403 381.47 445.824C376.595 451.084 371.074 457.688 370.498 467.461L416.058 443.744L405.329 423.135L388.196 432.055Z" fill="black"/>
<path d="M388 265H340.5H328.5L261.819 444.266H309.681L341.376 362.5L373.64 439.266L415.719 418.266L386.36 354.633L388 265Z" fill="white"/>
<path fill-rule="evenodd" clip-rule="evenodd" d="M388.509 264.5H328.152L261.099 444.766H310.023L341.395 363.835L373.386 439.951L416.376 418.497L386.861 354.527L388.509 264.5ZM340.837 362.508L309.338 443.766H262.538L328.847 265.5H339.986L337.763 347.502C337.634 352.264 338.522 356.999 340.367 361.39L340.837 362.508ZM340.986 265.5H387.49L385.857 354.738L415.062 418.035L373.894 438.58L341.289 361.003C339.499 356.742 338.637 352.149 338.763 347.529L340.986 265.5Z" fill="black"/>
<path d="M286.007 468.5L296.007 444.5H275.655C276.765 454.807 251.453 450.247 241.277 468.5H286.007Z" fill="white"/>
<path fill-rule="evenodd" clip-rule="evenodd" d="M275.098 444H296.757L286.34 469H240.426L240.841 468.257C246.03 458.947 255.077 455.477 262.544 453.045C263.188 452.835 263.82 452.633 264.435 452.437C267.415 451.484 270.017 450.652 271.942 449.594C273.093 448.96 273.955 448.268 274.5 447.462C275.035 446.669 275.285 445.733 275.158 444.554L275.098 444ZM276.189 445C276.215 446.158 275.913 447.155 275.328 448.022C274.661 449.01 273.648 449.796 272.424 450.47C270.406 451.58 267.686 452.449 264.706 453.4C264.098 453.594 263.479 453.792 262.853 453.996C255.608 456.356 247.19 459.61 242.145 468H285.673L295.257 445H276.189Z" fill="black"/>
<path d="M333.553 195.384L348.02 179.844L372.462 191.8L351.527 209.83L333.553 195.384Z" fill="#1064E1"/>
<path fill-rule="evenodd" clip-rule="evenodd" d="M351.516 209.18L372.136 191.421L372.788 192.179L351.538 210.481L332.821 195.438L347.654 179.504L348.386 180.185L334.285 195.332L351.516 209.18Z" fill="black"/>
<path d="M351.527 209.83L333.553 195.384L326 202.5L291.5 183L267.5 166C264.736 172.909 262.758 178.767 265.294 182.5C268.632 187.411 277.591 189.375 281 192.5L320.45 224.475C325.074 228.223 331.746 228.015 336.128 223.987L351.527 209.83Z" fill="white"/>
<path fill-rule="evenodd" clip-rule="evenodd" d="M352.293 209.805L333.527 194.722L325.925 201.883L291.768 182.577L267.271 165.225L267.036 165.814C265.655 169.266 264.451 172.5 263.918 175.349C263.385 178.196 263.503 180.754 264.881 182.781C266.634 185.361 269.828 187.129 272.902 188.62C273.513 188.916 274.117 189.201 274.708 189.479C275.628 189.912 276.516 190.33 277.35 190.755C278.714 191.452 279.862 192.135 280.662 192.869L280.673 192.879L320.136 224.864C324.952 228.768 331.902 228.551 336.466 224.355L352.293 209.805ZM350.76 209.856L335.79 223.619C331.591 227.48 325.196 227.679 320.765 224.087L281.326 192.121C280.423 191.296 279.177 190.565 277.804 189.865C276.961 189.434 276.043 189.002 275.108 188.562C274.52 188.285 273.925 188.005 273.338 187.72C270.246 186.22 267.292 184.55 265.708 182.219C264.549 180.513 264.388 178.276 264.901 175.533C265.385 172.949 266.45 170.002 267.729 166.775L291.232 183.423L326.075 203.117L333.579 196.047L350.76 209.856Z" fill="black"/>
<path d="M352.772 168.903C361.785 170.104 367.043 165.902 370.799 162.9C369.738 161.289 367.353 157.516 366.044 153.5C370.053 144.217 370.063 135.252 367.188 130.287C363.385 123.722 355.791 121.75 350.293 126.536C341.733 133.987 339.643 161.896 354.671 157.594C354.846 161.886 353.58 166.682 352.772 168.903Z" fill="white"/>
<path fill-rule="evenodd" clip-rule="evenodd" d="M359.262 124.642C356.358 123.963 353.25 124.625 350.621 126.913C348.578 128.692 346.879 131.737 345.728 135.291C344.58 138.836 343.995 142.83 344.136 146.453C344.277 150.091 345.146 153.278 346.826 155.283C347.659 156.276 348.692 156.98 349.947 157.317C351.205 157.655 352.722 157.631 354.533 157.113L355.145 156.938L355.171 157.573C355.334 161.603 354.26 166.04 353.448 168.481C361.6 169.36 366.51 165.68 370.132 162.793C368.975 161.008 366.804 157.445 365.569 153.655L365.51 153.475L365.585 153.302C369.562 144.094 369.519 135.31 366.755 130.538C364.915 127.36 362.174 125.322 359.262 124.642ZM359.49 123.668C362.7 124.418 365.658 126.649 367.62 130.037C370.588 135.161 370.545 144.227 366.578 153.523C367.877 157.405 370.175 161.044 371.216 162.625L371.467 163.006L371.101 163.299C367.333 166.311 361.931 170.628 352.706 169.399L352.089 169.317L352.302 168.732C353.059 166.652 354.221 162.276 354.187 158.237C352.497 158.636 350.999 158.635 349.688 158.283C348.214 157.888 347.011 157.059 346.06 155.925C344.173 153.674 343.282 150.225 343.137 146.492C342.991 142.744 343.595 138.633 344.777 134.983C345.955 131.344 347.728 128.106 349.965 126.159C352.834 123.661 356.271 122.916 359.49 123.668Z" fill="black"/>
<path d="M360.91 149.021C362.608 151.616 363.601 151.45 366.76 152.126C370.769 142.843 370.062 135.252 367.187 130.287C358.712 115.895 331.85 119.015 341.207 130.876C341.99 131.868 343.228 132.373 344.486 132.485C353.732 133.305 356.758 137.034 357.533 145.675C357.535 145.81 357.546 145.938 357.566 146.057C357.555 145.929 357.544 145.801 357.533 145.675C357.509 144.14 358.572 141.655 359.593 141.153C365.223 138.385 364.672 146.924 360.91 149.021Z" fill="black"/>
<path fill-rule="evenodd" clip-rule="evenodd" d="M338.793 126.915C338.952 128.227 339.609 129.657 340.815 131.186C341.707 132.317 343.091 132.863 344.442 132.983C349.015 133.389 351.937 134.506 353.824 136.491C355.712 138.479 356.648 141.426 357.033 145.702C357.037 145.851 357.049 145.998 357.072 146.139L358.064 146.017C358.054 145.893 358.044 145.771 358.033 145.649C358.027 144.98 358.258 144.059 358.628 143.23C358.812 142.817 359.022 142.445 359.239 142.153C359.461 141.853 359.662 141.676 359.814 141.602C361.148 140.945 361.962 141.033 362.43 141.339C362.917 141.656 363.229 142.334 363.274 143.286C363.317 144.222 363.092 145.319 362.63 146.306C362.167 147.294 361.489 148.126 360.666 148.584L360.198 148.846L360.492 149.295C361.37 150.637 362.111 151.332 363.09 151.752C363.564 151.956 364.076 152.087 364.648 152.209C364.906 152.264 365.183 152.318 365.476 152.376L365.576 152.395C365.908 152.46 366.265 152.531 366.656 152.615L367.057 152.7L367.22 152.324C371.276 142.931 370.592 135.168 367.62 130.036L367.618 130.033L367.618 130.033C363.256 122.626 354.207 119.765 347.475 120.238C344.12 120.473 341.196 121.547 339.731 123.451C338.985 124.421 338.632 125.59 338.793 126.915ZM357.681 142.9C357.156 139.891 356.205 137.546 354.549 135.803C352.417 133.558 349.203 132.401 344.531 131.987C343.364 131.883 342.273 131.419 341.6 130.566C340.466 129.129 339.916 127.868 339.786 126.795C339.657 125.736 339.934 124.827 340.523 124.061C341.728 122.495 344.295 121.464 347.545 121.235C354.023 120.781 362.642 123.555 366.756 130.539C369.495 135.271 370.242 142.553 366.461 151.552C366.216 151.502 365.985 151.457 365.768 151.414L365.67 151.395C365.374 151.337 365.106 151.284 364.856 151.231C364.301 151.113 363.866 150.997 363.485 150.833C362.84 150.557 362.294 150.12 361.612 149.164C362.446 148.559 363.092 147.678 363.536 146.73C364.059 145.612 364.325 144.354 364.273 143.239C364.221 142.141 363.851 141.072 362.976 140.501C362.082 139.918 360.853 139.976 359.373 140.704C359.014 140.881 358.699 141.203 358.435 141.558C358.166 141.921 357.921 142.36 357.714 142.823C357.703 142.849 357.692 142.874 357.681 142.9Z" fill="black"/>
<path d="M413.063 90.0628C418.43 79.9836 441.87 81.401 447 94H359C372.812 65.6523 407.538 75.8889 413.063 90.0628Z" fill="white"/>
<path fill-rule="evenodd" clip-rule="evenodd" d="M403.973 81.1424C408.162 83.6173 411.27 86.8392 412.597 90.2443L412.992 91.2588L413.504 90.2977C414.77 87.9195 417.122 86.1844 420.077 85.1247C423.03 84.0656 426.548 83.6958 430.074 84.0248C436.882 84.6602 443.538 87.8729 446.232 93.4999H359.809C366.668 80.1006 378.369 75.8229 389.104 76.5845C394.576 76.9727 399.791 78.6719 403.973 81.1424ZM389.174 75.587C377.901 74.7872 365.558 79.3988 358.55 93.7809L358.2 94.4999H447.743L447.463 93.8114C444.798 87.2661 437.43 83.707 430.167 83.0292C426.52 82.6888 422.851 83.0672 419.739 84.1834C416.973 85.1755 414.618 86.7622 413.134 88.9732C411.539 85.6464 408.432 82.6157 404.481 80.2814C400.166 77.732 394.801 75.9862 389.174 75.587Z" fill="black"/>
<path d="M115 340V155H214.5L245 185V340H115Z" fill="white"/>
<path fill-rule="evenodd" clip-rule="evenodd" d="M114.5 154.5H214.705L245.5 184.79V340.5H114.5V154.5ZM115.5 155.5V339.5H244.5V185.5L214 185.5V155.5H115.5ZM215 156.193L243.779 184.5L215 184.5V156.193Z" fill="black"/>
<path fill-rule="evenodd" clip-rule="evenodd" d="M223 199.5H132V198.5H223V199.5Z" fill="black"/>
<path fill-rule="evenodd" clip-rule="evenodd" d="M223 227.5H132V226.5H223V227.5Z" fill="black"/>
<path fill-rule="evenodd" clip-rule="evenodd" d="M184 255.5H132V254.5H184V255.5Z" fill="black"/>
<path fill-rule="evenodd" clip-rule="evenodd" d="M221 283.5H132V282.5H221V283.5Z" fill="black"/>
<path fill-rule="evenodd" clip-rule="evenodd" d="M203 311.5H132V310.5H203V311.5Z" fill="black"/>
<path d="M175.5 195.5C175.5 209.583 164.083 221 150 221C135.917 221 124.5 209.583 124.5 195.5C124.5 181.417 135.917 170 150 170C164.083 170 175.5 181.417 175.5 195.5Z" fill="white"/>
<path fill-rule="evenodd" clip-rule="evenodd" d="M150 220C163.531 220 174.5 209.031 174.5 195.5C174.5 181.969 163.531 171 150 171C136.469 171 125.5 181.969 125.5 195.5C125.5 209.031 136.469 220 150 220ZM150 221C164.083 221 175.5 209.583 175.5 195.5C175.5 181.417 164.083 170 150 170C135.917 170 124.5 181.417 124.5 195.5C124.5 209.583 135.917 221 150 221Z" fill="black"/>
<path fill-rule="evenodd" clip-rule="evenodd" d="M147.784 179.067L160.42 211.158L159.489 211.524L153.529 196.386H142.04L136.079 211.524L135.149 211.158L147.784 179.067ZM142.433 195.386H153.135L147.784 181.796L142.433 195.386Z" fill="black"/>
<path fill-rule="evenodd" clip-rule="evenodd" d="M159.159 190.477V179.659H160.159V190.477H159.159Z" fill="black"/>
<path fill-rule="evenodd" clip-rule="evenodd" d="M165.068 185.568H154.25V184.568H165.068V185.568Z" fill="black"/>
<path fill-rule="evenodd" clip-rule="evenodd" d="M121.676 407.297L146.649 382.644L147.351 383.356L121.676 408.702L107.649 394.855L108.351 394.143L121.676 407.297Z" fill="black"/>
<path fill-rule="evenodd" clip-rule="evenodd" d="M469 469H43V468H469V469Z" fill="black"/>
</svg>
