<svg width="512" height="512" viewBox="0 0 512 512" fill="none" xmlns="http://www.w3.org/2000/svg">
<path fill-rule="evenodd" clip-rule="evenodd" d="M108 341.5H43V340.5H109V396.5H242V469H241V397.5H108V341.5Z" fill="black"/>
<path d="M456.792 401.666L438.642 385.608L425.156 400.851C433.611 406.849 414.925 421.442 421.852 441.158L456.792 401.666Z" fill="white"/>
<path fill-rule="evenodd" clip-rule="evenodd" d="M424.413 400.936L438.598 384.902L457.498 401.623L421.663 442.127L421.381 441.324C417.851 431.28 420.859 422.549 423.613 415.674C423.833 415.126 424.05 414.591 424.262 414.069C425.391 411.29 426.368 408.884 426.741 406.818C426.96 405.603 426.96 404.551 426.68 403.643C426.403 402.747 425.843 401.951 424.867 401.258L424.413 400.936ZM425.885 400.781C426.768 401.517 427.335 402.375 427.635 403.349C427.979 404.464 427.96 405.691 427.725 406.995C427.332 409.174 426.305 411.699 425.178 414.471C424.968 414.988 424.755 415.513 424.541 416.046C421.875 422.704 419.087 430.847 422.052 440.178L456.086 401.709L438.685 386.314L425.885 400.781Z" fill="black"/>
<path d="M355.668 205.173L343.915 224.881L320.941 217.017C318.072 216.035 315.681 214.002 314.249 211.329L296.569 178.314C294.368 176.071 291.337 173.857 287.532 169.906C283.846 166.079 286.14 157.469 291.076 149.414L326.358 199.568L355.668 205.173Z" fill="white"/>
<path fill-rule="evenodd" clip-rule="evenodd" d="M313.808 211.565C315.299 214.35 317.79 216.467 320.779 217.49L344.137 225.485L356.463 204.816L326.65 199.115L291.047 148.504L290.65 149.152C288.162 153.212 286.325 157.434 285.58 161.147C284.84 164.837 285.155 168.159 287.172 170.253C289.088 172.243 290.809 173.795 292.322 175.126C292.576 175.35 292.825 175.568 293.067 175.78C294.245 176.812 295.272 177.711 296.162 178.613L313.808 211.565ZM321.103 216.544C318.353 215.603 316.062 213.655 314.69 211.093L296.976 178.014L296.926 177.963C295.995 177.015 294.917 176.071 293.717 175.02C293.477 174.809 293.232 174.595 292.982 174.375C291.478 173.051 289.78 171.52 287.892 169.559C286.223 167.826 285.842 164.93 286.561 161.344C287.237 157.975 288.863 154.116 291.108 150.329L326.065 200.021L354.873 205.53L343.693 224.276L321.103 216.544Z" fill="black"/>
<path d="M339.772 168.903C348.785 170.104 354.043 165.902 357.799 162.901L377.947 156.098L386.513 177.426L367.183 185.035C372.643 202.434 378.113 229.003 379.582 264.948C377.959 267.481 373.011 272.547 366.196 272.547V264.948H308.5L313.769 231.575C315.764 218.935 319.42 206.662 324.609 195.062C327.587 189.144 334.789 175.626 339.772 168.903Z" fill="#1064E1"/>
<path fill-rule="evenodd" clip-rule="evenodd" d="M378.235 155.473L387.164 177.707L367.799 185.329C373.227 202.781 378.623 229.248 380.081 264.928L380.088 265.085L380.003 265.218C379.157 266.539 377.468 268.487 375.12 270.108C372.769 271.733 369.731 273.046 366.196 273.046H365.696V265.448H307.915L313.275 231.496C315.277 218.814 318.946 206.498 324.153 194.858L324.157 194.847L324.163 194.837C327.139 188.922 334.358 175.367 339.37 168.606L339.545 168.369L339.838 168.408C348.631 169.579 353.744 165.501 357.487 162.51L357.555 162.455L378.235 155.473ZM366.696 265.448V272.037C369.766 271.921 372.434 270.749 374.552 269.286C376.354 268.041 377.741 266.596 378.618 265.448H366.696ZM379.061 264.448H309.085L314.263 231.652C316.251 219.061 319.892 206.833 325.061 195.277C328.009 189.419 335.056 176.193 340 169.436C348.999 170.53 354.317 166.323 358.042 163.346L377.659 156.723L385.861 177.145L366.566 184.74L366.706 185.184C372.126 202.454 377.562 228.807 379.061 264.448Z" fill="black"/>
<path d="M386.512 177.426L377.947 156.098L433 105.5C437.49 109.803 437.572 116.299 437 120C436.465 123.465 429.768 124.979 426.522 127.333C425.294 128.223 424.523 129.6 423.58 130.787L386.512 177.426Z" fill="white"/>
<path fill-rule="evenodd" clip-rule="evenodd" d="M433.007 104.814L433.346 105.139C438.017 109.616 438.073 116.327 437.494 120.076C437.336 121.101 436.727 121.943 435.925 122.651C435.124 123.359 434.091 123.969 433.007 124.528C432.299 124.892 431.547 125.246 430.81 125.592C430.423 125.774 430.04 125.953 429.671 126.132C428.581 126.658 427.588 127.178 426.815 127.738C426.259 128.142 425.793 128.665 425.341 129.254C425.138 129.517 424.943 129.787 424.742 130.065C424.718 130.098 424.694 130.131 424.67 130.165C424.446 130.475 424.215 130.792 423.971 131.098L386.369 178.41L377.354 155.964L433.007 104.814ZM378.54 156.233L386.656 176.442L423.188 130.476C423.416 130.189 423.636 129.889 423.86 129.579C423.884 129.546 423.908 129.512 423.932 129.479C424.131 129.203 424.336 128.92 424.548 128.644C425.023 128.026 425.557 127.415 426.228 126.929C427.079 126.312 428.141 125.76 429.236 125.231C429.626 125.043 430.018 124.859 430.41 124.675C431.135 124.334 431.856 123.996 432.549 123.639C433.611 123.091 434.556 122.526 435.262 121.902C435.968 121.279 436.396 120.632 436.506 119.924C437.055 116.368 436.968 110.32 432.986 106.192L378.54 156.233Z" fill="black"/>
<path d="M358.55 152.976C356.85 158.206 357.075 160.267 357.799 162.901C354.043 165.902 348.785 170.104 339.772 168.903C341.5 166.5 344.622 162.521 345.782 158.384C330.832 162.948 333.209 135.277 341.638 127.677C347.051 122.796 354.679 124.635 358.595 131.133C361.556 136.046 362.395 143.624 358.55 152.976Z" fill="white"/>
<path fill-rule="evenodd" clip-rule="evenodd" d="M350.573 125.627C347.657 124.999 344.561 125.715 341.973 128.048C339.957 129.866 338.263 132.928 337.102 136.478C335.944 140.019 335.334 143.99 335.443 147.577C335.552 151.18 336.383 154.313 338.024 156.258C338.837 157.221 339.849 157.895 341.086 158.202C342.328 158.51 343.832 158.457 345.636 157.906L346.511 157.639L346.264 158.519C345.198 162.316 342.53 165.971 340.76 168.394C340.733 168.432 340.706 168.468 340.679 168.505C348.767 169.298 353.634 165.585 357.231 162.714C356.91 161.494 356.703 160.337 356.766 158.89C356.834 157.328 357.217 155.457 358.074 152.821L358.08 152.803L358.087 152.785C361.887 143.545 361.029 136.139 358.167 131.391C356.272 128.246 353.496 126.256 350.573 125.627ZM350.783 124.649C354.006 125.343 357.003 127.521 359.023 130.875C362.083 135.951 362.902 143.694 359.019 153.148C358.18 155.733 357.828 157.503 357.765 158.934C357.703 160.359 357.926 161.475 358.281 162.768L358.368 163.086L358.101 163.299C354.333 166.311 348.931 170.628 339.706 169.399L338.879 169.289L339.366 168.611C339.549 168.357 339.747 168.086 339.954 167.801C341.595 165.551 343.889 162.405 345.033 159.104C343.468 159.467 342.073 159.477 340.846 159.172C339.384 158.81 338.195 158.011 337.26 156.903C335.406 154.706 334.555 151.302 334.443 147.607C334.331 143.896 334.961 139.81 336.152 136.167C337.34 132.535 339.105 129.288 341.303 127.305C344.128 124.758 347.552 123.953 350.783 124.649Z" fill="black"/>
<path d="M366.197 272.547C373.011 272.547 377.959 267.481 379.582 264.948H366.197V272.547Z" fill="black"/>
<path fill-rule="evenodd" clip-rule="evenodd" d="M380.496 264.448H365.697V273.047H366.197C369.731 273.047 372.769 271.733 375.12 270.109C377.468 268.487 379.157 266.539 380.003 265.218L380.496 264.448ZM378.618 265.448C377.742 266.596 376.354 268.041 374.552 269.286C372.434 270.749 369.766 271.921 366.697 272.037V265.448H378.618Z" fill="black"/>
<path d="M368 265H320.5H308.5L284.819 444.266H332.681L342.854 362.213C345.046 365.553 348.064 368.334 351.677 370.249L421 407L445 381L381 337L368 265Z" fill="white"/>
<path fill-rule="evenodd" clip-rule="evenodd" d="M308.062 264.5H368.418L381.455 336.706L445.759 380.915L421.106 407.622L351.443 370.691C348.152 368.946 345.346 366.499 343.189 363.571L333.123 444.766H284.248L308.062 264.5ZM342.335 362.333C340.738 359.859 339.582 357.09 338.955 354.143L320.095 265.5H308.938L285.389 443.766H332.239L342.335 362.333ZM321.118 265.5L339.933 353.935C340.547 356.821 341.69 359.529 343.272 361.939C345.419 365.209 348.373 367.932 351.911 369.807L420.894 406.378L444.241 381.085L380.545 337.294L367.582 265.5H321.118Z" fill="black"/>
<path d="M358.163 147.351C358.5 148.5 359 149 360.306 148.827C363.323 139.176 361.827 131.7 358.448 127.063C348.515 113.636 322.126 119.547 332.672 130.365C333.554 131.27 334.838 131.641 336.102 131.634C345.849 131.578 352.691 135.834 354.458 144.401C354.475 144.526 354.497 144.644 354.528 144.753C354.505 144.635 354.482 144.518 354.458 144.401C354.262 142.881 355.063 140.273 356.032 139.664C361.341 136.323 361.685 144.873 358.163 147.351Z" fill="black"/>
<path fill-rule="evenodd" clip-rule="evenodd" d="M329.857 126.678C330.152 127.966 330.955 129.32 332.314 130.714C333.32 131.746 334.753 132.142 336.105 132.134C340.909 132.106 344.949 133.142 347.993 135.198C351.022 137.245 353.104 140.328 353.965 144.485C353.984 144.623 354.01 144.758 354.046 144.887L355.019 144.661C354.998 144.546 354.975 144.433 354.952 144.32C354.871 143.659 355.003 142.714 355.284 141.845C355.424 141.412 355.595 141.017 355.78 140.701C355.971 140.377 356.154 140.178 356.298 140.087C357.556 139.295 358.375 139.298 358.872 139.552C359.389 139.817 359.771 140.458 359.915 141.401C360.056 142.327 359.947 143.442 359.59 144.471C359.233 145.503 358.646 146.401 357.876 146.943L357.583 147.149L357.684 147.492C357.86 148.094 358.108 148.638 358.572 148.985C359.051 149.343 359.656 149.418 360.372 149.323L360.688 149.281L360.784 148.976C363.836 139.211 362.344 131.562 358.852 126.769L358.85 126.766L358.85 126.766C353.738 119.856 344.439 117.956 337.793 119.13C334.481 119.715 331.685 121.088 330.427 123.136C329.787 124.178 329.559 125.377 329.857 126.678ZM354.252 141.8C353.114 138.62 351.168 136.137 348.553 134.37C345.297 132.17 341.042 131.106 336.099 131.134C334.924 131.141 333.788 130.794 333.03 130.016C331.752 128.706 331.073 127.508 330.832 126.455C330.593 125.415 330.773 124.483 331.28 123.659C332.314 121.976 334.759 120.682 337.967 120.115C344.362 118.986 353.224 120.844 358.045 127.36C361.272 131.79 362.776 138.98 359.928 148.359C359.538 148.373 359.317 148.294 359.171 148.184C359.017 148.07 358.879 147.873 358.749 147.531C359.582 146.834 360.174 145.842 360.535 144.798C360.939 143.632 361.072 142.353 360.903 141.25C360.738 140.163 360.258 139.138 359.327 138.662C358.377 138.176 357.161 138.362 355.765 139.241C355.425 139.455 355.144 139.811 354.918 140.194C354.688 140.587 354.489 141.052 354.332 141.537C354.304 141.624 354.277 141.712 354.252 141.8Z" fill="black"/>
<path d="M320.612 468.5V444.266H300.261C301.371 454.573 278.059 450.248 267.883 468.5H320.612Z" fill="white"/>
<path fill-rule="evenodd" clip-rule="evenodd" d="M299.704 443.766H321.112V469H267.032L267.446 468.257C272.63 458.958 281.162 455.426 288.136 452.933C288.692 452.734 289.237 452.542 289.768 452.355C292.597 451.359 295.047 450.497 296.841 449.407C297.897 448.766 298.684 448.069 299.179 447.258C299.667 446.456 299.892 445.509 299.764 444.319L299.704 443.766ZM300.796 444.766C300.83 445.915 300.563 446.908 300.032 447.778C299.425 448.775 298.494 449.573 297.36 450.261C295.468 451.411 292.897 452.315 290.074 453.308C289.548 453.493 289.013 453.681 288.472 453.874C281.719 456.289 273.773 459.597 268.749 468H320.112V444.766H300.796Z" fill="black"/>
<path d="M337.669 95L389 141L380 137.629V144.5C381.933 144.5 383.5 146.067 383.5 148V151.5H376.5V148C376.5 146.067 378.067 144.5 380 144.5V137.629L366.465 132.56L362.709 138.046L336 119.899L336.664 110L337.669 95Z" fill="#FF7626"/>
<path fill-rule="evenodd" clip-rule="evenodd" d="M337.239 93.9431L389.334 140.628L388.825 141.468L380.5 138.35V144.031C382.473 144.277 384 145.96 384 148V152H376V148C376 145.96 377.527 144.277 379.5 144.031V137.976L366.656 133.165L362.84 138.74L335.482 120.152L337.239 93.9431ZM366.708 132.117L386.689 139.601L338.1 96.0571L337.181 109.764L366.708 132.117ZM337.101 110.958L336.518 119.647L362.578 137.352L365.783 132.671L337.101 110.958ZM380 145C378.343 145 377 146.343 377 148V151H383V148C383 146.343 381.657 145 380 145Z" fill="black"/>
<path d="M117 80C117 100.435 100.435 117 80 117C59.5655 117 43 100.435 43 80C43 59.5655 59.5655 43 80 43C100.435 43 117 59.5655 117 80Z" fill="#FF7626"/>
<path fill-rule="evenodd" clip-rule="evenodd" d="M80 116C99.8823 116 116 99.8823 116 80C116 60.1177 99.8823 44 80 44C60.1177 44 44 60.1177 44 80C44 99.8823 60.1177 116 80 116ZM80 117C100.435 117 117 100.435 117 80C117 59.5655 100.435 43 80 43C59.5655 43 43 59.5655 43 80C43 100.435 59.5655 117 80 117Z" fill="black"/>
<path d="M122.5 102.5C115.7 89.7001 86 91.5001 79.5 107.5H191C173.5 71.5001 129.5 84.5001 122.5 102.5Z" fill="white"/>
<path fill-rule="evenodd" clip-rule="evenodd" d="M133.95 91.0552C128.627 94.2075 124.662 98.3194 122.966 102.681L122.57 103.698L122.058 102.735C120.434 99.6761 117.422 97.455 113.657 96.1018C109.895 94.7492 105.417 94.2785 100.934 94.6978C92.2079 95.514 83.6426 99.6736 80.2616 107H190.194C181.49 89.774 166.547 84.2746 152.848 85.2487C145.894 85.7432 139.266 87.9073 133.95 91.0552ZM152.777 84.2513C167.015 83.2388 182.598 89.0732 191.45 107.281L191.799 108H78.7572L79.0368 107.312C82.3866 99.0661 91.6617 94.5608 100.841 93.7022C105.445 93.2715 110.074 93.7508 113.996 95.1607C117.564 96.4436 120.578 98.5092 122.429 101.39C124.402 97.1129 128.364 93.2011 133.441 90.1948C138.89 86.9677 145.668 84.7568 152.777 84.2513Z" fill="black"/>
<path d="M93.3872 290.791L142.006 239.793C141.027 230.603 146.624 221.984 155.418 219.141L179.712 157.861L183.056 157.871C203.48 157.932 221.978 169.945 230.341 188.579L231.71 191.629L185.61 238.748L207.415 252.908L191.484 257.243L194.004 273.561L172.198 259.4L145.385 324.558L142.041 324.548C121.617 324.487 103.119 312.475 94.7561 293.841L93.3872 290.791Z" fill="black"/>
<path fill-rule="evenodd" clip-rule="evenodd" d="M183.057 157.371C203.678 157.433 222.354 169.561 230.797 188.374L232.306 191.735L186.394 238.661L208.625 253.098L192.047 257.609L194.668 274.588L172.431 260.148L145.719 325.059L142.04 325.048C121.419 324.987 102.744 312.859 94.3 294.046L92.7934 290.689L141.486 239.614C140.606 230.354 146.223 221.704 155.039 218.739L179.373 157.36L183.057 157.371ZM155.347 219.691C146.982 222.509 141.652 230.717 142.48 239.504L193.339 272.533L190.922 256.878L206.206 252.719L155.347 219.691ZM142.082 240.438L93.9809 290.892L95.2123 293.636C103.495 312.091 121.815 323.988 142.043 324.048L145.05 324.057L171.578 259.593L142.082 240.438ZM156.034 218.944L185.539 238.105L231.114 191.523L229.885 188.784C221.602 170.329 203.282 158.432 183.054 158.371L180.052 158.362L156.034 218.944Z" fill="black"/>
<path d="M87.3872 280.791L136.006 229.793C135.027 220.603 140.624 211.984 149.418 209.141L173.712 147.861L177.056 147.871C197.48 147.932 215.978 159.945 224.341 178.579L225.71 181.629L179.61 228.748L201.415 242.908L185.484 247.243L188.004 263.561L166.198 249.4L139.385 314.558L136.041 314.548C115.617 314.487 97.1195 302.475 88.7562 283.841L87.3872 280.791Z" fill="white"/>
<path fill-rule="evenodd" clip-rule="evenodd" d="M177.057 147.371C197.678 147.433 216.354 159.561 224.797 178.374L226.306 181.735L180.394 228.661L202.625 243.098L186.047 247.609L188.668 264.588L166.431 250.148L139.719 315.059L136.04 315.048C115.419 314.987 96.7437 302.859 88.3 284.046L86.7934 280.689L135.486 229.614C134.606 220.354 140.223 211.704 149.039 208.739L173.373 147.36L177.057 147.371ZM149.347 209.691C140.982 212.509 135.652 220.717 136.48 229.504L187.339 262.533L185.024 247.541L157.536 229.69L158.08 228.851L185.569 246.702L200.206 242.719L149.347 209.691ZM136.082 230.438L87.9809 280.892L89.2123 283.636C97.4952 302.091 115.815 313.988 136.043 314.048L139.05 314.057L165.578 249.593L158.797 245.19L146.407 264.27L145.568 263.725L157.959 244.645L151.249 240.288L124.97 280.754L124.132 280.209L150.411 239.744L143.701 235.386L126.681 261.595L125.843 261.05L142.863 234.842L136.082 230.438ZM150.034 208.944L164.367 218.253L174.783 202.213L175.622 202.758L165.206 218.797L171.915 223.154L202.211 176.503L203.049 177.048L172.754 223.699L179.539 228.105L225.114 181.523L223.885 178.784C215.602 160.329 197.283 148.432 177.054 148.371L174.052 148.362L150.034 208.944Z" fill="black"/>
<path d="M256 310L273 324L212 442.5L146.5 443.5L127 432L196 310H256Z" fill="white"/>
<path fill-rule="evenodd" clip-rule="evenodd" d="M195.708 309.5H256.179L273.629 323.87L212.307 442.995L146.367 444.002L126.323 432.181L195.708 309.5ZM196.292 310.5L127.857 431.5H195.689L255.197 310.5H196.292ZM256.17 310.788L272.371 324.13L211.81 441.777L196.644 431.824L256.17 310.788ZM195.851 432.5H128.832L146.633 442.998L210.365 442.025L195.851 432.5Z" fill="black"/>
<path fill-rule="evenodd" clip-rule="evenodd" d="M227 340H193V339H227V340Z" fill="black"/>
<path fill-rule="evenodd" clip-rule="evenodd" d="M219 351H185V350H219V351Z" fill="black"/>
<path fill-rule="evenodd" clip-rule="evenodd" d="M248.883 123.328L249.955 123.507C265.815 126.156 274.894 139.308 277.462 145.56L277.878 146.57L266.528 142.779L264.114 154.877L263.507 153.167C258.954 140.331 247.852 135.467 242.918 134.643L242.941 133.654L254.289 132.295L248.883 123.328ZM250.874 124.693L255.945 133.105L245.745 134.325C251.226 136.098 259.57 141.008 263.826 151.213L265.77 141.471L276.086 144.917C273.157 138.695 264.796 127.506 250.874 124.693Z" fill="black"/>
<path fill-rule="evenodd" clip-rule="evenodd" d="M278.51 205.16L277.879 206.044C268.546 219.138 252.744 221.532 246 221.1L244.909 221.031L253.292 212.492L243.477 205.019L245.28 205.223C258.813 206.757 268.051 198.911 270.955 194.837L271.834 195.292L268.08 206.087L278.51 205.16ZM276.41 206.35L266.627 207.22L270.002 197.518C266.006 201.667 257.934 207.014 246.897 206.366L254.8 212.383L247.181 220.145C254.057 220.24 267.779 217.631 276.41 206.35Z" fill="black"/>
<path fill-rule="evenodd" clip-rule="evenodd" d="M229.011 230.147L229.4 231.161C233.823 242.672 228.667 253.782 225.536 257.912L224.877 258.783L222.947 249.727L213.776 252.924L214.941 251.533C221.585 243.606 220.487 234.468 219.128 230.932L219.992 230.449L225.172 237.242L229.011 230.147ZM228.841 232.562L225.315 239.079L220.765 233.112C221.601 237.421 221.433 244.385 216.763 250.824L223.689 248.41L225.389 256.389C228.295 251.998 232.154 242.492 228.841 232.562Z" fill="black"/>
<path fill-rule="evenodd" clip-rule="evenodd" d="M469 469H43V468H469V469Z" fill="black"/>
</svg>
