<svg width="512" height="512" viewBox="0 0 512 512" fill="none" xmlns="http://www.w3.org/2000/svg">
<path d="M278 148C278 161.807 266.807 173 253 173C239.193 173 228 161.807 228 148C228 134.193 239.193 123 253 123C266.807 123 278 134.193 278 148Z" fill="black"/>
<path fill-rule="evenodd" clip-rule="evenodd" d="M253 172C266.255 172 277 161.255 277 148C277 134.745 266.255 124 253 124C239.745 124 229 134.745 229 148C229 161.255 239.745 172 253 172ZM253 173C266.807 173 278 161.807 278 148C278 134.193 266.807 123 253 123C239.193 123 228 134.193 228 148C228 161.807 239.193 173 253 173Z" fill="black"/>
<path d="M283 143C283 156.807 271.807 168 258 168C244.193 168 233 156.807 233 143C233 129.193 244.193 118 258 118C271.807 118 283 129.193 283 143Z" fill="white"/>
<path fill-rule="evenodd" clip-rule="evenodd" d="M258 167C271.255 167 282 156.255 282 143C282 129.745 271.255 119 258 119C244.745 119 234 129.745 234 143C234 156.255 244.745 167 258 167ZM258 168C271.807 168 283 156.807 283 143C283 129.193 271.807 118 258 118C244.193 118 233 129.193 233 143C233 156.807 244.193 168 258 168Z" fill="black"/>
<path fill-rule="evenodd" clip-rule="evenodd" d="M251.83 133.21L252.002 152.969L269.028 142.94L251.83 133.21ZM252.845 134.933L252.987 151.228L267.028 142.958L252.845 134.933Z" fill="black"/>
<path fill-rule="evenodd" clip-rule="evenodd" d="M67.5 153.5H176.5V255.5H67.5V153.5ZM68.5 154.5V254.5H175.5V154.5H68.5Z" fill="black"/>
<path d="M316.5 223.5L355 235.5L359 262L290.5 221C293.5 216.832 301.898 211.524 307 213.832C311.886 216.042 313.076 221.788 316.5 223.5Z" fill="white"/>
<path fill-rule="evenodd" clip-rule="evenodd" d="M297.738 214.54C300.886 212.963 304.441 212.126 307.206 213.376C309.785 214.543 311.37 216.637 312.709 218.568C312.847 218.767 312.982 218.964 313.115 219.158C313.636 219.916 314.125 220.629 314.644 221.26C315.283 222.036 315.936 222.65 316.689 223.035L355.448 235.116L359.653 262.973L289.776 221.15L290.094 220.708C291.65 218.546 294.568 216.129 297.738 214.54ZM291.236 220.858L358.347 261.027L354.552 235.884L316.313 223.965L316.276 223.947C315.332 223.475 314.563 222.735 313.872 221.895C313.322 221.227 312.801 220.468 312.278 219.705C312.148 219.516 312.018 219.326 311.887 219.137C310.553 217.214 309.101 215.331 306.794 214.287C304.457 213.23 301.263 213.893 298.186 215.434C295.349 216.856 292.749 218.958 291.236 220.858Z" fill="black"/>
<path d="M162 276.5H342.5V292H252.25H162V276.5Z" fill="white"/>
<path fill-rule="evenodd" clip-rule="evenodd" d="M161.5 276H343V292.5H252.75V468H251.75V292.5H161.5V276ZM162.5 277V291.5H342V277H162.5Z" fill="black"/>
<path d="M442 364V341V237.5H418V341H333L332 364H410.5H442Z" fill="white"/>
<path fill-rule="evenodd" clip-rule="evenodd" d="M417.5 237H442.5V364.5H411V468.5H410V364.5H331.478L332.521 340.5H417.5V237ZM418.5 238V341.5H333.479L332.522 363.5H441.5V238H418.5Z" fill="black"/>
<path d="M390.799 195.9C387.043 198.902 381.785 203.104 372.772 201.903C363.933 220.607 357.809 240.476 354.583 260.91L348.735 297.948H399.196V305.546C406.011 305.546 410.959 300.481 412.582 297.948C410.178 239.121 397.058 205.405 390.799 195.9Z" fill="#1064E1"/>
<path fill-rule="evenodd" clip-rule="evenodd" d="M390.915 195.168L390.487 195.51C386.744 198.501 381.631 202.579 372.838 201.408L372.476 201.359L372.32 201.69C363.461 220.437 357.322 240.351 354.089 260.832L348.15 298.448H398.696V306.046H399.196C402.731 306.046 405.769 304.733 408.12 303.108C410.468 301.487 412.157 299.539 413.003 298.218L413.088 298.085L413.081 297.928C410.676 239.055 397.546 205.237 391.216 195.626L390.915 195.168ZM399.696 298.448H411.618C410.741 299.596 409.354 301.041 407.552 302.286C405.434 303.749 402.766 304.921 399.696 305.037V298.448ZM412.061 297.448C409.642 239.909 396.961 206.606 390.678 196.637C386.981 199.58 381.737 203.474 373.069 202.445C364.334 221.01 358.276 240.72 355.077 260.988L349.32 297.448H412.061Z" fill="black"/>
<path d="M399.196 305.546C406.011 305.546 410.959 300.481 412.582 297.948H399.196V305.546Z" fill="black"/>
<path d="M371.615 247.279L387.028 232.677L374.86 208.34L357.013 229.432L371.615 247.279Z" fill="#1064E1"/>
<path fill-rule="evenodd" clip-rule="evenodd" d="M357.663 229.437L375.241 208.663L374.478 208.017L356.362 229.426L371.568 248.011L387.372 233.04L386.684 232.314L371.661 246.546L357.663 229.437Z" fill="black"/>
<path d="M350.117 468.5V444.266H329.766C330.876 454.573 307.564 450.247 297.388 468.5H350.117Z" fill="white"/>
<path fill-rule="evenodd" clip-rule="evenodd" d="M329.209 443.766H350.617V469H296.537L296.951 468.256C302.135 458.958 310.667 455.425 317.641 452.932C318.197 452.734 318.742 452.542 319.273 452.355C322.102 451.359 324.552 450.497 326.346 449.407C327.402 448.766 328.189 448.069 328.684 447.257C329.172 446.456 329.397 445.509 329.269 444.319L329.209 443.766ZM330.301 444.766C330.335 445.915 330.068 446.908 329.537 447.778C328.93 448.774 327.999 449.573 326.865 450.261C324.973 451.41 322.402 452.315 319.579 453.308C319.053 453.493 318.518 453.681 317.977 453.874C311.224 456.288 303.278 459.597 298.254 468H349.617V444.766H330.301Z" fill="black"/>
<path d="M278.73 468.5V444.266H258.378C259.488 454.573 236.176 450.247 226 468.5H278.73Z" fill="white"/>
<path fill-rule="evenodd" clip-rule="evenodd" d="M257.821 443.766H279.23V469H225.149L225.563 468.256C230.747 458.958 239.279 455.425 246.253 452.932C246.809 452.734 247.354 452.542 247.885 452.355C250.714 451.359 253.164 450.497 254.959 449.407C256.014 448.766 256.801 448.069 257.296 447.257C257.784 446.456 258.009 445.509 257.881 444.319L257.821 443.766ZM258.913 444.766C258.947 445.915 258.68 446.908 258.15 447.778C257.542 448.774 256.611 449.573 255.478 450.261C253.585 451.41 251.015 452.315 248.191 453.308C247.665 453.493 247.13 453.681 246.589 453.874C239.836 456.288 231.89 459.597 226.866 468H278.23V444.766H258.913Z" fill="black"/>
<path d="M357.013 229.432L371.615 247.279L343.871 271.346C340.052 274.659 335.166 276.483 330.11 276.483L308 276.483L278.5 276.483C281.5 271.797 286.299 264.047 293.5 264.426C303 264.926 303.5 263.926 310.5 261.926L333 253.926L357.013 229.432Z" fill="white"/>
<path fill-rule="evenodd" clip-rule="evenodd" d="M357.046 228.683L372.309 247.338L344.198 271.723C340.288 275.115 335.286 276.983 330.11 276.983L277.586 276.983L278.079 276.213C278.143 276.113 278.209 276.01 278.275 275.907C279.744 273.61 281.659 270.614 284.071 268.202C286.593 265.679 289.724 263.727 293.526 263.927C298.262 264.176 300.713 264.049 302.839 263.623C303.906 263.41 304.902 263.12 306.078 262.754C306.338 262.673 306.607 262.588 306.887 262.5C307.867 262.191 308.986 261.839 310.347 261.45L332.724 253.494L357.046 228.683ZM356.979 230.18L333.276 254.359L310.653 262.403L310.637 262.407C309.283 262.794 308.176 263.143 307.193 263.452C306.911 263.541 306.639 263.626 306.375 263.708C305.192 264.077 304.156 264.38 303.036 264.604C300.787 265.054 298.238 265.176 293.474 264.926C290.075 264.747 287.206 266.48 284.778 268.909C282.606 271.082 280.84 273.758 279.414 275.983L330.11 275.983C335.045 275.983 339.815 274.202 343.543 270.968L370.92 247.219L356.979 230.18Z" fill="black"/>
<path d="M372.771 201.903C381.785 203.104 387.043 198.902 390.799 195.9C389.296 193.619 385.142 187.004 385.142 181.504C385.91 171.422 382.77 164.475 378.435 160.717C372.703 155.747 364.88 156.355 361.24 162.67C355.572 172.502 361.862 199.554 374.671 190.594C374.845 194.886 373.58 199.682 372.771 201.903Z" fill="white"/>
<path fill-rule="evenodd" clip-rule="evenodd" d="M369.104 157.959C366.137 158.263 363.414 159.901 361.673 162.92C360.318 165.271 359.653 168.707 359.646 172.442C359.639 176.168 360.286 180.133 361.497 183.51C362.714 186.903 364.473 189.626 366.635 190.969C367.706 191.634 368.877 191.962 370.148 191.871C371.425 191.78 372.839 191.265 374.384 190.184L375.133 189.66L375.17 190.573C375.334 194.603 374.259 199.04 373.447 201.481C381.6 202.36 386.51 198.68 390.131 195.793C389.337 194.568 388.07 192.51 386.954 190.121C385.717 187.473 384.642 184.364 384.642 181.505V181.486L384.643 181.467C385.402 171.504 382.297 164.726 378.108 161.094C375.334 158.689 372.079 157.654 369.104 157.959ZM369.002 156.964C372.282 156.628 375.805 157.774 378.763 160.339C383.241 164.221 386.413 171.332 385.642 181.523C385.647 184.159 386.647 187.1 387.86 189.698C389.071 192.292 390.47 194.493 391.216 195.625L391.467 196.006L391.101 196.299C387.332 199.311 381.931 203.628 372.705 202.399L372.089 202.317L372.302 201.732C373.042 199.698 374.17 195.468 374.187 191.505C372.808 192.337 371.483 192.779 370.219 192.869C368.718 192.975 367.34 192.583 366.108 191.818C363.665 190.302 361.804 187.327 360.556 183.848C359.303 180.354 358.639 176.272 358.646 172.44C358.654 168.618 359.329 164.985 360.807 162.42C362.707 159.125 365.714 157.301 369.002 156.964Z" fill="black"/>
<path d="M378.599 180.474C381.05 182.374 381.935 181.894 385.142 181.505C385.91 171.422 382.77 164.475 378.436 160.717C365.736 149.868 341.354 161.564 354.062 169.732C355.126 170.415 356.46 170.49 357.687 170.186C366.696 167.951 370.771 170.491 374.317 178.409C374.363 178.537 374.415 178.654 374.472 178.76C374.421 178.642 374.369 178.525 374.317 178.409C373.795 176.966 373.99 174.271 374.793 173.463C379.214 169.013 381.473 177.266 378.599 180.474Z" fill="black"/>
<path fill-rule="evenodd" clip-rule="evenodd" d="M350.49 166.773C351.068 167.962 352.154 169.1 353.792 170.153C355.004 170.931 356.491 170.997 357.807 170.671C362.263 169.566 365.39 169.671 367.82 170.934C370.252 172.199 372.097 174.68 373.853 178.597C373.905 178.738 373.964 178.873 374.033 178.999L374.93 178.56C374.881 178.446 374.831 178.334 374.781 178.222C374.557 177.592 374.477 176.645 374.556 175.742C374.596 175.291 374.674 174.871 374.783 174.524C374.896 174.168 375.028 173.936 375.147 173.816C376.196 172.761 376.993 172.579 377.535 172.715C378.099 172.857 378.615 173.396 378.967 174.282C379.313 175.152 379.457 176.263 379.342 177.347C379.226 178.432 378.855 179.439 378.227 180.14L377.869 180.54L378.293 180.869C379.561 181.852 380.487 182.268 381.55 182.347C382.064 182.385 382.591 182.343 383.172 182.271C383.434 182.239 383.713 182.2 384.009 182.159L384.109 182.145C384.445 182.099 384.806 182.049 385.202 182.001L385.609 181.951L385.64 181.543C386.417 171.341 383.244 164.223 378.763 160.339L378.76 160.336L378.76 160.336C372.224 154.753 362.737 154.994 356.525 157.633C353.43 158.948 351.014 160.915 350.249 163.193C349.86 164.352 349.907 165.572 350.49 166.773ZM373.553 175.738C372.077 173.064 370.414 171.156 368.281 170.047C365.535 168.619 362.119 168.571 357.566 169.7C356.43 169.982 355.247 169.899 354.333 169.311C352.793 168.322 351.862 167.308 351.39 166.336C350.923 165.376 350.889 164.427 351.197 163.511C351.826 161.638 353.917 159.827 356.916 158.553C362.893 156.014 371.946 155.831 378.109 161.096C382.24 164.678 385.317 171.32 384.672 181.06C384.424 181.092 384.191 181.124 383.971 181.155L383.873 181.169C383.574 181.21 383.304 181.248 383.05 181.279C382.487 181.348 382.038 181.38 381.624 181.349C380.924 181.297 380.266 181.063 379.31 180.381C379.901 179.537 380.225 178.494 380.336 177.453C380.467 176.225 380.309 174.95 379.896 173.912C379.49 172.89 378.792 172 377.779 171.745C376.743 171.485 375.601 171.941 374.438 173.111C374.156 173.394 373.963 173.801 373.83 174.223C373.693 174.654 373.604 175.149 373.56 175.654C373.558 175.682 373.555 175.71 373.553 175.738Z" fill="black"/>
<path d="M399.061 304V297.948H321.183C302.061 297.948 287.819 315.598 291.86 334.288L292 334.935L241.819 444.266H289.681L305.905 399.243L315.64 444.266H364.719L340.383 341H362.061C382.496 341 399.061 324.434 399.061 304Z" fill="white"/>
<path fill-rule="evenodd" clip-rule="evenodd" d="M399.561 297.448H321.183C301.742 297.448 287.263 315.392 291.372 334.394L291.476 334.877L241.039 444.766H290.032L305.785 401.052L315.237 444.766H365.351L341.014 341.5H362.061C382.772 341.5 399.561 324.711 399.561 304V297.448ZM305.386 399.208L289.33 443.766H242.599L291.828 336.507L305.386 399.208ZM398.561 298.448V304C398.561 324.158 382.22 340.5 362.061 340.5H339.751L364.088 443.766H316.044L292.349 334.183C288.375 315.804 302.379 298.448 321.183 298.448H398.561Z" fill="black"/>
<path d="M213.5 232L234 276.5H295L270.5 232H213.5Z" fill="white"/>
<path fill-rule="evenodd" clip-rule="evenodd" d="M212.719 231.5H270.795L295.295 276H342.5V277H162V276H233.219L212.719 231.5ZM234.32 276H294.154L270.205 232.5H214.281L234.32 276Z" fill="black"/>
<path fill-rule="evenodd" clip-rule="evenodd" d="M469 469H43V468H469V469Z" fill="black"/>
<path d="M106.532 142.975C108.232 148.206 108.007 150.267 107.283 152.9C111.038 155.902 116.296 160.104 125.31 158.903C123.582 156.5 120.46 152.52 119.299 148.384C134.25 152.948 131.873 125.276 123.444 117.677C118.031 112.796 110.403 114.634 106.487 121.133C103.525 126.046 102.686 133.624 106.532 142.975Z" fill="white"/>
<path fill-rule="evenodd" clip-rule="evenodd" d="M114.509 115.626C117.424 114.998 120.521 115.714 123.109 118.048C125.125 119.866 126.818 122.928 127.98 126.478C129.138 130.019 129.748 133.99 129.639 137.577C129.53 141.179 128.699 144.313 127.057 146.258C126.245 147.221 125.233 147.894 123.995 148.201C122.753 148.509 121.249 148.456 119.445 147.906L118.571 147.639L118.818 148.519C119.883 152.316 122.552 155.971 124.322 158.394C124.349 158.431 124.376 158.468 124.403 158.505C116.315 159.297 111.448 155.584 107.851 152.714C108.172 151.494 108.379 150.336 108.316 148.89C108.247 147.328 107.864 145.457 107.008 142.821L107.002 142.803L106.995 142.785C103.194 133.545 104.053 126.139 106.915 121.391C108.81 118.246 111.586 116.256 114.509 115.626ZM114.299 114.649C111.075 115.343 108.079 117.521 106.058 120.874C102.999 125.95 102.179 133.694 106.063 143.148C106.901 145.733 107.254 147.502 107.317 148.934C107.379 150.358 107.156 151.475 106.801 152.768L106.713 153.085L106.981 153.299C110.749 156.31 116.151 160.628 125.376 159.399L126.203 159.289L125.716 158.611C125.533 158.356 125.335 158.086 125.127 157.8C123.487 155.551 121.193 152.405 120.049 149.103C121.614 149.467 123.009 149.476 124.236 149.172C125.697 148.809 126.887 148.011 127.822 146.903C129.676 144.705 130.527 141.302 130.639 137.607C130.751 133.896 130.121 129.81 128.93 126.167C127.742 122.534 125.977 119.287 123.779 117.305C120.954 114.758 117.53 113.953 114.299 114.649Z" fill="black"/>
<path d="M110.436 140.974C109 143 108.5 143 106.532 142.976C102.687 133.624 103.525 126.046 106.487 121.133C116.511 104.5 134.082 124 127.582 124C116.789 124.277 113.846 127.486 112.871 136.683C112.867 136.82 112.854 136.949 112.832 137.068C112.845 136.939 112.858 136.81 112.871 136.683C112.92 135.149 111.902 132.649 110.89 132.13C105.31 129.264 106.712 138.811 110.436 140.974Z" fill="black"/>
<path fill-rule="evenodd" clip-rule="evenodd" d="M127.588 124.5C128.049 124.499 128.459 124.413 128.788 124.211C129.131 124 129.348 123.685 129.439 123.313C129.608 122.618 129.331 121.775 128.872 120.966C127.93 119.306 125.958 117.329 123.481 115.896C120.999 114.46 117.946 113.534 114.841 114.071C111.716 114.611 108.624 116.617 106.059 120.874C102.998 125.954 102.179 133.703 106.07 143.166L106.196 143.471L106.526 143.475C106.55 143.476 106.574 143.476 106.598 143.476C107.511 143.488 108.234 143.497 108.89 143.199C109.574 142.888 110.124 142.278 110.844 141.263L111.161 140.816L110.687 140.541C109.873 140.068 109.144 139.161 108.6 138.056C108.059 136.956 107.729 135.716 107.673 134.64C107.616 133.533 107.854 132.743 108.272 132.373C108.636 132.052 109.337 131.894 110.662 132.574C110.812 132.652 111.01 132.832 111.227 133.135C111.438 133.43 111.642 133.806 111.818 134.221C112.173 135.055 112.389 135.98 112.372 136.649C112.359 136.771 112.346 136.895 112.334 137.019L113.323 137.159C113.35 137.017 113.365 136.869 113.37 136.718C113.856 132.151 114.822 129.22 116.879 127.368C118.944 125.509 122.218 124.638 127.588 124.5ZM112.76 133.881C113.344 130.681 114.354 128.295 116.21 126.625C118.558 124.512 122.15 123.639 127.569 123.5L127.582 123.5L127.582 123.5C127.932 123.5 128.143 123.433 128.265 123.359C128.373 123.292 128.436 123.205 128.467 123.076C128.542 122.77 128.433 122.219 128.003 121.46C127.165 119.984 125.336 118.125 122.98 116.762C120.629 115.402 117.816 114.572 115.011 115.056C112.225 115.538 109.361 117.332 106.915 121.391L106.487 121.133L106.915 121.391C104.085 126.086 103.214 133.381 106.87 142.479C107.671 142.484 108.098 142.46 108.477 142.288C108.832 142.127 109.187 141.811 109.726 141.099C108.889 140.464 108.205 139.519 107.703 138.497C107.107 137.288 106.738 135.915 106.675 134.692C106.613 133.5 106.838 132.306 107.61 131.624C108.437 130.893 109.653 130.932 111.119 131.685C111.474 131.867 111.783 132.194 112.04 132.554C112.303 132.921 112.54 133.364 112.739 133.83C112.746 133.847 112.753 133.864 112.76 133.881Z" fill="black"/>
<path d="M247.038 156.439L218.082 182.5C215.282 185.02 216.248 189.217 217.082 191L248.818 158.287C249.258 157.834 249.303 157.128 248.924 156.623C248.471 156.02 247.599 155.934 247.038 156.439Z" fill="white"/>
<path fill-rule="evenodd" clip-rule="evenodd" d="M249.324 156.323C248.695 155.485 247.483 155.366 246.704 156.067L217.747 182.128C216.211 183.511 215.724 185.345 215.719 187.025C215.715 188.698 216.186 190.265 216.629 191.212L216.936 191.869L249.177 158.635C249.788 158.005 249.85 157.025 249.324 156.323ZM247.373 156.811C247.715 156.503 248.248 156.555 248.524 156.923C248.755 157.231 248.728 157.662 248.459 157.939L217.257 190.102C216.965 189.273 216.716 188.173 216.719 187.027C216.723 185.533 217.153 184.009 218.416 182.872L247.373 156.811Z" fill="black"/>
<path d="M125.31 158.903C116.296 160.104 111.039 155.902 107.283 152.9C101.023 162.405 87.9036 196.121 85.5 254.948H98.8852H156.582L151.313 221.574C147.736 198.918 138.823 177.437 125.31 158.903Z" fill="white"/>
<path fill-rule="evenodd" clip-rule="evenodd" d="M107.167 152.168L107.595 152.51C111.338 155.501 116.45 159.579 125.244 158.408L125.539 158.368L125.714 158.609C139.274 177.206 148.217 198.762 151.807 221.496L157.167 255.448H84.9791L85.0004 254.928C87.4058 196.055 100.536 162.237 106.865 152.626L107.167 152.168ZM107.404 153.637C101.121 163.606 88.44 196.909 86.0211 254.448H155.997L150.819 221.652C147.27 199.172 138.449 177.852 125.08 159.437C116.371 160.494 111.11 156.587 107.404 153.637Z" fill="black"/>
<path fill-rule="evenodd" clip-rule="evenodd" d="M120.94 173.651L120.223 174.349L138.384 193.001L123.07 208.793L108.429 194.64L107.734 195.359L123.093 210.206L139.779 192.999L120.94 173.651Z" fill="black"/>
<path d="M123.082 209.5L139.082 193L156.082 208.5L194.582 200.5C195.415 196.5 201.282 187.3 218.082 182.5C215.082 195 220.773 206.5 203.582 214.5L165.425 232.256C157.977 235.722 149.167 234.281 143.212 228.623L123.082 209.5Z" fill="white"/>
<path fill-rule="evenodd" clip-rule="evenodd" d="M218.768 181.784L217.944 182.019C201.442 186.734 195.28 195.706 194.167 200.075L156.23 207.958L139.06 192.304L122.371 209.515L142.867 228.986C148.972 234.785 158.002 236.262 165.636 232.71L203.793 214.953C208.141 212.93 211.077 210.668 213.068 208.196C215.06 205.721 216.081 203.064 216.644 200.287C217.152 197.774 217.288 195.147 217.426 192.476C217.439 192.21 217.453 191.942 217.467 191.675C217.624 188.715 217.83 185.693 218.568 182.617L218.768 181.784ZM217.407 183.219C216.798 186.101 216.612 188.92 216.469 191.622C216.455 191.888 216.441 192.152 216.427 192.415C216.289 195.1 216.157 197.653 215.663 200.088C215.125 202.749 214.158 205.247 212.289 207.569C210.417 209.894 207.618 212.07 203.371 214.047L165.214 231.803C157.952 235.182 149.363 233.777 143.556 228.261L123.792 209.485L139.103 193.696L155.933 209.041L195.004 200.923L195.071 200.602C195.843 196.899 201.353 188.043 217.407 183.219Z" fill="black"/>
<path d="M93.0817 109C98.6817 99.8 105.415 112.833 108.082 120.5C109.415 121.5 110.782 123.7 105.582 124.5C99.0817 125.5 86.0817 120.5 93.0817 109Z" fill="black"/>
<path d="M394 80C394 100.435 410.565 117 431 117C451.435 117 468 100.435 468 80C468 59.5655 451.435 43 431 43C410.565 43 394 59.5655 394 80Z" fill="#FF7626"/>
<path fill-rule="evenodd" clip-rule="evenodd" d="M431 116C411.118 116 395 99.8823 395 80C395 60.1177 411.118 44 431 44C450.882 44 467 60.1177 467 80C467 99.8823 450.882 116 431 116ZM431 117C410.565 117 394 100.435 394 80C394 59.5655 410.565 43 431 43C451.435 43 468 59.5655 468 80C468 100.435 451.435 117 431 117Z" fill="black"/>
<path d="M388.5 102.5C395.3 89.7001 425 91.5001 431.5 107.5H320C337.5 71.5001 381.5 84.5001 388.5 102.5Z" fill="white"/>
<path fill-rule="evenodd" clip-rule="evenodd" d="M377.05 91.0552C382.373 94.2075 386.338 98.3194 388.034 102.681L388.43 103.698L388.942 102.735C390.566 99.6761 393.578 97.455 397.343 96.1018C401.105 94.7492 405.583 94.2785 410.066 94.6978C418.792 95.514 427.357 99.6736 430.738 107H320.806C329.51 89.774 344.453 84.2746 358.152 85.2487C365.106 85.7432 371.734 87.9073 377.05 91.0552ZM358.223 84.2513C343.985 83.2388 328.401 89.0732 319.55 107.281L319.201 108H432.243L431.963 107.312C428.613 99.0661 419.338 94.5608 410.159 93.7022C405.555 93.2715 400.926 93.7508 397.004 95.1607C393.436 96.4436 390.422 98.5092 388.571 101.39C386.598 97.1129 382.636 93.2011 377.559 90.1948C372.11 86.9677 365.332 84.7568 358.223 84.2513Z" fill="black"/>
<path d="M124.937 76.0628C119.57 65.9836 96.13 67.401 91 80H179C165.188 51.6523 130.462 61.8889 124.937 76.0628Z" fill="white"/>
<path fill-rule="evenodd" clip-rule="evenodd" d="M134.027 67.1424C129.838 69.6173 126.73 72.8392 125.403 76.2443L125.008 77.2588L124.496 76.2977C123.23 73.9195 120.878 72.1844 117.923 71.1247C114.97 70.0656 111.452 69.6958 107.926 70.0248C101.118 70.6602 94.4617 73.8729 91.7678 79.4999H178.191C171.332 66.1006 159.631 61.8229 148.896 62.5845C143.424 62.9727 138.209 64.6719 134.027 67.1424ZM148.826 61.587C160.099 60.7872 172.442 65.3988 179.45 79.7809L179.8 80.4999H90.2566L90.537 79.8114C93.2021 73.2661 100.57 69.707 107.833 69.0292C111.48 68.6888 115.149 69.0672 118.261 70.1834C121.027 71.1755 123.382 72.7622 124.866 74.9732C126.461 71.6464 129.568 68.6157 133.519 66.2814C137.834 63.732 143.199 61.9862 148.826 61.587Z" fill="black"/>
<path d="M70.5 430.5V327L98 363H211V430.5H70.5Z" fill="white"/>
<path fill-rule="evenodd" clip-rule="evenodd" d="M125 255V283H71V326.831L98.2472 362.5H211.5V431H70V282H124V255H125ZM71 328.478V430H210.5V363.5H97.7528L71 328.478Z" fill="black"/>
<path fill-rule="evenodd" clip-rule="evenodd" d="M102.5 406C107.194 406 111 402.194 111 397.5C111 392.806 107.194 389 102.5 389C97.8056 389 94 392.806 94 397.5C94 402.194 97.8056 406 102.5 406ZM102.5 407C107.747 407 112 402.747 112 397.5C112 392.253 107.747 388 102.5 388C97.2533 388 93 392.253 93 397.5C93 402.747 97.2533 407 102.5 407Z" fill="black"/>
<path fill-rule="evenodd" clip-rule="evenodd" d="M142.5 406C147.194 406 151 402.194 151 397.5C151 392.806 147.194 389 142.5 389C137.806 389 134 392.806 134 397.5C134 402.194 137.806 406 142.5 406ZM142.5 407C147.747 407 152 402.747 152 397.5C152 392.253 147.747 388 142.5 388C137.253 388 133 392.253 133 397.5C133 402.747 137.253 407 142.5 407Z" fill="black"/>
<path fill-rule="evenodd" clip-rule="evenodd" d="M182.5 406C187.194 406 191 402.194 191 397.5C191 392.806 187.194 389 182.5 389C177.806 389 174 392.806 174 397.5C174 402.194 177.806 406 182.5 406ZM182.5 407C187.747 407 192 402.747 192 397.5C192 392.253 187.747 388 182.5 388C177.253 388 173 392.253 173 397.5C173 402.747 177.253 407 182.5 407Z" fill="black"/>
</svg>
