<svg width="512" height="512" viewBox="0 0 512 512" fill="none" xmlns="http://www.w3.org/2000/svg">
<path d="M211 370V347H320L321 370H266.5H211Z" fill="black"/>
<path fill-rule="evenodd" clip-rule="evenodd" d="M320.479 346.5H210.5V370.5H321.522L320.479 346.5ZM319.521 347.5L320.478 369.5H211.5V347.5H319.521Z" fill="black"/>
<path d="M218.5 308C218.5 302 219.167 292.333 220.5 289.5H299C300.5 295.5 300 304.5 301 312L258.5 343L218.5 308Z" fill="#FF7626"/>
<path fill-rule="evenodd" clip-rule="evenodd" d="M220.183 289H299.39L299.485 289.379C300.249 292.434 300.5 296.232 300.687 300.164C300.716 300.77 300.743 301.38 300.771 301.991C300.922 305.364 301.075 308.782 301.496 311.934L301.535 312.229L258.472 343.64L218 308.227L218 308C218 304.985 218.167 301.052 218.502 297.515C218.67 295.747 218.88 294.071 219.133 292.654C219.384 291.25 219.684 290.059 220.048 289.287L220.183 289ZM220.83 290C220.573 290.657 220.332 291.627 220.117 292.83C219.87 294.21 219.664 295.857 219.498 297.61C219.174 301.026 219.008 304.82 219 307.773L258.528 342.36L300.466 311.771C300.068 308.654 299.918 305.294 299.771 302.026C299.744 301.417 299.717 300.812 299.688 300.211C299.508 296.435 299.272 292.88 298.606 290H220.83Z" fill="black"/>
<path d="M213.278 468.5C213.285 457 220.278 444 220.278 444H240.63C239.519 454.307 252.285 453 253.007 468.5H213.278Z" fill="white"/>
<path fill-rule="evenodd" clip-rule="evenodd" d="M241.186 443.5H219.979L219.837 443.763L220.278 444C219.837 443.763 219.837 443.763 219.837 443.763L219.832 443.774L219.816 443.803C219.802 443.829 219.782 443.867 219.756 443.917C219.704 444.017 219.628 444.164 219.531 444.355C219.338 444.737 219.062 445.295 218.732 445.999C218.072 447.407 217.192 449.404 216.312 451.763C214.555 456.471 212.781 462.662 212.778 468.5L212.777 469H253.531L253.507 468.477C253.323 464.528 252.369 461.625 251.045 459.332C249.725 457.046 248.05 455.392 246.47 453.935C246.254 453.736 246.041 453.541 245.831 453.349C244.488 452.122 243.282 451.021 242.409 449.718C241.422 448.246 240.862 446.512 241.127 444.054L241.186 443.5ZM220.58 444.5H240.085C239.931 446.915 240.54 448.726 241.578 450.275C242.525 451.687 243.83 452.878 245.166 454.097C245.375 454.287 245.584 454.478 245.792 454.67C247.356 456.113 248.938 457.682 250.18 459.832C251.36 461.876 252.245 464.468 252.478 468H213.782C213.883 462.483 215.559 456.642 217.249 452.112C218.118 449.784 218.987 447.812 219.638 446.423C219.963 445.729 220.234 445.181 220.423 444.807C220.485 444.686 220.537 444.583 220.58 444.5Z" fill="black"/>
<path d="M204 363V340H313L314 363H259.5H204Z" fill="white"/>
<path fill-rule="evenodd" clip-rule="evenodd" d="M313.479 339.5H203.5V363.5H314.522L313.479 339.5ZM312.521 340.5L313.478 362.5H204.5V340.5H312.521Z" fill="black"/>
<path d="M259 444H303L303 320C303 307.85 293.15 298 281 298C268.85 298 259 307.85 259 320V444Z" fill="white"/>
<path fill-rule="evenodd" clip-rule="evenodd" d="M303.5 320C303.5 307.574 293.426 297.5 281 297.5C268.574 297.5 258.5 307.574 258.5 320V444.5H303.5L303.5 320ZM281 298.5C292.874 298.5 302.5 308.126 302.5 320L302.5 443.5H259.5V320C259.5 308.126 269.126 298.5 281 298.5Z" fill="black"/>
<path d="M204 444H248.333L258.094 321.856C259.121 309 248.965 298 236.068 298C224.547 298 214.959 306.852 214.042 318.336L204 444Z" fill="white"/>
<path fill-rule="evenodd" clip-rule="evenodd" d="M258.592 321.896C259.643 308.749 249.257 297.5 236.068 297.5C224.286 297.5 214.482 306.552 213.543 318.296L203.458 444.5H248.795L258.592 321.896ZM236.068 298.5C248.673 298.5 258.599 309.251 257.595 321.816L247.872 443.5H204.542L214.54 318.376C215.437 307.152 224.807 298.5 236.068 298.5Z" fill="black"/>
<path d="M225.47 258.674L220.201 290.048H299.659L294.39 258.674C293.336 251.999 291.819 245.426 289.858 239H310.472L302.997 221.261C298.519 210.636 289.571 202.537 278.554 199.139L270.388 196.821C262.023 200.387 255.834 197.743 251.413 195.854L241.306 199.139C230.289 202.537 221.341 210.636 216.863 221.261L209.388 239H230.002C228.041 245.426 226.524 251.999 225.47 258.674Z" fill="#FF7626"/>
<path fill-rule="evenodd" clip-rule="evenodd" d="M251.436 195.321L251.609 195.394C256.015 197.276 262.031 199.84 270.192 196.361L270.355 196.292L278.701 198.661C289.859 202.103 298.923 210.306 303.457 221.066L311.226 239.5H290.532C292.405 245.741 293.862 252.12 294.884 258.593C294.884 258.594 294.884 258.595 294.884 258.596L300.25 290.548H219.61L224.976 258.596C224.976 258.595 224.976 258.594 224.976 258.594C225.998 252.12 227.455 245.742 229.328 239.5H208.634L216.403 221.066C220.937 210.307 229.999 202.105 241.156 198.662C241.157 198.662 241.158 198.661 241.159 198.661L251.436 195.321ZM229.632 238.5C230.765 234.823 232.043 231.195 233.462 227.623L234.391 227.992C232.936 231.653 231.631 235.374 230.48 239.146C228.526 245.549 227.014 252.1 225.964 258.752L225.963 258.757L220.792 289.548H299.068L293.897 258.757L293.896 258.752C292.846 252.1 291.334 245.549 289.38 239.146C288.229 235.374 286.924 231.653 285.469 227.992L286.398 227.623C287.817 231.195 289.095 234.823 290.228 238.5H309.719L302.536 221.455C298.117 210.968 289.285 202.974 278.412 199.618L270.421 197.35C262.044 200.853 255.788 198.266 251.389 196.388L241.454 199.617C230.578 202.971 221.744 210.967 217.324 221.455L210.141 238.5H229.632Z" fill="black"/>
<path d="M230.002 239H209.388L203.335 256.819C200.472 265.25 206.741 274 215.645 274H264.5C262.917 268.461 259.83 262.844 255 261.387C250.674 260.083 244.752 262.709 240.5 262L226 259L230.002 239Z" fill="white"/>
<path fill-rule="evenodd" clip-rule="evenodd" d="M209.029 238.5H230.612L226.588 258.611L240.592 261.508C242.438 261.814 244.63 261.461 246.968 261.085C247.192 261.049 247.417 261.012 247.644 260.976C250.179 260.574 252.855 260.218 255.144 260.908C257.705 261.681 259.767 263.544 261.379 265.879C262.992 268.215 264.179 271.058 264.981 273.863L265.163 274.5H215.645C206.398 274.5 199.888 265.414 202.862 256.658L209.029 238.5ZM209.746 239.5L203.809 256.98C201.055 265.087 207.083 273.5 215.645 273.5H263.83C263.057 270.981 261.971 268.495 260.556 266.447C259.022 264.224 257.126 262.55 254.856 261.866C252.819 261.252 250.371 261.556 247.801 261.964C247.568 262.001 247.334 262.039 247.1 262.077C244.803 262.448 242.438 262.83 240.418 262.493L240.408 262.492L225.412 259.389L229.392 239.5H209.746Z" fill="black"/>
<path d="M289.998 239H310.612L316.665 256.819C319.528 265.25 313.259 274 304.355 274H255.5C257.083 268.461 260.17 262.844 265 261.387C269.326 260.083 275.248 262.709 279.5 262L294 259L289.998 239Z" fill="white"/>
<path fill-rule="evenodd" clip-rule="evenodd" d="M310.971 238.5H289.388L293.412 258.611L279.408 261.508C277.562 261.814 275.37 261.461 273.032 261.085C272.808 261.049 272.583 261.012 272.356 260.976C269.821 260.574 267.145 260.218 264.856 260.908C262.295 261.681 260.233 263.544 258.621 265.879C257.008 268.215 255.821 271.058 255.019 273.863L254.837 274.5H304.355C313.602 274.5 320.112 265.414 317.138 256.658L310.971 238.5ZM310.254 239.5L316.191 256.98C318.945 265.087 312.917 273.5 304.355 273.5H256.17C256.943 270.981 258.029 268.495 259.444 266.447C260.978 264.224 262.874 262.55 265.144 261.866C267.181 261.252 269.629 261.556 272.199 261.964C272.432 262.001 272.666 262.039 272.9 262.077C275.197 262.448 277.562 262.83 279.582 262.493L279.592 262.492L294.588 259.389L290.608 239.5H310.254Z" fill="black"/>
<path d="M270.388 196.821C262.023 200.387 255.834 197.743 251.413 195.854C252.251 193.254 254.486 185.77 253.017 180.47L265.536 186.43C266.515 190.613 269.016 194.897 270.388 196.821Z" fill="white"/>
<path fill-rule="evenodd" clip-rule="evenodd" d="M252.242 179.547L252.535 180.604C253.24 183.148 253.063 186.257 252.587 189.092C252.113 191.915 251.353 194.41 250.937 195.701L250.797 196.135L251.228 196.319C255.664 198.214 262.023 200.93 270.584 197.281L271.157 197.037L270.795 196.531C269.443 194.635 266.981 190.412 266.023 186.316L265.968 186.082L252.242 179.547ZM265.105 186.779C266.056 190.629 268.218 194.503 269.624 196.595C262.003 199.62 256.288 197.386 252.027 195.573C252.465 194.179 253.136 191.858 253.573 189.258C253.998 186.727 254.208 183.887 253.736 181.366L265.105 186.779Z" fill="black"/>
<path d="M268.98 160.012C275.961 168.96 271.5 189.104 259.566 189.533C255.307 189.687 248.954 184.91 247.444 178.02C246.267 172.646 247.91 164.796 251.68 160.471C256.665 154.752 264.496 154.266 268.98 160.012Z" fill="white"/>
<path fill-rule="evenodd" clip-rule="evenodd" d="M260.537 156.442C263.517 156.33 266.442 157.573 268.586 160.32C271.946 164.627 272.593 171.719 270.884 177.833C269.174 183.956 265.191 188.831 259.548 189.034C257.592 189.104 255.059 188.031 252.805 186.043C250.563 184.067 248.662 181.24 247.933 177.913C247.364 175.314 247.472 172.085 248.194 168.965C248.917 165.844 250.241 162.883 252.057 160.8C254.469 158.032 257.549 156.554 260.537 156.442ZM260.499 155.442C257.204 155.566 253.876 157.191 251.303 160.143C249.349 162.384 247.967 165.511 247.22 168.74C246.473 171.97 246.348 175.352 246.956 178.127C247.737 181.691 249.766 184.697 252.143 186.793C254.508 188.878 257.281 190.116 259.584 190.033C265.875 189.807 270.089 184.395 271.848 178.102C273.608 171.8 272.994 164.345 269.374 159.705C267.034 156.706 263.802 155.318 260.499 155.442Z" fill="black"/>
<path d="M257 148C234.776 148 237.707 166.5 248.5 166.5C252.5 166.5 263.4 162.8 267 164C270.6 165.2 269.5 171.167 268.5 174C271.7 170.4 271.099 175.167 270.5 179C270.5 179 272.029 179.675 272.282 179C277.221 165.866 278.139 148 257 148Z" fill="black"/>
<path d="M370.002 212H349.388L346 220.5L323 208C319.5 206 317 201.5 312.5 199.204C308.882 197.357 299.968 197.532 297 200.5L343.83 241.874C346.784 244.484 350.758 245.624 354.648 244.975C359.982 244.086 364.221 240.007 365.314 234.711L370.002 212Z" fill="white"/>
<path fill-rule="evenodd" clip-rule="evenodd" d="M300.017 198.308C298.668 198.725 297.469 199.324 296.646 200.146L296.27 200.523L343.499 242.248C346.566 244.959 350.692 246.142 354.73 245.469C360.268 244.546 364.669 240.311 365.804 234.812L370.616 211.5H349.049L345.744 219.792L323.244 207.563C321.725 206.694 320.396 205.329 318.932 203.824C318.783 203.672 318.634 203.518 318.483 203.363C316.857 201.7 315.057 199.947 312.727 198.758C310.803 197.777 307.566 197.361 304.476 197.548C302.92 197.641 301.373 197.889 300.017 198.308ZM304.536 198.546C307.549 198.364 310.578 198.784 312.273 199.649C314.443 200.756 316.143 202.401 317.767 204.062C317.921 204.22 318.074 204.377 318.227 204.535C319.67 206.019 321.101 207.491 322.752 208.434L322.761 208.439L346.256 221.208L349.727 212.5H369.388L364.825 234.609C363.773 239.704 359.696 243.627 354.565 244.482C350.825 245.106 347.003 244.01 344.161 241.499L297.756 200.501C298.402 199.999 299.277 199.584 300.313 199.264C301.576 198.873 303.04 198.636 304.536 198.546Z" fill="black"/>
<path d="M409.5 163C405.744 166.001 400.486 170.203 391.472 169.003L381.306 172.139C370.289 175.537 361.341 183.636 356.863 194.261L349.388 212H370.002C368.041 218.426 366.524 224.999 365.47 231.674L360.201 265.048H417.897V272.646C424.712 272.646 429.765 267.58 431.388 265.048C430.458 242.305 427.822 223.315 424.705 208.026L439.5 202.898L432.507 183.21C429.221 173.957 421.745 166.808 412.354 163.938L409.5 163Z" fill="#1064E1"/>
<path fill-rule="evenodd" clip-rule="evenodd" d="M409.399 162.44L409.187 162.609C405.445 165.6 400.332 169.678 391.538 168.507L391.43 168.493L381.159 171.661C370.001 175.103 360.937 183.306 356.403 194.066L348.634 212.5H369.328C367.454 218.742 365.998 225.121 364.976 231.596L359.616 265.548H417.397V273.146H417.897C421.431 273.146 424.495 271.832 426.871 270.209C429.244 268.589 430.961 266.641 431.809 265.317L431.894 265.185L431.887 265.027C430.966 242.469 428.366 223.595 425.282 208.355L440.14 203.205L432.978 183.042C429.639 173.642 422.045 166.378 412.505 163.462L409.399 162.44ZM424.329 208.686C427.367 223.735 429.931 242.339 430.867 264.548H360.786L365.964 231.752C367.014 225.1 368.526 218.549 370.48 212.146C371.631 208.374 372.936 204.653 374.391 200.992L373.462 200.623C372.043 204.194 370.765 207.823 369.632 211.5H350.141L357.324 194.455C361.744 183.966 370.578 175.971 381.454 172.616L391.516 169.513C400.512 170.672 405.857 166.549 409.6 163.559L412.208 164.417C421.447 167.24 428.803 174.273 432.036 183.377L438.86 202.59L418.079 209.794L408.85 185.452L407.915 185.806L417.489 211.057L424.329 208.686ZM430.421 265.548C429.538 266.694 428.131 268.138 426.307 269.384C424.164 270.848 421.47 272.02 418.397 272.136V265.548H430.421Z" fill="black"/>
<path d="M417.897 272.646C424.712 272.646 429.765 267.58 431.388 265.048H417.897V272.646Z" fill="black"/>
<path fill-rule="evenodd" clip-rule="evenodd" d="M432.302 264.548H417.397V273.146H417.897C421.431 273.146 424.495 271.832 426.871 270.209C429.244 268.589 430.961 266.641 431.809 265.317L432.302 264.548ZM430.421 265.548C429.538 266.694 428.131 268.138 426.307 269.384C424.164 270.848 421.47 272.02 418.397 272.136V265.548H430.421Z" fill="black"/>
<path d="M424.705 208.026L417.784 210.426L419.5 215.5L388 229C384.612 230.129 378.5 226.905 375 228.714C370.865 230.852 366.903 238.373 368 245.5L432.697 230.474C439.745 228.837 444.1 221.76 442.386 214.73L439.5 202.898L424.705 208.026Z" fill="white"/>
<path fill-rule="evenodd" clip-rule="evenodd" d="M439.856 202.246L417.151 210.116L418.878 215.223L387.823 228.532C387.081 228.774 386.155 228.792 385.083 228.68C384.186 228.586 383.23 228.408 382.238 228.223C382.037 228.185 381.835 228.148 381.632 228.11C380.438 227.891 379.206 227.686 378.045 227.655C376.884 227.623 375.751 227.764 374.77 228.27C372.568 229.409 370.479 231.933 369.082 235.031C367.68 238.141 366.94 241.9 367.506 245.576L367.588 246.109L432.81 230.961C440.129 229.261 444.652 221.912 442.871 214.612L439.856 202.246ZM439.144 203.55L441.9 214.849C443.548 221.608 439.361 228.413 432.584 229.987L368.422 244.889C368.036 241.606 368.725 238.255 369.994 235.442C371.337 232.464 373.297 230.158 375.23 229.159C375.999 228.761 376.942 228.625 378.018 228.654C379.093 228.683 380.257 228.875 381.452 229.094C381.648 229.13 381.845 229.167 382.042 229.204C383.034 229.389 384.038 229.576 384.98 229.675C386.107 229.792 387.209 229.791 388.158 229.474L388.178 229.468L420.122 215.778L418.417 210.736L439.144 203.55Z" fill="black"/>
<path d="M411.55 152.975C409.85 158.206 410.075 160.267 410.799 162.9C407.043 165.902 401.785 170.104 392.772 168.903C394.5 166.5 397.622 162.52 398.782 158.384C383.832 162.948 386.209 135.276 394.638 127.677C400.051 122.796 407.679 124.634 411.595 131.133C414.556 136.046 415.395 143.624 411.55 152.975Z" fill="white"/>
<path fill-rule="evenodd" clip-rule="evenodd" d="M403.573 125.626C400.657 124.998 397.561 125.714 394.973 128.048C392.957 129.866 391.263 132.928 390.102 136.478C388.944 140.019 388.334 143.99 388.443 147.577C388.552 151.179 389.383 154.313 391.024 156.258C391.837 157.221 392.849 157.894 394.086 158.201C395.328 158.509 396.832 158.456 398.636 157.906L399.511 157.639L399.264 158.519C398.198 162.316 395.53 165.971 393.76 168.394C393.733 168.431 393.706 168.468 393.679 168.505C401.767 169.297 406.634 165.584 410.231 162.714C409.91 161.494 409.703 160.336 409.766 158.89C409.834 157.328 410.217 155.457 411.074 152.821L411.08 152.803L411.087 152.785C414.887 143.545 414.029 136.139 411.167 131.391C409.272 128.246 406.496 126.256 403.573 125.626ZM403.783 124.649C407.006 125.343 410.003 127.521 412.023 130.874C415.083 135.95 415.902 143.694 412.019 153.148C411.18 155.733 410.828 157.502 410.765 158.934C410.703 160.358 410.926 161.475 411.281 162.768L411.368 163.085L411.101 163.299C407.333 166.31 401.931 170.628 392.706 169.399L391.879 169.289L392.366 168.611C392.549 168.356 392.747 168.086 392.954 167.8C394.595 165.551 396.889 162.405 398.033 159.103C396.468 159.467 395.073 159.476 393.846 159.172C392.384 158.809 391.195 158.011 390.26 156.903C388.406 154.705 387.555 151.302 387.443 147.607C387.331 143.896 387.961 139.81 389.152 136.167C390.34 132.534 392.105 129.287 394.303 127.305C397.128 124.758 400.552 123.953 403.783 124.649Z" fill="black"/>
<path d="M405.645 149.974C407.389 152.538 408.378 152.355 411.549 152.976C415.395 143.624 414.556 136.046 411.595 131.133C401.571 114.5 384 134 390.5 134C401.284 134.277 401.317 137.481 402.21 146.659C402.213 146.805 402.226 146.942 402.25 147.068C402.236 146.931 402.223 146.794 402.21 146.659C402.172 145.123 403.185 142.647 404.192 142.13C409.772 139.264 409.37 147.811 405.645 149.974Z" fill="black"/>
<path fill-rule="evenodd" clip-rule="evenodd" d="M390.493 134.5C390.033 134.499 389.623 134.413 389.294 134.211C388.95 134 388.734 133.685 388.643 133.313C388.474 132.618 388.75 131.775 389.209 130.966C390.151 129.306 392.123 127.329 394.601 125.896C397.083 124.46 400.135 123.534 403.241 124.071C406.366 124.611 409.457 126.617 412.023 130.874C415.084 135.954 415.903 143.703 412.012 153.166L411.856 153.545L411.453 153.466C411.061 153.389 410.703 153.325 410.369 153.266C410.336 153.26 410.303 153.254 410.27 153.248C409.975 153.196 409.698 153.146 409.439 153.096C408.864 152.984 408.35 152.861 407.873 152.666C406.886 152.263 406.134 151.582 405.232 150.255L404.93 149.811L405.394 149.541C406.209 149.068 406.872 148.225 407.318 147.229C407.762 146.234 407.969 145.133 407.909 144.198C407.848 143.246 407.523 142.574 407.031 142.266C406.558 141.969 405.743 141.895 404.42 142.574C404.27 142.651 404.074 142.83 403.858 143.131C403.648 143.423 403.445 143.796 403.269 144.208C402.915 145.036 402.697 145.957 402.709 146.629L402.747 147.019L401.758 147.159C401.73 147.008 401.715 146.85 401.71 146.69C401.689 146.467 401.668 146.248 401.647 146.033C401.453 144.028 401.291 142.352 401.028 140.939C400.737 139.374 400.33 138.191 399.662 137.289C398.349 135.515 395.879 134.639 390.493 134.5ZM402.415 143.666C402.299 142.601 402.174 141.631 402.011 140.756C401.709 139.131 401.266 137.774 400.466 136.694C398.843 134.502 395.906 133.638 390.513 133.5L390.5 133.5L390.5 133.5C390.15 133.5 389.939 133.433 389.817 133.359C389.709 133.292 389.646 133.205 389.615 133.076C389.54 132.77 389.648 132.219 390.079 131.46C390.917 129.984 392.745 128.125 395.101 126.762C397.452 125.402 400.266 124.572 403.071 125.056C405.857 125.538 408.72 127.332 411.167 131.391L411.595 131.133L411.167 131.391C413.989 136.074 414.863 143.343 411.24 152.407C410.994 152.361 410.762 152.32 410.544 152.281L410.446 152.264C410.149 152.211 409.88 152.163 409.63 152.114C409.073 152.006 408.636 151.898 408.251 151.741C407.602 151.475 407.048 151.048 406.35 150.104C407.173 149.485 407.803 148.593 408.231 147.637C408.734 146.51 408.978 145.248 408.907 144.134C408.836 143.037 408.448 141.974 407.562 141.418C406.658 140.851 405.43 140.931 403.963 141.685C403.61 141.866 403.302 142.191 403.046 142.548C402.812 142.873 402.599 143.258 402.415 143.666Z" fill="black"/>
<path d="M361.378 444.266C362.488 454.573 339.176 460.247 339 468.5H384.73C384.554 460.247 381.242 454.573 382.352 444.266H361.378Z" fill="white"/>
<path fill-rule="evenodd" clip-rule="evenodd" d="M360.821 443.766H382.909L382.849 444.319C382.301 449.404 382.843 453.345 383.55 457.06C383.682 457.755 383.82 458.444 383.959 459.133C384.559 462.117 385.157 465.093 385.229 468.489L385.24 469H338.489L338.5 468.489C338.549 466.192 340.198 464.164 342.404 462.299C344.291 460.705 346.688 459.147 349.105 457.577C349.536 457.297 349.968 457.016 350.397 456.735C353.257 454.863 356.026 452.958 358.014 450.893C360.001 448.83 361.135 446.683 360.881 444.319L360.821 443.766ZM361.913 444.766C361.99 447.324 360.674 449.573 358.735 451.587C356.658 453.743 353.797 455.705 350.945 457.572C350.508 457.858 350.072 458.141 349.638 458.423C347.218 459.996 344.884 461.513 343.05 463.063C341.073 464.734 339.795 466.35 339.544 468H384.215C384.099 464.912 383.551 462.184 382.984 459.362C382.844 458.665 382.703 457.962 382.567 457.247C381.877 453.619 381.332 449.723 381.799 444.766H361.913Z" fill="black"/>
<path d="M435.378 444.266C436.488 454.573 413.176 460.247 413 468.5H458.73C458.554 460.247 455.242 454.573 456.352 444.266H435.378Z" fill="white"/>
<path fill-rule="evenodd" clip-rule="evenodd" d="M434.821 443.766H456.909L456.849 444.319C456.301 449.404 456.843 453.345 457.55 457.06C457.682 457.755 457.82 458.444 457.959 459.133C458.559 462.117 459.157 465.093 459.229 468.489L459.24 469H412.489L412.5 468.489C412.549 466.192 414.198 464.164 416.404 462.299C418.291 460.705 420.688 459.147 423.105 457.577C423.536 457.297 423.968 457.016 424.397 456.735C427.257 454.863 430.026 452.958 432.014 450.893C434.001 448.83 435.135 446.683 434.881 444.319L434.821 443.766ZM435.913 444.766C435.99 447.324 434.674 449.573 432.735 451.587C430.658 453.743 427.797 455.705 424.945 457.572C424.508 457.858 424.072 458.141 423.638 458.423C421.218 459.996 418.884 461.513 417.05 463.063C415.073 464.734 413.795 466.35 413.544 468H458.215C458.099 464.912 457.551 462.184 456.984 459.362C456.844 458.665 456.703 457.962 456.567 457.247C455.877 453.619 455.332 449.723 455.799 444.766H435.913Z" fill="black"/>
<path d="M421 265H373.5H361.5L344.819 444.266H392.681L400.065 370.5L418.64 444.266H467.719L421 265Z" fill="white"/>
<path fill-rule="evenodd" clip-rule="evenodd" d="M421.386 264.5H361.044L344.27 444.766H393.133L400.278 373.393L418.25 444.766H468.366L421.386 264.5ZM399.559 370.537L392.229 443.766H345.367L361.956 265.5H373.11L399.559 370.537ZM374.141 265.5H420.613L467.072 443.766H419.03L374.141 265.5Z" fill="black"/>
<path d="M425 119C419.4 109.8 412.667 122.833 410 130.5C408.667 131.5 407.3 133.7 412.5 134.5C419 135.5 432 130.5 425 119Z" fill="black"/>
<path d="M118.961 233.808H136L151.5 281.5L130.052 281.361L127.418 264.674C125.743 254.067 122.899 243.718 118.961 233.808Z" fill="white"/>
<path fill-rule="evenodd" clip-rule="evenodd" d="M118.224 233.308H136.363L152.19 282.005L129.625 281.858L126.924 264.752C125.255 254.182 122.421 243.868 118.496 233.992L118.224 233.308ZM119.696 234.308C123.508 244.043 126.27 254.196 127.912 264.596L130.48 280.864L150.81 280.996L135.637 234.308H119.696Z" fill="black"/>
<path d="M52 372V344H161L162 372H107.5H52Z" fill="black"/>
<path fill-rule="evenodd" clip-rule="evenodd" d="M161.482 343.5H51.5V372.5H162.518L161.482 343.5ZM160.518 344.5L161.482 371.5H52.5V344.5H160.518Z" fill="black"/>
<path d="M59 364V341H168L169 364H114.5H59Z" fill="white"/>
<path fill-rule="evenodd" clip-rule="evenodd" d="M168.479 340.5H58.5V364.5H114V468.5H115V364.5H169.522L168.479 340.5ZM167.521 341.5L168.478 363.5H59.5V341.5H167.521Z" fill="black"/>
<path d="M123.883 468.5V444.266H144.234C143.124 454.573 166.436 450.247 176.612 468.5H123.883Z" fill="white"/>
<path fill-rule="evenodd" clip-rule="evenodd" d="M144.791 443.766H123.383V469H177.464L177.049 468.256C171.865 458.958 163.333 455.425 156.359 452.932C155.803 452.734 155.258 452.542 154.727 452.355C151.898 451.359 149.449 450.497 147.654 449.407C146.599 448.766 145.811 448.069 145.317 447.257C144.828 446.456 144.604 445.509 144.732 444.319L144.791 443.766ZM143.699 444.766C143.665 445.915 143.932 446.908 144.463 447.778C145.07 448.774 146.001 449.573 147.135 450.261C149.027 451.41 151.598 452.315 154.421 453.308C154.947 453.493 155.482 453.681 156.023 453.874C162.776 456.288 170.722 459.597 175.746 468H124.383V444.766H143.699Z" fill="black"/>
<path d="M206.27 468.5L200.27 444.266H220.622C219.512 454.573 248.824 450.247 259 468.5H206.27Z" fill="white"/>
<path fill-rule="evenodd" clip-rule="evenodd" d="M221.179 443.766H199.632L205.879 469H259.851L259.437 468.256C254.239 458.933 244.17 455.409 235.72 452.924C234.937 452.693 234.17 452.473 233.422 452.257C230.092 451.299 227.144 450.45 224.937 449.384C223.592 448.734 222.575 448.026 221.927 447.207C221.293 446.406 220.995 445.477 221.119 444.319L221.179 443.766ZM220.092 444.766C220.079 445.944 220.453 446.955 221.143 447.828C221.925 448.817 223.096 449.605 224.502 450.284C226.793 451.391 229.848 452.27 233.182 453.229C233.922 453.442 234.676 453.659 235.438 453.883C243.671 456.304 253.04 459.62 258.13 468H206.662L200.909 444.766H220.092Z" fill="black"/>
<path d="M74.9385 304V298H152.814C171.937 298 186.179 315.652 182.136 334.342L182.005 334.947L232.181 444.266H184.319L168.097 399.249L158.359 444.266H109.28L133.617 341H111.938C91.5039 341 74.9385 324.435 74.9385 304Z" fill="white"/>
<path fill-rule="evenodd" clip-rule="evenodd" d="M74.4385 297.5H152.814C172.256 297.5 186.735 315.446 182.625 334.448L182.529 334.89L232.96 444.766H183.967L168.217 401.058L158.763 444.766H108.649L132.986 341.5H111.938C91.2278 341.5 74.4385 324.711 74.4385 304V297.5ZM168.616 399.214L184.67 443.766H231.401L182.177 336.519L168.616 399.214ZM75.4385 298.5V304C75.4385 324.158 91.7801 340.5 111.938 340.5H134.249L109.912 443.766H157.956L181.647 334.237C185.623 315.857 171.619 298.5 152.814 298.5H75.4385Z" fill="black"/>
<path d="M101.228 202.903C92.2147 204.104 86.9567 199.902 83.201 196.9C84.7033 194.619 88.858 188.004 88.858 182.504C88.09 172.422 91.2296 165.475 95.5643 161.717C101.297 156.747 109.12 157.355 112.76 163.67C118.428 173.502 112.137 200.554 99.3289 191.594C99.1544 195.886 100.42 200.682 101.228 202.903Z" fill="white"/>
<path fill-rule="evenodd" clip-rule="evenodd" d="M104.896 158.959C107.862 159.263 110.586 160.901 112.326 163.92C113.682 166.271 114.346 169.707 114.353 173.442C114.361 177.168 113.714 181.133 112.502 184.51C111.285 187.903 109.526 190.626 107.364 191.969C106.294 192.634 105.123 192.962 103.851 192.871C102.575 192.78 101.161 192.265 99.6155 191.184L98.8664 190.66L98.8293 191.573C98.6655 195.603 99.7403 200.04 100.552 202.481C92.4001 203.36 87.4898 199.68 83.8683 196.793C84.6626 195.568 85.9301 193.51 87.0459 191.121C88.2825 188.473 89.3579 185.364 89.3579 182.505V182.486L89.3565 182.467C88.5977 172.504 91.7031 165.726 95.8919 162.094C98.6662 159.689 101.921 158.654 104.896 158.959ZM104.998 157.964C101.718 157.628 98.195 158.774 95.2368 161.339C90.7589 165.221 87.5863 172.332 88.3579 182.523C88.3532 185.159 87.3532 188.1 86.1398 190.698C84.9284 193.292 83.5295 195.493 82.7835 196.625L82.5326 197.006L82.8992 197.299C86.6673 200.311 92.0692 204.628 101.294 203.399L101.911 203.317L101.698 202.732C100.958 200.698 99.83 196.468 99.8128 192.505C101.191 193.337 102.517 193.779 103.78 193.869C105.282 193.975 106.66 193.583 107.892 192.818C110.334 191.302 112.195 188.327 113.444 184.848C114.697 181.354 115.361 177.272 115.353 173.44C115.346 169.618 114.671 165.985 113.193 163.42C111.293 160.125 108.286 158.301 104.998 157.964Z" fill="black"/>
<path d="M95.4007 181.474C92.9502 183.374 92.0656 182.894 88.8582 182.505C88.0903 172.422 91.2298 165.475 95.5646 161.717C108.264 150.868 132.647 162.564 119.938 170.732C118.875 171.415 117.54 171.49 116.313 171.186C107.304 168.951 103.229 171.491 99.6832 179.409C99.6371 179.537 99.5854 179.654 99.5279 179.76C99.5796 179.642 99.6314 179.525 99.6832 179.409C100.205 177.966 100.01 175.271 99.2073 174.463C94.7858 170.013 92.5268 178.266 95.4007 181.474Z" fill="black"/>
<path fill-rule="evenodd" clip-rule="evenodd" d="M123.51 167.773C122.932 168.962 121.846 170.1 120.208 171.153C118.996 171.931 117.51 171.997 116.193 171.671C111.737 170.566 108.61 170.671 106.18 171.934C103.748 173.199 101.903 175.68 100.147 179.597C100.095 179.738 100.036 179.873 99.9673 179.999L99.0698 179.56C99.1195 179.446 99.1692 179.334 99.219 179.222C99.4426 178.592 99.5234 177.645 99.4439 176.742C99.4044 176.291 99.3265 175.871 99.2169 175.524C99.1043 175.168 98.9721 174.936 98.8527 174.816C97.8044 173.761 97.0068 173.579 96.4649 173.715C95.9012 173.857 95.385 174.396 95.0329 175.282C94.6868 176.152 94.5429 177.263 94.6585 178.347C94.7743 179.432 95.1447 180.439 95.7731 181.14L96.1314 181.54L95.7071 181.869C94.4392 182.852 93.5131 183.268 92.4502 183.347C91.9362 183.385 91.4093 183.343 90.8282 183.271C90.5663 183.239 90.2875 183.2 89.991 183.159L89.8909 183.145C89.5553 183.099 89.1943 183.049 88.798 183.001L88.3908 182.951L88.3597 182.543C87.5826 172.341 90.7564 165.223 95.2371 161.339L95.2398 161.336L95.2398 161.336C101.776 155.753 111.263 155.994 117.475 158.633C120.57 159.948 122.986 161.915 123.751 164.193C124.14 165.352 124.093 166.572 123.51 167.773ZM100.447 176.738C101.923 174.064 103.586 172.156 105.719 171.047C108.465 169.619 111.881 169.571 116.434 170.7C117.57 170.982 118.753 170.899 119.667 170.311C121.207 169.322 122.138 168.308 122.61 167.336C123.077 166.376 123.111 165.427 122.803 164.511C122.174 162.638 120.083 160.827 117.084 159.553C111.107 157.014 102.054 156.831 95.8908 162.096C91.7599 165.678 88.6831 172.32 89.3278 182.06C89.576 182.092 89.8091 182.124 90.0285 182.155L90.1272 182.169C90.4257 182.21 90.6964 182.248 90.9498 182.279C91.5132 182.348 91.962 182.38 92.3763 182.349C93.0757 182.297 93.7344 182.063 94.69 181.381C94.0989 180.537 93.7752 179.494 93.6641 178.453C93.5332 177.225 93.6914 175.95 94.1036 174.912C94.5096 173.89 95.2076 173 96.2213 172.745C97.2567 172.485 98.3995 172.941 99.562 174.111C99.8438 174.394 100.037 174.801 100.17 175.223C100.307 175.654 100.396 176.149 100.44 176.654C100.443 176.682 100.445 176.71 100.447 176.738Z" fill="black"/>
<path d="M83.3881 196C87.1438 199.001 92.4017 203.203 101.415 202.003L109.2 204.404C121.559 208.217 131.224 217.908 135.003 230.278L139.5 245H122.886C124.847 251.426 126.364 257.999 127.418 264.674L132.687 298.048H74.9905V305.646C68.1762 305.646 63.1224 300.58 61.5 298.048C62.4293 275.305 65.0654 256.315 68.1824 241.026L53.3877 235.898L60.3805 216.21C63.667 206.957 71.1431 199.808 80.5339 196.938L83.3881 196Z" fill="#1064E1"/>
<path fill-rule="evenodd" clip-rule="evenodd" d="M83.4889 195.44L83.7003 195.609C87.4431 198.6 92.5556 202.678 101.349 201.507L101.458 201.493L109.348 203.926C121.865 207.788 131.654 217.603 135.481 230.132L140.176 245.5H123.56C125.433 251.742 126.89 258.121 127.912 264.596L133.272 298.548H75.4904V306.146H74.9904C71.4567 306.146 68.393 304.832 66.0163 303.209C63.6433 301.589 61.9268 299.641 61.079 298.317L60.994 298.185L61.0004 298.027C61.9221 275.469 64.5213 256.595 67.6053 241.355L52.7479 236.205L59.9093 216.042C63.2483 206.642 70.8428 199.378 80.3827 196.462L83.4889 195.44ZM68.5588 241.686C65.5203 256.735 62.9564 275.339 62.0212 297.548H132.102L126.924 264.752C125.874 258.1 124.362 251.549 122.408 245.146C121.256 241.374 119.951 237.653 118.497 233.992L119.426 233.623C120.845 237.194 122.123 240.823 123.255 244.5H138.824L134.525 230.424C130.794 218.213 121.253 208.645 109.053 204.882L101.372 202.513C92.3759 203.672 87.0311 199.549 83.2873 196.559L80.68 197.417C71.4407 200.24 64.0852 207.273 60.8517 216.377L54.0275 235.59L74.8084 242.794L84.0375 218.452L84.9726 218.806L75.3989 244.057L68.5588 241.686ZM62.4663 298.548C63.3493 299.694 64.7564 301.138 66.5802 302.384C68.724 303.848 71.4179 305.02 74.4904 305.136V298.548H62.4663Z" fill="black"/>
<path d="M124.074 266H131L127.773 252.32L127.236 250.044C126.833 248.335 125.168 247.236 123.438 247.539C121.568 247.866 120.354 249.692 120.776 251.543L121.3 253.84L124.074 266Z" fill="white"/>
<path fill-rule="evenodd" clip-rule="evenodd" d="M127.723 249.929C127.259 247.962 125.342 246.698 123.352 247.046C121.2 247.423 119.803 249.525 120.289 251.654L123.675 266.5H131.632L127.723 249.929ZM123.524 248.031C124.993 247.774 126.407 248.707 126.75 250.159L127.172 251.948L121.676 253.238L121.264 251.432C120.905 249.86 121.936 248.309 123.524 248.031ZM121.898 254.213L127.401 252.921L130.368 265.5H124.473L121.898 254.213Z" fill="black"/>
<path d="M68.1824 241.026L75.1037 243.426L72 253L113 263C118 264 122.602 260.07 127 260.678C134.437 261.706 139.746 266.208 140.5 274H113H54.9118C47.2209 274 41.9041 266.309 44.621 259.114L53.3877 235.898L68.1824 241.026Z" fill="white"/>
<path fill-rule="evenodd" clip-rule="evenodd" d="M53.0918 235.266L75.7304 243.114L72.6417 252.642L113.108 262.512C115.458 262.978 117.735 262.296 120.066 261.512C120.22 261.461 120.374 261.408 120.529 261.356C122.669 260.631 124.884 259.881 127.068 260.183C130.868 260.708 134.158 262.126 136.6 264.44C139.047 266.758 140.61 269.947 140.998 273.952L141.051 274.5H54.9118C46.8713 274.5 41.3129 266.46 44.1533 258.937L53.0918 235.266ZM53.6836 236.53L45.0888 259.291C42.4954 266.159 47.5704 273.5 54.9118 273.5H139.941C139.491 269.974 138.058 267.199 135.912 265.166C133.652 263.024 130.569 261.676 126.932 261.174C124.991 260.905 122.993 261.58 120.784 262.325C120.652 262.37 120.519 262.415 120.385 262.46C118.069 263.238 115.549 264.02 112.902 263.49L112.892 263.488L71.3583 253.358L74.4769 243.738L53.6836 236.53Z" fill="black"/>
<path d="M74.9903 305.646C68.176 305.646 61 301.5 61.4998 298.048H74.9903V305.646Z" fill="black"/>
<path fill-rule="evenodd" clip-rule="evenodd" d="M61.067 297.548H75.4903V306.146H74.9903C71.4912 306.146 67.909 305.084 65.2552 303.576C63.9283 302.822 62.8101 301.943 62.0502 301.006C61.2937 300.073 60.8524 299.03 61.005 297.976L61.067 297.548ZM61.9813 298.548C62.0248 299.111 62.3021 299.729 62.8269 300.376C63.4849 301.188 64.4929 301.993 65.7493 302.707C68.1359 304.063 71.3346 305.043 74.4903 305.138V298.548H61.9813Z" fill="black"/>
<path d="M440 274H58V291H440V274Z" fill="white"/>
<path fill-rule="evenodd" clip-rule="evenodd" d="M440.5 273.5H57.5V291.5H440.5V273.5ZM439.5 274.5V290.5H58.5V274.5H439.5Z" fill="black"/>
<path d="M144 274C146.244 258.832 163.073 259.843 167 274H144Z" fill="white"/>
<path fill-rule="evenodd" clip-rule="evenodd" d="M147.648 265.244C145.595 267.152 144.08 270.044 143.505 273.927L143.421 274.5H167.658L167.482 273.866C165.47 266.612 160.115 262.636 154.882 262.503C152.266 262.437 149.701 263.335 147.648 265.244ZM166.331 273.5C164.292 267.01 159.433 263.619 154.856 263.503C152.493 263.443 150.184 264.251 148.329 265.976C146.569 267.612 145.193 270.095 144.588 273.5H166.331Z" fill="black"/>
<path d="M299.007 468.5C299 457 292.007 444 292.007 444H271.656C272.766 454.307 260 453 259.278 468.5H299.007Z" fill="white"/>
<path fill-rule="evenodd" clip-rule="evenodd" d="M271.099 443.5H292.306L292.448 443.763L292.007 444C292.448 443.763 292.448 443.763 292.448 443.763L292.454 443.774L292.469 443.803C292.483 443.829 292.503 443.867 292.529 443.917C292.581 444.017 292.657 444.164 292.754 444.355C292.947 444.737 293.223 445.295 293.553 445.999C294.213 447.407 295.093 449.404 295.973 451.763C297.73 456.471 299.504 462.662 299.507 468.5L299.508 469H258.754L258.778 468.477C258.962 464.528 259.916 461.625 261.24 459.332C262.56 457.046 264.236 455.392 265.815 453.935C266.031 453.736 266.244 453.541 266.454 453.349C267.797 452.122 269.003 451.021 269.876 449.718C270.864 448.246 271.423 446.512 271.159 444.054L271.099 443.5ZM291.705 444.5H272.2C272.354 446.915 271.745 448.726 270.707 450.275C269.761 451.687 268.455 452.878 267.119 454.097C266.911 454.287 266.701 454.478 266.493 454.67C264.929 456.113 263.347 457.682 262.106 459.832C260.925 461.876 260.04 464.468 259.807 468H298.503C298.402 462.483 296.726 456.642 295.036 452.112C294.167 449.784 293.299 447.812 292.647 446.423C292.322 445.729 292.051 445.181 291.862 444.807C291.801 444.686 291.748 444.583 291.705 444.5Z" fill="black"/>
<path d="M117 80C117 100.435 100.435 117 80 117C59.5655 117 43 100.435 43 80C43 59.5655 59.5655 43 80 43C100.435 43 117 59.5655 117 80Z" fill="#FF7626"/>
<path fill-rule="evenodd" clip-rule="evenodd" d="M80 116C99.8823 116 116 99.8823 116 80C116 60.1177 99.8823 44 80 44C60.1177 44 44 60.1177 44 80C44 99.8823 60.1177 116 80 116ZM80 117C100.435 117 117 100.435 117 80C117 59.5655 100.435 43 80 43C59.5655 43 43 59.5655 43 80C43 100.435 59.5655 117 80 117Z" fill="black"/>
<path d="M122.5 102.5C115.7 89.7001 86 91.5001 79.5 107.5H191C173.5 71.5001 129.5 84.5001 122.5 102.5Z" fill="white"/>
<path fill-rule="evenodd" clip-rule="evenodd" d="M133.95 91.0552C128.627 94.2075 124.662 98.3194 122.966 102.681L122.57 103.698L122.058 102.735C120.434 99.6761 117.422 97.455 113.657 96.1018C109.895 94.7492 105.417 94.2785 100.934 94.6978C92.2079 95.514 83.6426 99.6736 80.2616 107H190.194C181.49 89.774 166.547 84.2746 152.848 85.2487C145.894 85.7432 139.266 87.9073 133.95 91.0552ZM152.777 84.2513C167.015 83.2388 182.598 89.0732 191.45 107.281L191.799 108H78.7572L79.0368 107.312C82.3866 99.0661 91.6617 94.5608 100.841 93.7022C105.445 93.2715 110.074 93.7508 113.996 95.1607C117.564 96.4436 120.578 98.5092 122.429 101.39C124.402 97.1129 128.364 93.2011 133.441 90.1948C138.89 86.9677 145.668 84.7568 152.777 84.2513Z" fill="black"/>
<path d="M354.937 86.0628C349.57 75.9836 326.13 77.401 321 90H409C395.188 61.6523 360.462 71.8889 354.937 86.0628Z" fill="white"/>
<path fill-rule="evenodd" clip-rule="evenodd" d="M364.027 77.1424C359.838 79.6173 356.73 82.8392 355.403 86.2443L355.008 87.2588L354.496 86.2977C353.23 83.9195 350.878 82.1844 347.923 81.1247C344.97 80.0656 341.452 79.6958 337.926 80.0248C331.118 80.6602 324.462 83.8729 321.768 89.4999H408.191C401.332 76.1006 389.631 71.8229 378.896 72.5845C373.424 72.9727 368.209 74.6719 364.027 77.1424ZM378.826 71.587C390.099 70.7872 402.442 75.3988 409.449 89.7809L409.8 90.4999H320.257L320.537 89.8114C323.202 83.2661 330.57 79.707 337.833 79.0292C341.48 78.6888 345.149 79.0672 348.261 80.1834C351.027 81.1755 353.382 82.7622 354.866 84.9732C356.461 81.6464 359.568 78.6157 363.519 76.2814C367.834 73.732 373.199 71.9862 378.826 71.587Z" fill="black"/>
<path fill-rule="evenodd" clip-rule="evenodd" d="M469 469H43V468H469V469Z" fill="black"/>
</svg>
