<svg width="512" height="512" viewBox="0 0 512 512" fill="none" xmlns="http://www.w3.org/2000/svg">
<path d="M200 170H376V293H200V170Z" fill="black"/>
<path fill-rule="evenodd" clip-rule="evenodd" d="M375 171H201V292H375V171ZM200 170V293H376V170H200Z" fill="black"/>
<path d="M210 158H386V281H210V158Z" fill="white"/>
<path fill-rule="evenodd" clip-rule="evenodd" d="M385 159H211V280H385V159ZM210 158V281H386V158H210Z" fill="black"/>
<path d="M253.333 195.978L292.267 194.61C296.031 194.478 298.251 198.168 298.89 200.03L253.337 198.544C252.706 198.523 252.183 198.047 252.105 197.42C252.011 196.672 252.58 196.005 253.333 195.978Z" fill="white"/>
<path fill-rule="evenodd" clip-rule="evenodd" d="M251.609 197.482C251.479 196.442 252.269 195.515 253.316 195.478L292.249 194.11C294.315 194.037 295.939 195.018 297.109 196.224C298.274 197.424 299.024 198.879 299.363 199.867L299.599 200.553L253.32 199.043C252.443 199.015 251.718 198.353 251.609 197.482ZM253.351 196.478C252.891 196.494 252.544 196.901 252.601 197.358C252.649 197.741 252.968 198.031 253.353 198.044L298.141 199.505C297.775 198.706 297.19 197.742 296.392 196.92C295.351 195.848 293.983 195.05 292.284 195.109L253.351 196.478Z" fill="black"/>
<path d="M362.002 212H341.388L338 220.5L313 204.5C310 189.5 289.5 192.5 278.5 195C290.5 201 292.5 212 303 214L335.822 242.008C338.788 244.539 342.72 245.63 346.567 244.989C351.95 244.092 356.227 239.976 357.331 234.63L362.002 212Z" fill="white"/>
<path fill-rule="evenodd" clip-rule="evenodd" d="M307.601 196.743C310.011 198.457 311.784 200.971 312.51 204.598L312.551 204.806L338.24 221.247L341.727 212.5H361.388L356.841 234.529C355.78 239.672 351.664 243.632 346.484 244.496C342.784 245.112 339 244.063 336.146 241.627L303.224 213.534L303.094 213.509C298.026 212.543 294.999 209.419 291.687 205.669C291.469 205.422 291.249 205.172 291.028 204.92C288.132 201.624 284.928 197.978 279.938 195.194C285.314 194.041 292.436 192.945 298.691 193.684C302.08 194.084 305.177 195.02 307.601 196.743ZM298.809 192.691C291.844 191.868 283.898 193.26 278.389 194.512L277.026 194.822L278.276 195.447C283.794 198.206 287.159 202.033 290.291 205.596C290.507 205.842 290.723 206.088 290.938 206.331C294.224 210.051 297.422 213.402 302.775 214.466L335.497 242.388C338.575 245.015 342.657 246.147 346.649 245.482C352.236 244.551 356.675 240.279 357.82 234.731L362.616 211.5H341.049L337.76 219.752L313.447 204.192C312.646 200.43 310.754 197.759 308.18 195.928C305.573 194.074 302.295 193.103 298.809 192.691Z" fill="black"/>
<path d="M401.5 163C397.744 166.001 392.486 170.203 383.472 169.003L373.306 172.139C362.289 175.537 353.341 183.636 348.863 194.261L341.388 212H362.002C360.041 218.426 358.524 224.999 357.47 231.674L352.201 265.048H409.897V272.646C416.712 272.646 421.765 267.58 423.388 265.048C422.458 242.305 419.822 223.315 416.705 208.026L431.5 202.898L424.507 183.21C421.221 173.957 413.745 166.808 404.354 163.938L401.5 163Z" fill="#FF7626"/>
<path fill-rule="evenodd" clip-rule="evenodd" d="M401.399 162.44L401.187 162.609C397.445 165.6 392.332 169.678 383.538 168.507L383.43 168.493L373.159 171.661C362.001 175.103 352.937 183.306 348.403 194.066L340.634 212.5H361.328C359.454 218.742 357.998 225.121 356.976 231.596L351.616 265.548H409.397V273.146H409.897C413.431 273.146 416.495 271.832 418.871 270.209C421.244 268.589 422.961 266.641 423.809 265.317L423.894 265.185L423.887 265.027C422.966 242.469 420.366 223.595 417.282 208.355L432.14 203.205L424.978 183.042C421.639 173.642 414.045 166.378 404.505 163.462L401.399 162.44ZM416.329 208.686C419.367 223.735 421.931 242.339 422.867 264.548H352.786L357.964 231.752C359.014 225.1 360.526 218.549 362.48 212.146C363.631 208.374 364.936 204.653 366.391 200.992L365.462 200.623C364.043 204.194 362.765 207.823 361.632 211.5H342.141L349.324 194.455C353.744 183.966 362.578 175.971 373.454 172.616L383.516 169.513C392.512 170.672 397.857 166.549 401.6 163.559L404.208 164.417C413.447 167.24 420.803 174.273 424.036 183.377L430.86 202.59L410.079 209.794L400.85 185.452L399.915 185.806L409.489 211.057L416.329 208.686ZM422.421 265.548C421.538 266.694 420.131 268.138 418.307 269.384C416.164 270.848 413.47 272.02 410.397 272.136V265.548H422.421Z" fill="black"/>
<path d="M409.897 272.646C416.712 272.646 421.765 267.58 423.388 265.048H409.897V272.646Z" fill="black"/>
<path fill-rule="evenodd" clip-rule="evenodd" d="M424.302 264.548H409.397V273.146H409.897C413.431 273.146 416.495 271.832 418.871 270.209C421.244 268.589 422.961 266.641 423.809 265.317L424.302 264.548ZM422.421 265.548C421.538 266.694 420.131 268.138 418.307 269.384C416.164 270.848 413.47 272.02 410.397 272.136V265.548H422.421Z" fill="black"/>
<path d="M416.705 208.026L409.784 210.426L411.5 215.5L377 230C373.612 231.129 367.407 227.953 364 229.714C359.865 231.852 359.904 238.373 361 245.5L424.742 230.502C431.771 228.848 436.106 221.783 434.395 214.767L431.5 202.898L416.705 208.026Z" fill="white"/>
<path fill-rule="evenodd" clip-rule="evenodd" d="M431.856 202.246L409.151 210.116L410.877 215.219L376.824 229.532C376.081 229.775 375.149 229.795 374.068 229.687C373.151 229.595 372.172 229.416 371.159 229.23C370.972 229.196 370.785 229.162 370.596 229.128C369.396 228.912 368.162 228.709 367.007 228.675C365.853 228.641 364.729 228.775 363.77 229.27C361.491 230.449 360.422 232.812 360.042 235.671C359.663 238.532 359.956 242.001 360.506 245.576L360.588 246.111L424.857 230.989C432.156 229.271 436.657 221.934 434.88 214.649L431.856 202.246ZM431.144 203.55L433.909 214.886C435.554 221.631 431.387 228.425 424.628 230.015L361.414 244.889C360.922 241.536 360.691 238.381 361.034 235.802C361.395 233.084 362.374 231.118 364.23 230.159C364.974 229.774 365.904 229.643 366.978 229.674C368.05 229.706 369.218 229.896 370.419 230.112C370.601 230.145 370.785 230.179 370.97 230.213C371.981 230.398 373.007 230.585 373.969 230.682C375.102 230.795 376.21 230.79 377.158 230.474L377.176 230.468L412.123 215.781L410.417 210.736L431.144 203.55Z" fill="black"/>
<path d="M141.961 233.808H159L174.5 281.5L153.052 281.361L150.418 264.674C148.743 254.067 145.899 243.718 141.961 233.808Z" fill="white"/>
<path fill-rule="evenodd" clip-rule="evenodd" d="M141.224 233.308H159.363L175.19 282.005L152.624 281.858L149.924 264.752C148.255 254.182 145.421 243.868 141.496 233.992L141.224 233.308ZM142.696 234.308C146.508 244.043 149.27 254.196 150.912 264.596L153.48 280.864L173.81 280.996L158.636 234.308H142.696Z" fill="black"/>
<path d="M57 364V341V237.5H81V341H166L167 364H88.5H57Z" fill="white"/>
<path fill-rule="evenodd" clip-rule="evenodd" d="M81.5 237H56.5V364.5H88V468.5H89V364.5H167.522L166.479 340.5H81.5V237ZM80.5 238V341.5H165.521L166.478 363.5H57.5V238H80.5Z" fill="black"/>
<path d="M146.883 468.5V444.266H167.234C166.124 454.573 189.436 450.247 199.612 468.5H146.883Z" fill="white"/>
<path fill-rule="evenodd" clip-rule="evenodd" d="M167.791 443.766H146.383V469H200.464L200.049 468.256C194.865 458.958 186.333 455.425 179.359 452.932C178.803 452.734 178.258 452.542 177.727 452.355C174.898 451.359 172.449 450.497 170.654 449.407C169.599 448.766 168.811 448.069 168.317 447.257C167.828 446.456 167.603 445.509 167.732 444.319L167.791 443.766ZM166.699 444.766C166.665 445.915 166.932 446.908 167.463 447.778C168.07 448.774 169.001 449.573 170.135 450.261C172.027 451.41 174.598 452.315 177.421 453.308C177.947 453.493 178.482 453.681 179.023 453.874C185.776 456.288 193.722 459.597 198.746 468H147.383V444.766H166.699Z" fill="black"/>
<path d="M229.27 468.5L223.27 444.266H243.622C242.512 454.573 271.824 450.247 282 468.5H229.27Z" fill="white"/>
<path fill-rule="evenodd" clip-rule="evenodd" d="M244.179 443.766H222.632L228.879 469H282.851L282.437 468.256C277.239 458.933 267.17 455.409 258.72 452.924C257.937 452.693 257.17 452.473 256.422 452.257C253.092 451.299 250.144 450.45 247.937 449.384C246.592 448.734 245.575 448.026 244.927 447.207C244.293 446.406 243.995 445.477 244.119 444.319L244.179 443.766ZM243.092 444.766C243.079 445.944 243.453 446.955 244.143 447.828C244.925 448.817 246.096 449.605 247.502 450.284C249.793 451.391 252.848 452.27 256.182 453.229C256.922 453.442 257.676 453.659 258.438 453.883C266.671 456.304 276.04 459.62 281.13 468H229.662L223.909 444.766H243.092Z" fill="black"/>
<path d="M97.9385 304V298H175.814C194.937 298 209.179 315.652 205.136 334.342L205.005 334.947L255.181 444.266H207.319L191.097 399.249L181.359 444.266H132.28L156.617 341H134.938C114.504 341 97.9385 324.435 97.9385 304Z" fill="white"/>
<path fill-rule="evenodd" clip-rule="evenodd" d="M97.4385 297.5H175.814C195.256 297.5 209.735 315.446 205.625 334.448L205.529 334.89L255.96 444.766H206.967L191.217 401.058L181.763 444.766H131.649L155.986 341.5H134.938C114.228 341.5 97.4385 324.711 97.4385 304V297.5ZM191.616 399.214L207.67 443.766H254.401L205.177 336.519L191.616 399.214ZM98.4385 298.5V304C98.4385 324.158 114.78 340.5 134.938 340.5H157.249L132.912 443.766H180.956L204.647 334.237C208.623 315.857 194.619 298.5 175.814 298.5H98.4385Z" fill="black"/>
<path d="M124.228 202.903C115.215 204.104 109.957 199.902 106.201 196.9C107.703 194.619 111.858 188.004 111.858 182.504C111.09 172.422 114.23 165.475 118.564 161.717C124.297 156.747 132.12 157.355 135.76 163.67C141.428 173.502 135.137 200.554 122.329 191.594C122.154 195.886 123.42 200.682 124.228 202.903Z" fill="white"/>
<path fill-rule="evenodd" clip-rule="evenodd" d="M127.896 158.959C130.862 159.263 133.586 160.901 135.327 163.92C136.682 166.271 137.346 169.707 137.353 173.442C137.361 177.168 136.714 181.133 135.502 184.51C134.285 187.903 132.526 190.626 130.364 191.969C129.294 192.634 128.123 192.962 126.851 192.871C125.575 192.78 124.161 192.265 122.616 191.184L121.866 190.66L121.829 191.573C121.666 195.603 122.74 200.04 123.552 202.481C115.4 203.36 110.49 199.68 106.868 196.793C107.663 195.568 108.93 193.51 110.046 191.121C111.283 188.473 112.358 185.364 112.358 182.505V182.486L112.357 182.467C111.598 172.504 114.703 165.726 118.892 162.094C121.666 159.689 124.921 158.654 127.896 158.959ZM127.998 157.964C124.718 157.628 121.195 158.774 118.237 161.339C113.759 165.221 110.586 172.332 111.358 182.523C111.353 185.159 110.353 188.1 109.14 190.698C107.928 193.292 106.529 195.493 105.783 196.625L105.533 197.006L105.899 197.299C109.667 200.311 115.069 204.628 124.294 203.399L124.911 203.317L124.698 202.732C123.958 200.698 122.83 196.468 122.813 192.505C124.191 193.337 125.517 193.779 126.78 193.869C128.282 193.975 129.66 193.583 130.892 192.818C133.334 191.302 135.195 188.327 136.444 184.848C137.697 181.354 138.361 177.272 138.353 173.44C138.346 169.618 137.671 165.985 136.193 163.42C134.293 160.125 131.286 158.301 127.998 157.964Z" fill="black"/>
<path d="M118.401 181.474C115.95 183.374 115.066 182.894 111.858 182.505C111.09 172.422 114.23 165.475 118.565 161.717C131.264 150.868 155.647 162.564 142.938 170.732C141.875 171.415 140.54 171.49 139.313 171.186C130.304 168.951 126.229 171.491 122.683 179.409C122.637 179.537 122.585 179.654 122.528 179.76C122.58 179.642 122.631 179.525 122.683 179.409C123.205 177.966 123.01 175.271 122.207 174.463C117.786 170.013 115.527 178.266 118.401 181.474Z" fill="black"/>
<path fill-rule="evenodd" clip-rule="evenodd" d="M146.51 167.773C145.933 168.962 144.846 170.1 143.208 171.153C141.996 171.931 140.51 171.997 139.193 171.671C134.737 170.566 131.61 170.671 129.18 171.934C126.748 173.199 124.903 175.68 123.147 179.597C123.095 179.738 123.036 179.873 122.967 179.999L122.07 179.56C122.119 179.446 122.169 179.334 122.219 179.222C122.443 178.592 122.523 177.645 122.444 176.742C122.404 176.291 122.326 175.871 122.217 175.524C122.104 175.168 121.972 174.936 121.853 174.816C120.804 173.761 120.007 173.579 119.465 173.715C118.901 173.857 118.385 174.396 118.033 175.282C117.687 176.152 117.543 177.263 117.658 178.347C117.774 179.432 118.145 180.439 118.773 181.14L119.131 181.54L118.707 181.869C117.439 182.852 116.513 183.268 115.45 183.347C114.936 183.385 114.409 183.343 113.828 183.271C113.566 183.239 113.287 183.2 112.991 183.159L112.891 183.145C112.555 183.099 112.194 183.049 111.798 183.001L111.391 182.951L111.36 182.543C110.583 172.341 113.756 165.223 118.237 161.339L118.24 161.336L118.24 161.336C124.776 155.753 134.263 155.994 140.475 158.633C143.57 159.948 145.986 161.915 146.751 164.193C147.14 165.352 147.093 166.572 146.51 167.773ZM123.447 176.738C124.923 174.064 126.586 172.156 128.719 171.047C131.465 169.619 134.881 169.571 139.434 170.7C140.57 170.982 141.753 170.899 142.667 170.311C144.207 169.322 145.138 168.308 145.61 167.336C146.077 166.376 146.111 165.427 145.803 164.511C145.174 162.638 143.083 160.827 140.084 159.553C134.107 157.014 125.054 156.831 118.891 162.096C114.76 165.678 111.683 172.32 112.328 182.06C112.576 182.092 112.809 182.124 113.029 182.155L113.127 182.169C113.426 182.21 113.696 182.248 113.95 182.279C114.513 182.348 114.962 182.38 115.376 182.349C116.076 182.297 116.734 182.063 117.69 181.381C117.099 180.537 116.775 179.494 116.664 178.453C116.533 177.225 116.691 175.95 117.104 174.912C117.51 173.89 118.208 173 119.221 172.745C120.257 172.485 121.399 172.941 122.562 174.111C122.844 174.394 123.037 174.801 123.17 175.223C123.307 175.654 123.396 176.149 123.44 176.654C123.443 176.682 123.445 176.71 123.447 176.738Z" fill="black"/>
<path d="M106.388 196C110.144 199.001 115.402 203.203 124.415 202.003L132.2 204.404C144.559 208.217 154.224 217.908 158.003 230.278L162.5 245H145.886C147.847 251.426 149.364 257.999 150.418 264.674L155.687 298.048H97.9905V305.646C91.1762 305.646 86.1224 300.58 84.5 298.048C85.4293 275.305 88.0654 256.315 91.1824 241.026L76.3877 235.898L83.3805 216.21C86.667 206.957 94.1431 199.808 103.534 196.938L106.388 196Z" fill="#1064E1"/>
<path fill-rule="evenodd" clip-rule="evenodd" d="M106.489 195.44L106.7 195.609C110.443 198.6 115.556 202.678 124.349 201.507L124.458 201.493L132.348 203.926C144.865 207.788 154.654 217.603 158.481 230.132L163.176 245.5H146.56C148.433 251.742 149.89 258.121 150.912 264.596L156.272 298.548H98.4905V306.146H97.9905C94.4568 306.146 91.3931 304.832 89.0163 303.209C86.6433 301.589 84.9268 299.641 84.079 298.317L83.994 298.185L84.0004 298.027C84.9221 275.469 87.5213 256.595 90.6054 241.355L75.7479 236.205L82.9094 216.042C86.2483 206.642 93.8429 199.378 103.383 196.462L106.489 195.44ZM91.5588 241.686C88.5204 256.735 85.9564 275.339 85.0212 297.548H155.102L149.924 264.752C148.874 258.1 147.362 251.549 145.408 245.146C144.256 241.374 142.951 237.653 141.497 233.992L142.426 233.623C143.845 237.194 145.123 240.823 146.256 244.5H161.824L157.525 230.424C153.794 218.213 144.253 208.645 132.053 204.882L124.372 202.513C115.376 203.672 110.031 199.549 106.287 196.559L103.68 197.417C94.4407 200.24 87.0852 207.273 83.8517 216.377L77.0275 235.59L97.8084 242.794L107.038 218.452L107.973 218.806L98.399 244.057L91.5588 241.686ZM85.4663 298.548C86.3493 299.694 87.7565 301.138 89.5803 302.384C91.7241 303.848 94.418 305.02 97.4905 305.136V298.548H85.4663Z" fill="black"/>
<path d="M147.074 266H154L150.773 252.32L150.236 250.044C149.833 248.335 148.168 247.236 146.438 247.539C144.568 247.866 143.354 249.692 143.776 251.543L144.3 253.84L147.074 266Z" fill="white"/>
<path fill-rule="evenodd" clip-rule="evenodd" d="M150.723 249.929C150.259 247.962 148.342 246.698 146.352 247.046C144.2 247.423 142.803 249.525 143.289 251.654L146.675 266.5H154.632L150.723 249.929ZM146.524 248.031C147.993 247.774 149.407 248.707 149.75 250.159L150.172 251.948L144.676 253.238L144.264 251.432C143.905 249.86 144.936 248.309 146.524 248.031ZM144.898 254.213L150.401 252.921L153.368 265.5H147.473L144.898 254.213Z" fill="black"/>
<path d="M91.1824 241.026L98.1037 243.426L95 253L136 263C141 264 145.602 260.07 150 260.678C157.437 261.706 162.746 266.208 163.5 274H136H77.9118C70.2209 274 64.9042 266.309 67.6211 259.114L76.3877 235.898L91.1824 241.026Z" fill="white"/>
<path fill-rule="evenodd" clip-rule="evenodd" d="M76.0918 235.266L98.7304 243.114L95.6417 252.642L136.108 262.512C138.458 262.978 140.735 262.296 143.066 261.512C143.22 261.461 143.374 261.408 143.529 261.356C145.669 260.631 147.884 259.881 150.068 260.183C153.868 260.708 157.158 262.126 159.6 264.44C162.047 266.758 163.61 269.947 163.998 273.952L164.051 274.5H77.9118C69.8713 274.5 64.3129 266.46 67.1533 258.937L76.0918 235.266ZM76.6836 236.53L68.0888 259.291C65.4954 266.159 70.5704 273.5 77.9118 273.5H162.941C162.491 269.974 161.058 267.199 158.912 265.166C156.652 263.024 153.569 261.676 149.932 261.174C147.991 260.905 145.993 261.58 143.784 262.325C143.652 262.37 143.519 262.415 143.385 262.46C141.069 263.238 138.549 264.02 135.902 263.49L135.892 263.488L94.3583 253.358L97.4769 243.738L76.6836 236.53Z" fill="black"/>
<path d="M97.9903 305.646C91.176 305.646 84 301.5 84.4998 298.048H97.9903V305.646Z" fill="black"/>
<path fill-rule="evenodd" clip-rule="evenodd" d="M84.067 297.548H98.4903V306.146H97.9903C94.4912 306.146 90.9091 305.084 88.2552 303.576C86.9284 302.822 85.8101 301.943 85.0503 301.006C84.2937 300.073 83.8524 299.03 84.005 297.976L84.067 297.548ZM84.9814 298.548C85.0248 299.111 85.3021 299.729 85.8269 300.376C86.4849 301.188 87.4929 301.993 88.7493 302.707C91.1359 304.063 94.3346 305.043 97.4903 305.138V298.548H84.9814Z" fill="black"/>
<path d="M194 274H81V291H194V274Z" fill="white"/>
<path fill-rule="evenodd" clip-rule="evenodd" d="M194.5 273.5H80.5V291.5H194.5V273.5ZM193.5 274.5V290.5H81.5V274.5H193.5Z" fill="black"/>
<path d="M167 274C169.244 258.832 186.073 259.843 190 274H167Z" fill="white"/>
<path fill-rule="evenodd" clip-rule="evenodd" d="M170.648 265.244C168.595 267.152 167.08 270.044 166.505 273.927L166.421 274.5H190.658L190.482 273.866C188.47 266.612 183.116 262.636 177.882 262.503C175.266 262.437 172.701 263.335 170.648 265.244ZM189.331 273.5C187.292 267.01 182.433 263.619 177.856 263.503C175.493 263.443 173.184 264.251 171.329 265.976C169.569 267.612 168.193 270.095 167.588 273.5H189.331Z" fill="black"/>
<path d="M403.549 152.975C401.85 158.206 402.075 160.267 402.799 162.9C399.043 165.902 393.785 170.104 384.772 168.903C386.5 166.5 389.622 162.52 390.782 158.384C375.832 162.948 378.209 135.276 386.638 127.677C392.051 122.796 399.679 124.634 403.595 131.133C406.556 136.046 407.395 143.624 403.549 152.975Z" fill="white"/>
<path fill-rule="evenodd" clip-rule="evenodd" d="M395.572 125.626C392.657 124.998 389.561 125.714 386.973 128.048C384.956 129.866 383.263 132.928 382.102 136.478C380.944 140.019 380.334 143.99 380.442 147.577C380.551 151.179 381.383 154.313 383.024 156.258C383.837 157.221 384.849 157.894 386.086 158.201C387.328 158.509 388.832 158.456 390.636 157.906L391.511 157.639L391.264 158.519C390.198 162.316 387.53 165.971 385.76 168.394C385.733 168.431 385.706 168.468 385.679 168.505C393.767 169.297 398.634 165.584 402.231 162.714C401.91 161.494 401.702 160.336 401.766 158.89C401.834 157.328 402.217 155.457 403.074 152.821L403.08 152.803L403.087 152.785C406.887 143.545 406.028 136.139 403.167 131.391C401.272 128.246 398.496 126.256 395.572 125.626ZM395.783 124.649C399.006 125.343 402.002 127.521 404.023 130.874C407.082 135.95 407.902 143.694 404.019 153.148C403.18 155.733 402.828 157.502 402.765 158.934C402.702 160.358 402.926 161.475 403.281 162.768L403.368 163.085L403.101 163.299C399.333 166.31 393.931 170.628 384.706 169.399L383.879 169.289L384.366 168.611C384.549 168.356 384.746 168.086 384.954 167.8C386.595 165.551 388.889 162.405 390.033 159.103C388.467 159.467 387.073 159.476 385.846 159.172C384.384 158.809 383.195 158.011 382.26 156.903C380.406 154.705 379.555 151.302 379.443 147.607C379.331 143.896 379.961 139.81 381.152 136.167C382.34 132.534 384.104 129.287 386.303 127.305C389.128 124.758 392.552 123.953 395.783 124.649Z" fill="black"/>
<path d="M397.645 149.974C399.389 152.538 400.378 152.355 403.549 152.976C407.395 143.624 406.556 136.046 403.595 131.133C393.571 114.5 376 134 382.5 134C393.284 134.277 393.317 137.481 394.21 146.659C394.213 146.805 394.226 146.942 394.25 147.068C394.236 146.931 394.223 146.794 394.21 146.659C394.172 145.123 395.185 142.647 396.192 142.13C401.772 139.264 401.37 147.811 397.645 149.974Z" fill="black"/>
<path fill-rule="evenodd" clip-rule="evenodd" d="M382.493 134.5C382.033 134.499 381.623 134.413 381.294 134.211C380.95 134 380.734 133.685 380.643 133.313C380.474 132.618 380.75 131.775 381.209 130.966C382.151 129.306 384.123 127.329 386.601 125.896C389.083 124.46 392.135 123.534 395.241 124.071C398.366 124.611 401.457 126.617 404.023 130.874C407.084 135.954 407.903 143.703 404.012 153.166L403.856 153.545L403.453 153.466C403.061 153.389 402.703 153.325 402.369 153.266C402.336 153.26 402.303 153.254 402.27 153.248C401.975 153.196 401.698 153.146 401.439 153.096C400.864 152.984 400.35 152.861 399.873 152.666C398.886 152.263 398.134 151.582 397.232 150.255L396.93 149.811L397.394 149.541C398.209 149.068 398.872 148.225 399.318 147.229C399.762 146.234 399.969 145.133 399.909 144.198C399.848 143.246 399.523 142.574 399.031 142.266C398.558 141.969 397.743 141.895 396.42 142.574C396.27 142.651 396.074 142.83 395.858 143.131C395.648 143.423 395.445 143.796 395.269 144.208C394.915 145.036 394.697 145.957 394.709 146.629L394.747 147.019L393.758 147.159C393.73 147.008 393.715 146.85 393.71 146.69C393.689 146.467 393.668 146.248 393.647 146.033C393.453 144.028 393.291 142.352 393.028 140.939C392.737 139.374 392.33 138.191 391.662 137.289C390.349 135.515 387.879 134.639 382.493 134.5ZM394.415 143.666C394.299 142.601 394.174 141.631 394.011 140.756C393.709 139.131 393.266 137.774 392.466 136.694C390.843 134.502 387.906 133.638 382.513 133.5L382.5 133.5L382.5 133.5C382.15 133.5 381.939 133.433 381.817 133.359C381.709 133.292 381.646 133.205 381.615 133.076C381.54 132.77 381.648 132.219 382.079 131.46C382.917 129.984 384.745 128.125 387.101 126.762C389.452 125.402 392.266 124.572 395.071 125.056C397.857 125.538 400.72 127.332 403.167 131.391L403.595 131.133L403.167 131.391C405.989 136.074 406.863 143.343 403.24 152.407C402.994 152.361 402.762 152.32 402.544 152.281L402.446 152.264C402.149 152.211 401.88 152.163 401.63 152.114C401.073 152.006 400.636 151.898 400.251 151.741C399.602 151.475 399.048 151.048 398.35 150.104C399.173 149.485 399.803 148.593 400.231 147.637C400.734 146.51 400.978 145.248 400.907 144.134C400.836 143.037 400.448 141.974 399.562 141.418C398.658 140.851 397.43 140.931 395.963 141.685C395.61 141.866 395.302 142.191 395.046 142.548C394.812 142.873 394.599 143.258 394.415 143.666Z" fill="black"/>
<path d="M353.378 444.266C354.488 454.573 331.176 460.247 331 468.5H376.73C376.554 460.247 373.242 454.573 374.352 444.266H353.378Z" fill="white"/>
<path fill-rule="evenodd" clip-rule="evenodd" d="M352.821 443.766H374.909L374.849 444.319C374.301 449.404 374.843 453.345 375.55 457.06C375.682 457.755 375.821 458.444 375.959 459.133C376.559 462.117 377.157 465.093 377.23 468.489L377.24 469H330.489L330.5 468.489C330.549 466.192 332.198 464.164 334.404 462.299C336.291 460.705 338.688 459.147 341.105 457.577C341.536 457.297 341.968 457.016 342.397 456.735C345.257 454.863 348.026 452.958 350.014 450.893C352.001 448.83 353.135 446.683 352.881 444.319L352.821 443.766ZM353.913 444.766C353.99 447.324 352.674 449.573 350.735 451.587C348.658 453.743 345.797 455.705 342.945 457.572C342.508 457.858 342.072 458.141 341.638 458.423C339.218 459.996 336.884 461.513 335.05 463.063C333.073 464.734 331.795 466.35 331.544 468H376.215C376.099 464.912 375.551 462.184 374.984 459.362C374.845 458.665 374.703 457.962 374.567 457.247C373.877 453.619 373.332 449.723 373.799 444.766H353.913Z" fill="black"/>
<path d="M427.378 444.266C428.488 454.573 405.176 460.247 405 468.5H450.73C450.554 460.247 447.242 454.573 448.352 444.266H427.378Z" fill="white"/>
<path fill-rule="evenodd" clip-rule="evenodd" d="M426.821 443.766H448.909L448.849 444.319C448.301 449.404 448.843 453.345 449.55 457.06C449.682 457.755 449.82 458.444 449.959 459.133C450.559 462.117 451.157 465.093 451.229 468.489L451.24 469H404.489L404.5 468.489C404.549 466.192 406.198 464.164 408.404 462.299C410.291 460.705 412.688 459.147 415.105 457.577C415.536 457.297 415.968 457.016 416.397 456.735C419.257 454.863 422.026 452.958 424.014 450.893C426.001 448.83 427.135 446.683 426.881 444.319L426.821 443.766ZM427.913 444.766C427.99 447.324 426.674 449.573 424.735 451.587C422.658 453.743 419.797 455.705 416.945 457.572C416.508 457.858 416.072 458.141 415.638 458.423C413.218 459.996 410.884 461.513 409.05 463.063C407.073 464.734 405.795 466.35 405.544 468H450.215C450.099 464.912 449.551 462.184 448.984 459.362C448.844 458.665 448.703 457.962 448.567 457.247C447.877 453.619 447.332 449.723 447.799 444.766H427.913Z" fill="black"/>
<path d="M413 265H365.5H353.5L336.819 444.266H384.681L392.065 370.5L410.64 444.266H459.719L413 265Z" fill="white"/>
<path fill-rule="evenodd" clip-rule="evenodd" d="M413.386 264.5H353.044L336.27 444.766H385.133L392.278 373.393L410.25 444.766H460.366L413.386 264.5ZM391.559 370.537L384.229 443.766H337.367L353.956 265.5H365.11L391.559 370.537ZM366.141 265.5H412.613L459.072 443.766H411.03L366.141 265.5Z" fill="black"/>
<path d="M417 119C411.4 109.8 404.667 122.833 402 130.5C400.667 131.5 399.3 133.7 404.5 134.5C411 135.5 424 130.5 417 119Z" fill="black"/>
<path d="M117 80C117 100.435 100.435 117 80 117C59.5655 117 43 100.435 43 80C43 59.5655 59.5655 43 80 43C100.435 43 117 59.5655 117 80Z" fill="#FF7626"/>
<path fill-rule="evenodd" clip-rule="evenodd" d="M80 116C99.8823 116 116 99.8823 116 80C116 60.1177 99.8823 44 80 44C60.1177 44 44 60.1177 44 80C44 99.8823 60.1177 116 80 116ZM80 117C100.435 117 117 100.435 117 80C117 59.5655 100.435 43 80 43C59.5655 43 43 59.5655 43 80C43 100.435 59.5655 117 80 117Z" fill="black"/>
<path d="M122.5 102.5C115.7 89.7001 86 91.5001 79.5 107.5H191C173.5 71.5001 129.5 84.5001 122.5 102.5Z" fill="white"/>
<path fill-rule="evenodd" clip-rule="evenodd" d="M133.95 91.0552C128.627 94.2075 124.662 98.3194 122.966 102.681L122.57 103.698L122.058 102.735C120.434 99.6761 117.422 97.455 113.657 96.1018C109.895 94.7492 105.417 94.2785 100.934 94.6978C92.208 95.514 83.6426 99.6736 80.2616 107H190.194C181.49 89.774 166.547 84.2746 152.848 85.2487C145.894 85.7432 139.266 87.9073 133.95 91.0552ZM152.777 84.2513C167.015 83.2388 182.599 89.0732 191.45 107.281L191.799 108H78.7572L79.0368 107.312C82.3866 99.0661 91.6617 94.5608 100.841 93.7022C105.445 93.2715 110.074 93.7508 113.996 95.1607C117.564 96.4436 120.578 98.5092 122.429 101.39C124.402 97.1129 128.364 93.2011 133.441 90.1948C138.89 86.9677 145.668 84.7568 152.777 84.2513Z" fill="black"/>
<path d="M384.937 76.0628C379.57 65.9836 356.13 67.401 351 80H439C425.188 51.6523 390.462 61.8889 384.937 76.0628Z" fill="white"/>
<path fill-rule="evenodd" clip-rule="evenodd" d="M394.027 67.1424C389.838 69.6173 386.73 72.8392 385.403 76.2443L385.008 77.2588L384.496 76.2977C383.23 73.9195 380.878 72.1844 377.923 71.1247C374.97 70.0656 371.452 69.6958 367.926 70.0248C361.118 70.6602 354.462 73.8729 351.768 79.4999H438.191C431.332 66.1006 419.631 61.8229 408.896 62.5845C403.424 62.9727 398.209 64.6719 394.027 67.1424ZM408.826 61.587C420.099 60.7872 432.442 65.3988 439.449 79.7809L439.8 80.4999H350.257L350.537 79.8114C353.202 73.2661 360.57 69.707 367.833 69.0292C371.48 68.6888 375.149 69.0672 378.261 70.1834C381.027 71.1755 383.382 72.7622 384.866 74.9732C386.461 71.6464 389.568 68.6157 393.519 66.2814C397.834 63.732 403.199 61.9862 408.826 61.587Z" fill="black"/>
<path fill-rule="evenodd" clip-rule="evenodd" d="M238 219.665L316.236 261.559L316 262.5H238V219.665ZM239 221.335V261.5H314.007L239 221.335ZM245 245.5H246V254H254.5V255H245V245.5Z" fill="black"/>
<path fill-rule="evenodd" clip-rule="evenodd" d="M290.296 215.957L252.296 198.957L252.704 198.044L290.704 215.044L290.296 215.957Z" fill="black"/>
<path fill-rule="evenodd" clip-rule="evenodd" d="M469 469H43V468H469V469Z" fill="black"/>
</svg>
